<svg xmlns="http://www.w3.org/2000/svg" xmlns:xlink="http://www.w3.org/1999/xlink" width="100" height="100" viewBox="0 0 100 100">
  <defs>
    <clipPath id="clip-path">
      <rect id="Rectángulo_340717" data-name="Rectángulo 340717" width="60" height="60" transform="translate(-0.222 -0.222)" fill="none"/>
    </clipPath>
  </defs>
  <g id="Grupo_970841" data-name="Grupo 970841" transform="translate(-484 -3750)">
    <circle id="Elipse_5411" data-name="Elipse 5411" cx="50" cy="50" r="50" transform="translate(484 3750)" fill="#f3f9ff"/>
    <g id="Grupo_970722" data-name="Grupo 970722" transform="translate(88.591 -69.778)">
      <rect id="Rectángulo_340718" data-name="Rectángulo 340718" width="60" height="60" transform="translate(415.409 3839.778)" fill="none"/>
      <g id="Grupo_970721" data-name="Grupo 970721" transform="translate(415.63 3840)">
        <g id="Grupo_970720" data-name="Grupo 970720" transform="translate(0 0)" clip-path="url(#clip-path)">
          <path id="Trazado_661586" data-name="Trazado 661586" d="M25.419,300.341H20.189A12.688,12.688,0,0,0,7.5,313.029V323.9H38.107V313.029A12.688,12.688,0,0,0,25.419,300.341Z" transform="translate(-6.33 -265.516)" fill="#7bacdf"/>
          <path id="Trazado_661587" data-name="Trazado 661587" d="M23.776,300.343A12.688,12.688,0,0,0,11.088,313.03V323.9H7.5V313.03a12.688,12.688,0,0,1,12.687-12.687Z" transform="translate(-6.33 -265.518)" fill="#5f99d7"/>
          <path id="Trazado_661588" data-name="Trazado 661588" d="M131,357.983l-3.248-19.114h0l-3.248,19.114" transform="translate(-109.832 -299.598)" fill="#7a6d79"/>
          <rect id="Rectángulo_340716" data-name="Rectángulo 340716" width="4.558" height="4.558" transform="translate(14.701 38.473) rotate(-45)" fill="#7a6d79"/>
          <path id="Trazado_661589" data-name="Trazado 661589" d="M105.892,283.4l.817.6a3.464,3.464,0,0,1,1.359,3.38l-.6,3.447-3.963-3.683-3.963,3.683-1.951-3.24a3.463,3.463,0,0,1,.913-4.575" transform="translate(-85.585 -250.188)" fill="#5f99d7"/>
          <path id="Trazado_661590" data-name="Trazado 661590" d="M100.953,131.268v10.063a6.686,6.686,0,0,1-5.133,6.5,6.14,6.14,0,0,1-.675.125v2.294a2.672,2.672,0,0,1-3.426,2.563l-.087-.026a5.647,5.647,0,0,1-4.051-5.416v-5.638h-.54a2.095,2.095,0,0,1-1.737-3.265c.2-.292-.133-2.044.184-2.206.285-.146.332.033.675.033h.54l.877-5.032Z" transform="translate(-74.837 -115.954)" fill="#ffdfcf"/>
          <path id="Trazado_661591" data-name="Trazado 661591" d="M95.82,147.834a6.14,6.14,0,0,1-.675.125,6.7,6.7,0,0,1-2.385-.114v5.066a2.659,2.659,0,0,1-1.041-.1l-.087-.026a5.647,5.647,0,0,1-4.051-5.415v-5.638h-.54a2.095,2.095,0,0,1-1.737-3.265c.2-.292-.133-2.044.184-2.206.285-.146.332.033.675.033h.54l.877-5.032h3.811l.647,1.554v10.051a5.146,5.146,0,0,0,3.782,4.962" transform="translate(-74.837 -115.953)" fill="#ffcebf"/>
          <path id="Trazado_661592" data-name="Trazado 661592" d="M87.7,73.1a2.125,2.125,0,0,1-.954,1.776A18.221,18.221,0,0,1,73.41,77.6l-1.225-.225-.559,2.475a2.2,2.2,0,0,1-2.142,1.712H68.74a2.091,2.091,0,0,0-1.8,1.032h0l-.709-.709a6.714,6.714,0,0,1,5.608-11.411,16.585,16.585,0,0,0,9.193-1.447l1.878-.885a1.757,1.757,0,0,1,1.64,3.1A2.129,2.129,0,0,1,87.7,73.1Z" transform="translate(-56.538 -59.965)" fill="#7a6d79"/>
          <path id="Trazado_661593" data-name="Trazado 661593" d="M69.118,94.221a6.717,6.717,0,0,0,1.294,5.845,2.2,2.2,0,0,1-.928.205h-.744a2.091,2.091,0,0,0-1.8,1.032h0l-.709-.709a6.714,6.714,0,0,1,5.608-11.411,16.488,16.488,0,0,0,2.211.135A6.721,6.721,0,0,0,69.118,94.221Z" transform="translate(-56.537 -78.677)" fill="#685e68"/>
          <path id="Trazado_661594" data-name="Trazado 661594" d="M144.525,227.478h-1.088a1.413,1.413,0,0,1-1.413-1.413v-.052a1.413,1.413,0,0,1,1.413-1.413h1.088a1.413,1.413,0,0,1,1.413,1.413v.052a1.413,1.413,0,0,1-1.413,1.413" transform="translate(-125.328 -198.516)" fill="#685e68"/>
          <path id="Trazado_661595" data-name="Trazado 661595" d="M265.736,391.2a2,2,0,0,0-2,2v5.6h3.992v-5.6a2,2,0,0,0-2-2" transform="translate(-232.998 -345.893)" fill="#ffcebf"/>
          <path id="Trazado_661596" data-name="Trazado 661596" d="M254.089,448.4h7.446l1.114-5.476-2.242-1.842-5.2,1.842Z" transform="translate(-224.461 -390.018)" fill="#7bacdf"/>
          <path id="Trazado_661597" data-name="Trazado 661597" d="M261.123,441.669l-3.541,1.254-1.114,5.476h-2.38l1.114-5.476,5.2-1.843Z" transform="translate(-224.461 -390.013)" fill="#5f99d7"/>
          <path id="Trazado_661598" data-name="Trazado 661598" d="M263.739,428.807h10.094a1.842,1.842,0,0,0,0-3.684h-6.658a3.436,3.436,0,0,0-3.436,3.436Z" transform="translate(-232.997 -375.898)" fill="#ffdfcf"/>
          <path id="Trazado_661599" data-name="Trazado 661599" d="M313.444,7.5H293.824a2.49,2.49,0,0,0-2.49,2.49V23.618a2.486,2.486,0,0,0,1.658,2.344.845.845,0,0,1,.539.977l-.68,3.13a.877.877,0,0,0,1.357.907l6.4-4.444a2.37,2.37,0,0,1,1.353-.424h11.487a2.49,2.49,0,0,0,2.49-2.49V9.99a2.49,2.49,0,0,0-2.49-2.49" transform="translate(-257.407 -6.47)" fill="#bbec6c"/>
          <path id="Trazado_661600" data-name="Trazado 661600" d="M199.7,172.1v-1.036a.866.866,0,0,0-1.731,0V172.1a.866.866,0,1,0,1.731,0" transform="translate(-174.821 -150.391)"/>
          <path id="Trazado_661601" data-name="Trazado 661601" d="M156.543,172.964a.866.866,0,0,0,.866-.866v-1.036a.866.866,0,0,0-1.731,0V172.1a.866.866,0,0,0,.866.866" transform="translate(-137.406 -150.391)"/>
          <path id="Trazado_661602" data-name="Trazado 661602" d="M136.8,221.709h1.088a2.281,2.281,0,0,0,2.279-2.279v-.052a2.281,2.281,0,0,0-2.279-2.279H136.8a2.281,2.281,0,0,0-2.279,2.279v.052a2.281,2.281,0,0,0,2.279,2.279m-.548-2.33a.548.548,0,0,1,.548-.548h1.088a.548.548,0,0,1,.548.548v.052a.548.548,0,0,1-.548.548H136.8a.548.548,0,0,1-.548-.548Z" transform="translate(-118.694 -191.881)"/>
          <path id="Trazado_661603" data-name="Trazado 661603" d="M40.53,101.687H35.294v-1.053a2.862,2.862,0,0,0-3.3-2.829,13.565,13.565,0,0,0-9.448-9.987,4.338,4.338,0,0,0-1.216-1.376l-.464-.342v-.048A7.57,7.57,0,0,0,26.676,78.7V70.873a19.185,19.185,0,0,0,3.708-1.91,2.993,2.993,0,0,0-1-5.42,2.617,2.617,0,0,0-3.689-2.826l-1.879.885a15.647,15.647,0,0,1-4.707,1.372.865.865,0,1,0,.219,1.717,17.377,17.377,0,0,0,5.226-1.524l1.877-.884A.873.873,0,0,1,26.8,62.2a.891.891,0,0,1,.458,1.656l-.046.026-.013.008-.012.007-.814.489a.866.866,0,0,0,.892,1.484l.835-.5.015-.008a1.251,1.251,0,0,1,.61-.159,1.264,1.264,0,0,1,.7,2.318,17.265,17.265,0,0,1-12.707,2.588L15.5,69.883a.866.866,0,0,0-1,.661l-.558,2.475a1.323,1.323,0,0,1-1.3,1.037H11.9a2.968,2.968,0,0,0-1.836.642l-.066-.066a5.851,5.851,0,0,1,4.885-9.94l.019,0,.195.023A.866.866,0,0,0,15.278,63l-.179-.021h-.013A7.582,7.582,0,0,0,8.771,75.856l.3.3a2.959,2.959,0,0,0,2.5,3.8v4.79a6.413,6.413,0,0,0,.092,1.078,4.306,4.306,0,0,0-1.124,1.8A13.54,13.54,0,0,0,0,100.839v10.873a.866.866,0,0,0,.866.866h35.9a.866.866,0,0,0,.848-.693l.973-4.783h1.941a2.708,2.708,0,1,0,0-5.415Zm-6.968-1.053V101.7a4.279,4.279,0,0,0-2.261.842v-1.908a1.13,1.13,0,1,1,2.261,0M21.856,94.787a.866.866,0,0,0,.576-.672l.6-3.447a4.391,4.391,0,0,0,.062-.84,11.769,11.769,0,0,1,7.306,8.8,2.852,2.852,0,0,0-.827,2.01v5.515l-.955,4.7h-.8V100.815a.866.866,0,1,0-1.731,0v10.032H21.595L18.9,94.971l1.2-1.2.893.83a.865.865,0,0,0,.866.186Zm-4.24-3.321,1.212,1.127-1.213,1.213L16.4,92.593Zm3.708-1.094L21,92.246l-1.765-1.64c.073-.047.145-.1.215-.148A3.5,3.5,0,0,0,20.8,88.313a2.581,2.581,0,0,1,.524,2.059m-10.3-12.488a1.228,1.228,0,0,1-.191-1.491,1.236,1.236,0,0,1,1.059-.606h.744A3.045,3.045,0,0,0,15.627,73.4L16,71.736l.406.075a19.2,19.2,0,0,0,4.118.309v1.95a4.251,4.251,0,0,0,1.641,3.367.076.076,0,0,1,.023.03.072.072,0,0,1-.012.079.072.072,0,0,1-.054.024.866.866,0,1,0,0,1.731,1.8,1.8,0,0,0,1.111-3.225,2.531,2.531,0,0,1-.978-2.005V71.981a18.909,18.909,0,0,0,2.686-.538V78.7a5.83,5.83,0,0,1-5.055,5.77h0a5.741,5.741,0,0,1-.762.05,5.842,5.842,0,0,1-1.677-.245,5.767,5.767,0,0,1-1.483-.686.866.866,0,0,0-.942,1.452,7.528,7.528,0,0,0,4.1,1.21h.012v1.371a1.806,1.806,0,0,1-2.31,1.735l-.093-.028a4.808,4.808,0,0,1-3.43-4.585V79.109a.866.866,0,0,0-.866-.866H11.9A1.223,1.223,0,0,1,11.028,77.884Zm4.731,12.945-1.914,1.779-1.4-2.327a2.586,2.586,0,0,1-.107-2.49,6.546,6.546,0,0,0,3.423,3.037M1.731,100.839a11.811,11.811,0,0,1,8.634-11.387,4.349,4.349,0,0,0,.6,1.722l1.951,3.239a.865.865,0,0,0,1.331.187l.892-.829,1.2,1.2-1.56,9.185a.866.866,0,1,0,1.707.29l1.135-6.683,2.223,13.082H15.394l.412-2.427a.866.866,0,0,0-1.707-.29l-.462,2.717H8.615V100.815a.866.866,0,1,0-1.731,0v10.032H1.731Zm34.33,10.008h-5.68l.762-3.745h5.68Zm4.469-5.476H31.377a2.575,2.575,0,0,1,2.5-1.953H40.53a.977.977,0,1,1,0,1.953" transform="translate(0.306 -53.327)"/>
          <path id="Trazado_661604" data-name="Trazado 661604" d="M306.807,0H287.186a3.359,3.359,0,0,0-3.356,3.355V16.984a3.357,3.357,0,0,0,2.214,3.152l-.678,3.116a1.741,1.741,0,0,0,2.7,1.8l6.4-4.444a1.5,1.5,0,0,1,.859-.269h5.4a.866.866,0,1,0,0-1.731h-5.4a3.222,3.222,0,0,0-1.846.578l-6.4,4.444-.006,0c-.006,0-.013-.009-.013-.015l.681-3.13a1.714,1.714,0,0,0-1.1-1.977,1.624,1.624,0,0,1-1.081-1.528V3.355a1.626,1.626,0,0,1,1.625-1.624h19.621a1.626,1.626,0,0,1,1.624,1.624V16.984a1.626,1.626,0,0,1-1.624,1.624h-2.063a.866.866,0,1,0,0,1.731h2.063a3.359,3.359,0,0,0,3.355-3.355V3.355A3.358,3.358,0,0,0,306.807,0Z" transform="translate(-250.769 0.165)"/>
          <path id="Trazado_661605" data-name="Trazado 661605" d="M338.572,40.922h14.89a.866.866,0,1,0,0-1.731h-14.89a.866.866,0,0,0,0,1.731" transform="translate(-298.428 -34.503)"/>
          <path id="Trazado_661606" data-name="Trazado 661606" d="M354.327,66.661a.866.866,0,0,0-.866-.866h-14.89a.866.866,0,0,0,0,1.731h14.89a.866.866,0,0,0,.866-.866" transform="translate(-298.428 -58.037)"/>
          <path id="Trazado_661607" data-name="Trazado 661607" d="M338.572,92.4a.866.866,0,0,0,0,1.731h9.21a.866.866,0,0,0,0-1.731Z" transform="translate(-298.428 -81.57)"/>
        </g>
      </g>
    </g>
  </g>
</svg>
