<svg xmlns="http://www.w3.org/2000/svg" xmlns:xlink="http://www.w3.org/1999/xlink" width="85" height="85" viewBox="0 0 85 85">
  <defs>
    <clipPath id="clip-path">
      <rect id="Rectángulo_340693" data-name="Rectángulo 340693" width="85" height="85" fill="none"/>
    </clipPath>
  </defs>
  <g id="Grupo_970704" data-name="Grupo 970704" transform="translate(-230 -2937)">
    <rect id="Rectángulo_34599" data-name="Rectángulo 34599" width="85" height="85" transform="translate(230 2937)" fill="none"/>
    <g id="Grupo_970703" data-name="Grupo 970703" transform="translate(230 2937)">
      <g id="Grupo_970702" data-name="Grupo 970702" clip-path="url(#clip-path)">
        <path id="Trazado_661492" data-name="Trazado 661492" d="M370.968,8A10.968,10.968,0,1,1,360,18.968,10.968,10.968,0,0,1,370.968,8" transform="translate(-298.306 -6.629)" fill="#7bcc8f"/>
        <path id="Trazado_661493" data-name="Trazado 661493" d="M370.968,248A10.968,10.968,0,1,1,360,258.968,10.968,10.968,0,0,1,370.968,248" transform="translate(-298.306 -205.5)" fill="#d96d6d"/>
        <path id="Trazado_661494" data-name="Trazado 661494" d="M153.551,400h-8.183A1.371,1.371,0,0,0,144,401.371v0l.043,12.338a1.371,1.371,0,0,0,1.371,1.367h8.182a1.372,1.372,0,0,0,1.372-1.372v0l-.043-12.338A1.371,1.371,0,0,0,153.551,400Z" transform="translate(-119.32 -331.452)" fill="#608cbf"/>
        <path id="Trazado_661495" data-name="Trazado 661495" d="M36.79,24A28.79,28.79,0,1,1,8,52.79,28.79,28.79,0,0,1,36.79,24" transform="translate(-6.629 -19.887)" fill="#608cbf"/>
        <rect id="Rectángulo_340689" data-name="Rectángulo 340689" width="4" height="6" transform="translate(28 62)" fill="#dae6f2"/>
        <path id="Trazado_661496" data-name="Trazado 661496" d="M56.677,48A24.677,24.677,0,1,1,32,72.677,24.677,24.677,0,0,1,56.677,48" transform="translate(-26.516 -39.774)" fill="#c2daf2"/>
        <path id="Trazado_661497" data-name="Trazado 661497" d="M74.968,96c-3.786,0-6.855,2.631-6.855,5.876a5.053,5.053,0,0,0,.283,1.581,5.972,5.972,0,0,0-4.4,5.469,5.46,5.46,0,0,0,1.968,4.113A5.461,5.461,0,0,0,64,117.148a5.936,5.936,0,0,0,4.168,5.405c-.015.158-.055.309-.055.47,0,3.245,3.069,5.876,6.855,5.876a7.243,7.243,0,0,0,5.484-2.383V98.378A7.243,7.243,0,0,0,74.968,96Z" transform="translate(-53.032 -79.544)" fill="#f2d891"/>
        <path id="Trazado_661498" data-name="Trazado 661498" d="M205.651,114.853a13.5,13.5,0,0,0,0-4.8l2.8-1.72a16.692,16.692,0,0,0-4.114-7.6l-1.623,1a1.9,1.9,0,0,1-2.141-.055,12.184,12.184,0,0,0-1.839-1.127,2.15,2.15,0,0,1-1.115-1.946V96.605A14.575,14.575,0,0,0,193.3,96q-.657.009-1.3.08v10.423a5.137,5.137,0,0,1,1.5-.222,6.2,6.2,0,0,1,0,12.339,5.137,5.137,0,0,1-1.5-.222v10.425a14.186,14.186,0,0,0,1.694.078,14.581,14.581,0,0,0,3.925-.611v-1.983a2.151,2.151,0,0,1,1.115-1.946,12.168,12.168,0,0,0,1.839-1.127,1.9,1.9,0,0,1,2.141-.055l1.616.992a16.687,16.687,0,0,0,4.122-7.6Z" transform="translate(-159.097 -79.549)" fill="#637399"/>
        <path id="Trazado_661499" data-name="Trazado 661499" d="M50.048,40A26.048,26.048,0,1,0,76.1,66.048,26.048,26.048,0,0,0,50.048,40m0,49.355A23.306,23.306,0,1,1,73.355,66.048,23.306,23.306,0,0,1,50.048,89.355" transform="translate(-19.887 -33.145)"/>
        <path id="Trazado_661500" data-name="Trazado 661500" d="M68.339,88c-4.536,0-8.226,3.251-8.226,7.247a5.418,5.418,0,0,0,.053.758A7.075,7.075,0,0,0,56,102.294a6.611,6.611,0,0,0,1.453,4.113A6.612,6.612,0,0,0,56,110.519a7.117,7.117,0,0,0,4.126,6.285c.242,3.806,3.833,6.838,8.212,6.838a8.574,8.574,0,0,0,6.519-2.856,1.367,1.367,0,0,0,.336-.9V91.75a1.366,1.366,0,0,0-.336-.9A8.573,8.573,0,0,0,68.339,88m4.113,31.343a5.938,5.938,0,0,1-4.113,1.56,5.122,5.122,0,0,1-5.43-4.227l1.72-1.106h2.339v-2.742H64.226a1.375,1.375,0,0,0-.742.218l-2.07,1.331a4.421,4.421,0,0,1-2.673-3.855,4.1,4.1,0,0,1,1.5-3.081c.031-.027.044-.068.073-.1h3.912V104.6H59.538a3.879,3.879,0,0,1-.8-2.305,4.423,4.423,0,0,1,2.815-3.909l1.7,1.7a1.37,1.37,0,0,0,.969.4h2.742V97.744H64.793l-1.858-1.858a3.138,3.138,0,0,1-.081-.643c0-2.484,2.46-4.505,5.484-4.505a5.937,5.937,0,0,1,4.113,1.56Z" transform="translate(-46.403 -72.915)"/>
        <path id="Trazado_661501" data-name="Trazado 661501" d="M202.541,108.775l-2.032-1.248a14.519,14.519,0,0,0,0-3.409l2.032-1.248a1.373,1.373,0,0,0,.615-1.493A18.085,18.085,0,0,0,198.7,93.15a1.376,1.376,0,0,0-1.71-.222l-1.624,1a.543.543,0,0,1-.605.011,13.588,13.588,0,0,0-2.046-1.253.8.8,0,0,1-.355-.719V89.975a1.37,1.37,0,0,0-.984-1.315A15.779,15.779,0,0,0,186.652,88c-.481.005-.956.036-1.426.087A1.37,1.37,0,0,0,184,89.451V99.876a1.372,1.372,0,0,0,1.769,1.312,3.77,3.77,0,0,1,1.1-.163,4.836,4.836,0,0,1,0,9.6,3.782,3.782,0,0,1-1.1-.163A1.372,1.372,0,0,0,184,111.77V122.2a1.37,1.37,0,0,0,1.226,1.363,15.7,15.7,0,0,0,1.643.087h.214a16.038,16.038,0,0,0,4.294-.667,1.37,1.37,0,0,0,.984-1.315v-1.984a.8.8,0,0,1,.353-.718,13.559,13.559,0,0,0,2.047-1.253.543.543,0,0,1,.605.012l1.616.992a1.375,1.375,0,0,0,1.708-.221,18.07,18.07,0,0,0,4.464-8.223A1.374,1.374,0,0,0,202.541,108.775Zm-4.869-5.118a12.1,12.1,0,0,1,0,4.332,1.373,1.373,0,0,0,.633,1.4l1.923,1.181a15.314,15.314,0,0,1-2.789,5.2l-.636-.39a3.268,3.268,0,0,0-3.674.12,10.813,10.813,0,0,1-1.633,1,3.527,3.527,0,0,0-1.876,3.173v.921a12.886,12.886,0,0,1-2.573.3c-.1,0-.2,0-.3,0v-7.542a7.248,7.248,0,0,0,7.108-7.385c0-.051,0-.1,0-.154a7.251,7.251,0,0,0-6.955-7.535l-.149,0V90.742a13.735,13.735,0,0,1,2.877.3v.926A3.528,3.528,0,0,0,191.5,95.14a10.871,10.871,0,0,1,1.632,1,3.272,3.272,0,0,0,3.674.122l.644-.4a15.368,15.368,0,0,1,2.782,5.205l-1.924,1.181A1.373,1.373,0,0,0,197.672,103.656Z" transform="translate(-152.469 -72.919)"/>
        <rect id="Rectángulo_340690" data-name="Rectángulo 340690" width="2.742" height="2.742" transform="translate(21.935 24.828)"/>
        <rect id="Rectángulo_340691" data-name="Rectángulo 340691" width="2.742" height="2.742" transform="translate(21.935 39.909)"/>
        <rect id="Rectángulo_340692" data-name="Rectángulo 340692" width="2.742" height="2.742" transform="translate(19.194 31.683)"/>
        <path id="Trazado_661502" data-name="Trazado 661502" d="M30.161,16a30.158,30.158,0,0,0-4.113,60.035v4.4a2.74,2.74,0,0,0-2.742,2.739v.014l.043,12.337a2.748,2.748,0,0,0,2.742,2.733h8.182a2.743,2.743,0,0,0,2.743-2.742v-.01l-.043-12.339a2.744,2.744,0,0,0-2.7-2.727v-4.4A30.158,30.158,0,0,0,30.161,16Zm-4.07,79.515-.043-12.337h8.183l.041,12.339Zm2.7-15.079V76.288c.455.02.911.035,1.371.035s.916-.014,1.371-.035v4.148Zm1.371-6.855A27.419,27.419,0,1,1,57.581,46.161,27.419,27.419,0,0,1,30.161,73.581" transform="translate(0 -13.258)"/>
        <path id="Trazado_661503" data-name="Trazado 661503" d="M364.339,0a12.339,12.339,0,1,0,12.339,12.339A12.339,12.339,0,0,0,364.339,0m0,21.935a9.6,9.6,0,1,1,9.6-9.6,9.6,9.6,0,0,1-9.6,9.6" transform="translate(-291.677)"/>
        <path id="Trazado_661504" data-name="Trazado 661504" d="M397.179,52.96l-2.331-1.747L393.2,53.406l3.427,2.571a1.369,1.369,0,0,0,1.917-.272l0,0,5.141-6.855L401.5,47.2Z" transform="translate(-325.82 -39.114)"/>
        <path id="Trazado_661505" data-name="Trazado 661505" d="M364.339,240a12.339,12.339,0,1,0,12.339,12.339A12.339,12.339,0,0,0,364.339,240m0,21.935a9.6,9.6,0,1,1,9.6-9.6,9.6,9.6,0,0,1-9.6,9.6" transform="translate(-291.677 -198.871)"/>
        <path id="Trazado_661506" data-name="Trazado 661506" d="M402.57,282.344l-3.144,3.144-3.144-3.144-1.939,1.939,3.144,3.144-3.144,3.144,1.939,1.939,3.144-3.144,3.144,3.144,1.939-1.939-3.144-3.144,3.144-3.144Z" transform="translate(-326.765 -233.959)"/>
        <path id="Trazado_661507" data-name="Trazado 661507" d="M372.339,165.71V152H369.6v5.484H360v2.742h9.6v5.484Z" transform="translate(-298.307 -125.952)"/>
      </g>
    </g>
  </g>
</svg>
