<svg xmlns="http://www.w3.org/2000/svg" xmlns:xlink="http://www.w3.org/1999/xlink" width="100" height="100" viewBox="0 0 100 100">
  <defs>
    <clipPath id="clip-path">
      <rect id="Rect치ngulo_340696" data-name="Rect치ngulo 340696" width="70.808" height="67.529" fill="none"/>
    </clipPath>
  </defs>
  <g id="Grupo_970836" data-name="Grupo 970836" transform="translate(-915 -3031)">
    <circle id="Elipse_5410" data-name="Elipse 5410" cx="50" cy="50" r="50" transform="translate(915 3031)" fill="#f3f9ff"/>
    <g id="Grupo_970707" data-name="Grupo 970707" transform="translate(-84 -62.84)">
      <rect id="Rect치ngulo_340697" data-name="Rect치ngulo 340697" width="72" height="72" transform="translate(1017 3103.84)" fill="none"/>
      <g id="Grupo_970706" data-name="Grupo 970706" transform="translate(1017.314 3106.155)">
        <g id="Grupo_970705" data-name="Grupo 970705" clip-path="url(#clip-path)">
          <path id="Trazado_661508" data-name="Trazado 661508" d="M42.824,12.29,61.608,44.826A8.578,8.578,0,0,1,54.18,57.693H16.61A8.578,8.578,0,0,1,9.182,44.826L27.966,12.29a8.578,8.578,0,0,1,14.858,0Z" transform="translate(-6.914 -6.895)" fill="#fe646f" fill-rule="evenodd"/>
          <path id="Trazado_661509" data-name="Trazado 661509" d="M206.439,12.29l18.785,32.536a8.578,8.578,0,0,1-7.429,12.867h-2.232a8.578,8.578,0,0,0,7.429-12.867L204.207,12.29a8.51,8.51,0,0,0-6.313-4.218A8.766,8.766,0,0,1,199.01,8a8.52,8.52,0,0,1,7.429,4.289" transform="translate(-170.529 -6.895)" fill="#fd4755" fill-rule="evenodd"/>
          <path id="Trazado_661510" data-name="Trazado 661510" d="M66.817,42.392,85.6,74.928a4.106,4.106,0,0,1-3.556,6.16H44.476a4.106,4.106,0,0,1-3.556-6.16L59.7,42.392a4.106,4.106,0,0,1,7.112,0Z" transform="translate(-34.78 -34.761)" fill="#ffe177" fill-rule="evenodd"/>
          <path id="Trazado_661511" data-name="Trazado 661511" d="M46.708,81.087H44.476a4.106,4.106,0,0,1-3.556-6.16L59.7,42.392a4.048,4.048,0,0,1,3.556-2.053,4.2,4.2,0,0,1,1.116.149,4.044,4.044,0,0,0-2.44,1.9L43.152,74.928a4.106,4.106,0,0,0,3.556,6.16Z" transform="translate(-34.78 -34.761)" fill="#ffd064" fill-rule="evenodd"/>
          <path id="Trazado_661512" data-name="Trazado 661512" d="M191.326,133.513a2.349,2.349,0,1,1-2.349,2.349A2.349,2.349,0,0,1,191.326,133.513Zm0-2.456a1.834,1.834,0,0,1-1.832-1.767l-.463-12.835a1.833,1.833,0,0,1,1.832-1.9h.927a1.833,1.833,0,0,1,1.832,1.9l-.464,12.835A1.834,1.834,0,0,1,191.326,131.057Z" transform="translate(-162.845 -98.714)" fill="#fe646f" fill-rule="evenodd"/>
          <path id="Trazado_661513" data-name="Trazado 661513" d="M202.486,133.512a2.349,2.349,0,1,1-.558,4.631,2.349,2.349,0,0,0,0-4.564A2.371,2.371,0,0,1,202.486,133.512Zm0-2.456a1.83,1.83,0,0,1-.558-.087,1.835,1.835,0,0,0,1.275-1.681l.464-12.835a1.834,1.834,0,0,0-1.738-1.9l.094,0h.927a1.833,1.833,0,0,1,1.832,1.9l-.464,12.835A1.834,1.834,0,0,1,202.486,131.056Z" transform="translate(-174.005 -98.713)" fill="#fd4755" fill-rule="evenodd"/>
          <path id="Trazado_661514" data-name="Trazado 661514" d="M378.667,354.211a13.989,13.989,0,0,1-2.361,2.6l6.419,6.292,2.444-2.519Z" transform="translate(-324.269 -305.229)" fill="#a79ba7" fill-rule="evenodd"/>
          <path id="Trazado_661515" data-name="Trazado 661515" d="M389.337,353.9a1.613,1.613,0,0,1-.7.937l6.377,6.335.781-.856Z" transform="translate(-334.896 -304.96)" fill="#837683" fill-rule="evenodd"/>
          <path id="Trazado_661516" data-name="Trazado 661516" d="M420.379,400.31l2.758-2.842a1.268,1.268,0,0,0-.027-1.788l-7.639-7.413a1.268,1.268,0,0,0-1.788.027l-2.758,2.842a1.268,1.268,0,0,0,.027,1.788l7.639,7.413A1.268,1.268,0,0,0,420.379,400.31Z" transform="translate(-353.794 -334.269)" fill="#f1ba84" fill-rule="evenodd"/>
          <path id="Trazado_661517" data-name="Trazado 661517" d="M435.878,388.266l7.639,7.413a1.268,1.268,0,0,1,.027,1.788l-2.758,2.842a1.252,1.252,0,0,1-.343.25,1.27,1.27,0,0,0,1.473-.25l2.758-2.842a1.268,1.268,0,0,0-.027-1.788l-7.639-7.413a1.269,1.269,0,0,0-1.446-.223,1.252,1.252,0,0,1,.316.223" transform="translate(-375.331 -334.269)" fill="#e3a76f" fill-rule="evenodd"/>
          <path id="Trazado_661518" data-name="Trazado 661518" d="M221.425,207.066a13.908,13.908,0,1,1,0,19.669,13.908,13.908,0,0,1,0-19.669" transform="translate(-187.295 -174.922)" fill="#8ac9fe" fill-rule="evenodd"/>
          <path id="Trazado_661519" data-name="Trazado 661519" d="M313.788,202.977a13.91,13.91,0,0,1,0,27.821q-.34,0-.675-.017a13.91,13.91,0,0,0,0-27.788c.224-.011.449-.017.675-.017" transform="translate(-269.815 -174.909)" fill="#60b7ff" fill-rule="evenodd"/>
          <path id="Trazado_661520" data-name="Trazado 661520" d="M246.1,238.322a9.985,9.985,0,1,1,6.463,12.556,9.985,9.985,0,0,1-6.463-12.556" transform="translate(-211.655 -199.385)" fill="#eceff1" fill-rule="evenodd"/>
          <path id="Trazado_661521" data-name="Trazado 661521" d="M255.753,231.339c.227,0,.452.008.675.023a9.988,9.988,0,0,0,0,19.931c-.223.015-.448.023-.675.023a9.988,9.988,0,1,1,0-19.977" transform="translate(-211.779 -199.349)" fill="#d1d1d6" fill-rule="evenodd"/>
          <path id="Trazado_661522" data-name="Trazado 661522" d="M43.976,50.748a8.77,8.77,0,1,1,8.769-8.769,8.779,8.779,0,0,1-8.769,8.769m0-19.752A10.982,10.982,0,1,0,54.959,41.979,11,11,0,0,0,43.976,31ZM68.552,62.428,65.793,65.27a.163.163,0,0,1-.224,0L57.93,57.861a.153.153,0,0,1-.046-.111.149.149,0,0,1,.042-.113L60.685,54.8a.165.165,0,0,1,.112-.048h0a.155.155,0,0,1,.109.043L68.547,62.2A.162.162,0,0,1,68.552,62.428ZM31.173,41.979a12.8,12.8,0,1,0,12.8-12.8,12.818,12.818,0,0,0-12.8,12.8m-.3-7.326A15.053,15.053,0,0,1,42,27.094L31.082,8.185a3,3,0,0,0-5.2,0L7.1,40.72a3,3,0,0,0,2.6,4.5H29.312a14.99,14.99,0,0,1-.353-3.241c0-.479.024-.951.068-1.419a3.548,3.548,0,0,1-.543.043,3.455,3.455,0,1,1,2.387-5.95ZM28.484,38.39a1.242,1.242,0,1,1,1.243-1.242,1.244,1.244,0,0,1-1.243,1.242M9.7,49.692H31.1a15.055,15.055,0,0,1-1.112-2.259H9.7a5.212,5.212,0,0,1-4.515-7.819L23.969,7.078a5.212,5.212,0,0,1,9.028,0L44.483,26.972a14.908,14.908,0,0,1,2.818.363L34.954,5.949a7.47,7.47,0,0,0-12.94,0L3.228,38.485A7.472,7.472,0,0,0,9.7,49.692ZM58.27,54.106l-.9.93-2.652-2.573q.454-.465.866-.965Zm11.819,6.51L62.45,53.2a2.363,2.363,0,0,0-1.686-.668,2.391,2.391,0,0,0-.784.147l-3.109-3.016A15.006,15.006,0,0,0,50.5,28.457L36.871,4.843a9.684,9.684,0,0,0-16.774,0L1.313,37.378A9.685,9.685,0,0,0,9.7,51.905H32.719a14.991,14.991,0,0,0,20.334,2.028l2.858,2.774a2.384,2.384,0,0,0-.239,1.076,2.354,2.354,0,0,0,.718,1.665l7.639,7.413a2.374,2.374,0,0,0,3.352-.05h0l2.757-2.842A2.374,2.374,0,0,0,70.09,60.616ZM29.211,30.536a.728.728,0,0,1-1.455,0L27.293,17.7a.726.726,0,0,1,.727-.752h.926a.724.724,0,0,1,.727.752Zm-.264-15.8a2.942,2.942,0,0,1,2.939,3.045l-.464,12.836a2.94,2.94,0,0,1-5.876,0L25.083,17.78a2.941,2.941,0,0,1,2.938-3.045Z" transform="translate(0 0)" fill-rule="evenodd"/>
        </g>
      </g>
    </g>
  </g>
</svg>
