<svg xmlns="http://www.w3.org/2000/svg" xmlns:xlink="http://www.w3.org/1999/xlink" width="100" height="100" viewBox="0 0 100 100">
  <defs>
    <clipPath id="clip-path">
      <rect id="Rect치ngulo_340698" data-name="Rect치ngulo 340698" width="55.44" height="47.583" fill="none"/>
    </clipPath>
  </defs>
  <g id="Grupo_970837" data-name="Grupo 970837" transform="translate(-484 -3169)">
    <circle id="Elipse_5411" data-name="Elipse 5411" cx="50" cy="50" r="50" transform="translate(484 3169)" fill="#f3f9ff"/>
    <g id="Grupo_970710" data-name="Grupo 970710" transform="translate(99.279 -54.167)">
      <rect id="Rect치ngulo_340699" data-name="Rect치ngulo 340699" width="55.346" height="55.346" transform="translate(407.095 3245.125)" fill="none"/>
      <g id="Grupo_970709" data-name="Grupo 970709" transform="translate(407 3248.959)">
        <g id="Grupo_970708" data-name="Grupo 970708" clip-path="url(#clip-path)">
          <path id="Trazado_661523" data-name="Trazado 661523" d="M64.231,14.989c0,32.815.254,31-.623,32.426a4.681,4.681,0,0,1-3.993,2.162H20.382l-9.231,6.485V14.989a4.477,4.477,0,0,1,4.616-4.323H59.616a4.477,4.477,0,0,1,4.616,4.323" transform="translate(-9.945 -9.585)" fill="#fc6"/>
          <path id="Trazado_661524" data-name="Trazado 661524" d="M83.257,14.989c0,32.815.254,31-.623,32.426H55.563c-12.746,0-23.078-9.678-23.078-21.617V11.25a4.858,4.858,0,0,1,2.308-.584H78.642a4.477,4.477,0,0,1,4.616,4.323" transform="translate(-28.971 -9.585)" fill="#ffde76"/>
          <path id="Trazado_661525" data-name="Trazado 661525" d="M177.475,57.707a8.507,8.507,0,0,0-4.016,7.123,2.214,2.214,0,0,0,2.008,2.162,2.393,2.393,0,0,1-3.146.815,2.141,2.141,0,0,1-1.17-1.9,8.717,8.717,0,0,1,6.323-8.2" transform="translate(-152.636 -51.86)" fill="#db5669"/>
          <path id="Trazado_661526" data-name="Trazado 661526" d="M239.467,188.89a2.393,2.393,0,0,1-3.146.815,2.141,2.141,0,0,1-1.17-1.9v-4.323a2.238,2.238,0,0,1,2.308-2.162c.681,0,0-.076,0,1.081v4.323a2.213,2.213,0,0,0,2.008,2.162" transform="translate(-209.713 -162.949)" fill="#db5669"/>
          <path id="Trazado_661527" data-name="Trazado 661527" d="M199.408,53.333a9.545,9.545,0,0,0-2.908.443,8.507,8.507,0,0,0-4.016,7.123,2.213,2.213,0,0,0,2.008,2.162,1.964,1.964,0,0,0,.3-1.081,4.625,4.625,0,1,1,4.939,4.323c-.462.724-.323,1.081-.323,5.4a2.214,2.214,0,0,0,2.008,2.162c.4-.638.3-.994.3-3.491,10.628-2.691,8.285-17.045-2.308-17.045" transform="translate(-171.661 -47.928)" fill="#f26674"/>
          <path id="Trazado_661528" data-name="Trazado 661528" d="M239.767,311.531a2.313,2.313,0,0,1-4.616.009,2.16,2.16,0,0,1,1.362-1.976,2.373,2.373,0,0,1,3.051,1.085,2.046,2.046,0,0,1,.2.882" transform="translate(-209.712 -278.024)" fill="#db5669"/>
          <path id="Trazado_661529" data-name="Trazado 661529" d="M249.144,312.449a2.372,2.372,0,0,1-3.046-1.1,2.037,2.037,0,0,1,0-1.756,2.372,2.372,0,0,1,3.046,1.1,2.037,2.037,0,0,1,0,1.756" transform="translate(-219.297 -278.056)" fill="#f26674"/>
          <path id="Trazado_661530" data-name="Trazado 661530" d="M49.67,0H5.822A5.6,5.6,0,0,0,.052,5.4C.052,49.536-.271,47,.687,47.439s.715.249,10.131-6.366H49.67a5.6,5.6,0,0,0,5.77-5.4V5.4A5.6,5.6,0,0,0,49.67,0m3.462,35.668a3.358,3.358,0,0,1-3.462,3.243H10.437c-.554,0-.138-.173-8.077,5.4V5.4A3.358,3.358,0,0,1,5.822,2.162H49.67A3.358,3.358,0,0,1,53.132,5.4Z" transform="translate(0)"/>
          <path id="Trazado_661531" data-name="Trazado 661531" d="M170.975,42.667c-10.281,0-13.559,12.97-6.924,12.97a3.358,3.358,0,0,0,3.462-3.243,3.469,3.469,0,1,1,3.462,3.243,3.358,3.358,0,0,0-3.462,3.243V63.2a3.469,3.469,0,0,0,6.924,0V61.571c5.411-1.783,8.254-7.337,6.35-12.4a10.367,10.367,0,0,0-9.812-6.5m2.019,17.056c-1.062.238-.865.994-.865,3.48a1.156,1.156,0,0,1-2.308,0V58.88a1.119,1.119,0,0,1,1.154-1.081,5.416,5.416,0,1,0-5.77-5.4,1.119,1.119,0,0,1-1.154,1.081c-2.954,0-.4-8.647,6.924-8.647a7.836,7.836,0,0,1,8.088,7.556,7.672,7.672,0,0,1-6.068,7.338" transform="translate(-143.228 -38.343)"/>
          <path id="Trazado_661532" data-name="Trazado 661532" d="M227.947,298.666a3.25,3.25,0,1,0,3.462,3.243,3.358,3.358,0,0,0-3.462-3.243m0,4.323a1.083,1.083,0,1,1,1.154-1.081,1.119,1.119,0,0,1-1.154,1.081" transform="translate(-200.2 -268.402)"/>
        </g>
      </g>
    </g>
  </g>
</svg>
