<svg xmlns="http://www.w3.org/2000/svg" xmlns:xlink="http://www.w3.org/1999/xlink" width="100" height="100" viewBox="0 0 100 100">
  <defs>
    <clipPath id="clip-path">
      <rect id="Rectángulo_340701" data-name="Rectángulo 340701" width="61.453" height="63.869" fill="none"/>
    </clipPath>
  </defs>
  <g id="Grupo_970838" data-name="Grupo 970838" transform="translate(-887 -3308)">
    <circle id="Elipse_5411" data-name="Elipse 5411" cx="50" cy="50" r="50" transform="translate(887 3308)" fill="#f3f9ff"/>
    <g id="Grupo_970713" data-name="Grupo 970713" transform="translate(-137 -52.869)">
      <rect id="Rectángulo_340702" data-name="Rectángulo 340702" width="64" height="64" transform="translate(1042 3378.869)" fill="none"/>
      <g id="Grupo_970712" data-name="Grupo 970712" transform="translate(1043.139 3379)">
        <g id="Grupo_970711" data-name="Grupo 970711" clip-path="url(#clip-path)">
          <path id="Trazado_661533" data-name="Trazado 661533" d="M23.116,10.091a10.756,10.756,0,0,1,3.15,1.306l2.047-.909L30.725,12.9l-.909,2.046A10.761,10.761,0,0,1,31.122,18.1l2.088.8v3.412l-2.089.8a10.756,10.756,0,0,1-1.306,3.15l.909,2.047-2.412,2.413-2.046-.909a10.755,10.755,0,0,1-3.151,1.306l-.8,2.088H18.9l-.8-2.089a10.758,10.758,0,0,1-3.15-1.306l-2.047.909-2.412-2.412.909-2.046a10.757,10.757,0,0,1-1.306-3.151L8,22.312V18.9l2.089-.8a10.753,10.753,0,0,1,1.306-3.15L10.486,12.9,12.9,10.487l2.047.909a10.762,10.762,0,0,1,3.15-1.306L18.9,8h3.412Zm-2.51,4.046a6.47,6.47,0,1,0,6.47,6.47,6.47,6.47,0,0,0-6.47-6.47" transform="translate(-7.003 -7.004)" fill="#eceff1" fill-rule="evenodd"/>
          <path id="Trazado_661534" data-name="Trazado 661534" d="M111.557,10.091a10.755,10.755,0,0,1,3.15,1.306l2.047-.909,2.412,2.412-.909,2.046a10.761,10.761,0,0,1,1.306,3.151l2.088.8v3.412l-2.089.8a10.756,10.756,0,0,1-1.306,3.15l.909,2.047-2.412,2.413-2.046-.909a10.755,10.755,0,0,1-3.151,1.306l-.8,2.088h-1.706V27.076a6.47,6.47,0,1,0,0-12.94V8h1.706Z" transform="translate(-95.444 -7.004)" fill="#d1d1d6" fill-rule="evenodd"/>
          <rect id="Rectángulo_340700" data-name="Rectángulo 340700" width="30.558" height="11.37" rx="5.685" transform="translate(16.983 29.887)" fill="#ffe177"/>
          <path id="Trazado_661535" data-name="Trazado 661535" d="M166.7,285.166a5.7,5.7,0,0,1-5.685,5.685H141.828a5.7,5.7,0,0,1-5.685-5.685Z" transform="translate(-119.16 -249.594)" fill="#ffd064" fill-rule="evenodd"/>
          <path id="Trazado_661536" data-name="Trazado 661536" d="M69.7,398.64H88.89a5.7,5.7,0,0,1,5.685,5.685h0a5.7,5.7,0,0,1-5.685,5.685H69.7a5.7,5.7,0,0,1-5.685-5.685h0A5.7,5.7,0,0,1,69.7,398.64" transform="translate(-56.031 -348.913)" fill="#6cf5c2" fill-rule="evenodd"/>
          <path id="Trazado_661537" data-name="Trazado 661537" d="M94.575,444.215A5.7,5.7,0,0,1,88.89,449.9H69.7a5.7,5.7,0,0,1-5.685-5.685H94.575Z" transform="translate(-56.031 -388.803)" fill="#00e499" fill-rule="evenodd"/>
          <path id="Trazado_661538" data-name="Trazado 661538" d="M366.611,384.429h11.828a1.549,1.549,0,0,1,1.544,1.544V397.8a1.548,1.548,0,0,1-1.544,1.544H366.611a1.549,1.549,0,0,1-1.544-1.544V385.973a1.548,1.548,0,0,1,1.544-1.544" transform="translate(-319.528 -336.474)" fill="#8ac9fe" fill-rule="evenodd"/>
          <path id="Trazado_661539" data-name="Trazado 661539" d="M424.854,384.429h5.914a1.549,1.549,0,0,1,1.544,1.544V397.8a1.548,1.548,0,0,1-1.544,1.544h-5.914Z" transform="translate(-371.857 -336.474)" fill="#60b7ff" fill-rule="evenodd"/>
          <path id="Trazado_661540" data-name="Trazado 661540" d="M33.822,55.412a1,1,0,0,1-1,1h-6.15a1,1,0,1,1,0-2h6.15a1,1,0,0,1,1,1m-9.893,0a1,1,0,0,1-1,1H13.705a1,1,0,1,1,0-2H22.93a1,1,0,0,1,1,1M21.7,35.572a1,1,0,0,1,1-1h6.15a1,1,0,1,1,0,2H22.7a1,1,0,0,1-1-1m9.893,0a1,1,0,0,1,1-1h9.225a1,1,0,1,1,0,2H32.6a1,1,0,0,1-1-1m-18-16.5A5.472,5.472,0,1,1,19.075,13.6,5.478,5.478,0,0,1,13.6,19.075m0-12.94A7.468,7.468,0,1,0,21.071,13.6,7.476,7.476,0,0,0,13.6,6.135M56.919,53.753l-3.7,4.574a1,1,0,0,1-.723.369h-.053a1,1,0,0,1-.706-.292l-2.593-2.593A1,1,0,1,1,50.557,54.4l1.809,1.809,3-3.712a1,1,0,1,1,1.552,1.255Zm2.538,7.573V49.5a.554.554,0,0,0-.546-.547H47.083a.553.553,0,0,0-.546.547V61.327a.553.553,0,0,0,.546.545H58.911a.553.553,0,0,0,.546-.545M32.859,60.1a4.687,4.687,0,0,0,0-9.375H13.671a4.687,4.687,0,0,0,0,9.375ZM22.668,30.885a4.687,4.687,0,1,0,0,9.374H41.855a4.687,4.687,0,1,0,0-9.374Zm2.541-16.262V12.582l-1.449-.558a1,1,0,0,1-.612-.7,9.745,9.745,0,0,0-1.185-2.859,1,1,0,0,1-.062-.929l.631-1.42L21.088,4.674,19.667,5.3a1,1,0,0,1-.928-.062,9.747,9.747,0,0,0-2.858-1.185,1,1,0,0,1-.7-.612L14.623,2H12.582l-.558,1.449a1,1,0,0,1-.7.612A9.752,9.752,0,0,0,8.466,5.243a1,1,0,0,1-.928.062L6.117,4.674,4.674,6.117,5.3,7.538a1,1,0,0,1-.062.929,9.728,9.728,0,0,0-1.185,2.858,1,1,0,0,1-.612.7L2,12.582v2.041l1.449.558a1,1,0,0,1,.612.7A9.745,9.745,0,0,0,5.242,18.74a1,1,0,0,1,.062.928l-.631,1.42,1.443,1.444L7.538,21.9a1,1,0,0,1,.928.062,9.757,9.757,0,0,0,2.858,1.185,1,1,0,0,1,.7.613l.558,1.449h2.041l.558-1.449a1,1,0,0,1,.7-.613,9.747,9.747,0,0,0,2.859-1.184,1,1,0,0,1,.928-.062l1.42.631,1.444-1.444-.631-1.42a1,1,0,0,1,.062-.928,9.754,9.754,0,0,0,1.185-2.858,1,1,0,0,1,.613-.7Zm33.7,32.333H47.083A2.544,2.544,0,0,0,44.541,49.5v4.916H39.467a6.693,6.693,0,0,0-6.608-5.685H13.671a6.694,6.694,0,0,0-6.608,5.685H2V36.57H16.06a6.693,6.693,0,0,0,6.608,5.685H41.855a6.694,6.694,0,0,0,6.608-5.685H59.988a1,1,0,0,0,1-1V13.6a1,1,0,0,0-1-1H27.205V11.9a1,1,0,0,0-.639-.931l-1.612-.621A11.738,11.738,0,0,0,23.933,7.88l.7-1.579a1,1,0,0,0-.207-1.11L22.015,2.778A1,1,0,0,0,20.9,2.572l-1.579.7A11.753,11.753,0,0,0,16.86,2.251L16.24.639A1,1,0,0,0,15.309,0H11.9a1,1,0,0,0-.931.64l-.62,1.612A11.747,11.747,0,0,0,7.881,3.273l-1.58-.7a1,1,0,0,0-1.111.206L2.778,5.19A1,1,0,0,0,2.572,6.3l.7,1.579a11.728,11.728,0,0,0-1.022,2.464L.64,10.966A1,1,0,0,0,0,11.9v3.412a1,1,0,0,0,.639.931l1.611.62a11.735,11.735,0,0,0,1.022,2.465l-.7,1.579a1,1,0,0,0,.206,1.11l2.413,2.413a1,1,0,0,0,1.111.207l1.58-.7a11.716,11.716,0,0,0,2.464,1.022l.62,1.612a1,1,0,0,0,.931.64h3.412a1,1,0,0,0,.931-.64l.62-1.611a11.713,11.713,0,0,0,2.465-1.022l1.579.7a1,1,0,0,0,1.111-.207l2.412-2.413a1,1,0,0,0,.206-1.11l-.7-1.58a11.708,11.708,0,0,0,1.022-2.464l1.612-.62a1,1,0,0,0,.639-.931V14.6H58.991V34.575H48.464a6.693,6.693,0,0,0-6.608-5.685H22.668a6.693,6.693,0,0,0-6.608,5.685H1a1,1,0,0,0-1,1v19.84a1,1,0,0,0,1,1H7.063A6.693,6.693,0,0,0,13.671,62.1H32.859a6.694,6.694,0,0,0,6.608-5.685h5.075v4.916a2.545,2.545,0,0,0,2.542,2.542H58.911a2.545,2.545,0,0,0,2.542-2.542V49.5A2.545,2.545,0,0,0,58.911,46.957Z" fill-rule="evenodd"/>
        </g>
      </g>
    </g>
  </g>
</svg>
