<svg xmlns="http://www.w3.org/2000/svg" xmlns:xlink="http://www.w3.org/1999/xlink" width="100" height="100" viewBox="0 0 100 100">
  <defs>
    <clipPath id="clip-path">
      <rect id="Rect치ngulo_340703" data-name="Rect치ngulo 340703" width="58.43" height="65.581" fill="none"/>
    </clipPath>
  </defs>
  <g id="Grupo_970839" data-name="Grupo 970839" transform="translate(-484 -3448)">
    <circle id="Elipse_5411" data-name="Elipse 5411" cx="50" cy="50" r="50" transform="translate(484 3448)" fill="#f3f9ff"/>
    <g id="Grupo_970716" data-name="Grupo 970716" transform="translate(63 -72)">
      <rect id="Rect치ngulo_340704" data-name="Rect치ngulo 340704" width="66" height="66" transform="translate(440 3536)" fill="none"/>
      <g id="Grupo_970715" data-name="Grupo 970715" transform="translate(444.01 3536.419)">
        <g id="Grupo_970714" data-name="Grupo 970714" clip-path="url(#clip-path)">
          <path id="Trazado_661541" data-name="Trazado 661541" d="M252.281,305.043l-6.775-6.775a18.318,18.318,0,0,1-3.062,3.062l6.775,6.775Z" transform="translate(-211.39 -260.064)" fill="#8abbd5"/>
          <path id="Trazado_661542" data-name="Trazado 661542" d="M250.72,317.857l-6.684-6.684a18.32,18.32,0,0,1-1.591,1.409l6.775,6.775Z" transform="translate(-211.391 -271.316)" fill="#6cabca"/>
          <path id="Trazado_661543" data-name="Trazado 661543" d="M297.224,347.894a1.39,1.39,0,0,0-1.966,0l-3.189,3.189a1.39,1.39,0,0,0,0,1.966l2.3,2.3,5.155-5.155Z" transform="translate(-254.303 -302.978)" fill="#d8ecfe"/>
          <path id="Trazado_661544" data-name="Trazado 661544" d="M295.326,352.73a1.39,1.39,0,0,1,0-1.966l2.385-2.385-.486-.486a1.39,1.39,0,0,0-1.966,0l-3.189,3.189a1.39,1.39,0,0,0,0,1.966l2.3,2.3,1.788-1.788Z" transform="translate(-254.303 -302.978)" fill="#c4e2ff"/>
          <path id="Trazado_661545" data-name="Trazado 661545" d="M329.588,383.206l-2.206,2.206a2.085,2.085,0,0,1-2.949,0l-11.639-11.639,5.155-5.155,11.639,11.639a2.085,2.085,0,0,1,0,2.949" transform="translate(-272.729 -321.403)" fill="#2ed1e2"/>
          <path id="Trazado_661546" data-name="Trazado 661546" d="M318.236,372.867l1.982-1.982-2.268-2.268-5.155,5.155,11.639,11.639a2.085,2.085,0,0,0,2.949,0l.793-.794-9.94-9.94a1.281,1.281,0,0,1,0-1.812" transform="translate(-272.729 -321.403)" fill="#03bed7"/>
          <path id="Trazado_661547" data-name="Trazado 661547" d="M48.772,86.213H40.34a.641.641,0,0,0-.453.188L35.29,91a.64.64,0,0,1-1.093-.453V86.854a.641.641,0,0,0-.64-.64H28.642a.641.641,0,0,1-.64-.64V69.718a18.222,18.222,0,0,0-14.58,23.994h9.994a.384.384,0,0,1,.272.113L27.1,97.243a.384.384,0,0,1,.113.272v8.113a18.219,18.219,0,0,0,21.62-17.889c0-.514-.022-1.022-.064-1.525" transform="translate(-10.827 -60.788)" fill="#00f2a6"/>
          <path id="Trazado_661548" data-name="Trazado 661548" d="M72.97,114.988H68.727a.641.641,0,0,0-.453.188l-4.6,4.6a.64.64,0,0,1-1.093-.453v-3.691a.64.64,0,0,0-.64-.64H57.029a.641.641,0,0,1-.64-.64V102.72a14.046,14.046,0,0,0-10.082,19.767h5.5a.384.384,0,0,1,.272.113l3.418,3.418a.384.384,0,0,1,.113.272v3.845a14.048,14.048,0,0,0,17.449-13.622A14.209,14.209,0,0,0,72.97,114.988Z" transform="translate(-39.213 -89.563)" fill="#d8ecfe"/>
          <path id="Trazado_661549" data-name="Trazado 661549" d="M51.7,122.487a14.045,14.045,0,0,1,4.689-17.495V102.72a14.046,14.046,0,0,0-10.082,19.767Z" transform="translate(-39.214 -89.563)" fill="#b3dafe"/>
          <path id="Trazado_661550" data-name="Trazado 661550" d="M157.911,7.5H134.727a.641.641,0,0,0-.64.64V31.324a.641.641,0,0,0,.64.64h4.915a.641.641,0,0,1,.64.64V36.3a.641.641,0,0,0,1.093.453l4.6-4.6a.64.64,0,0,1,.453-.188h11.485a.64.64,0,0,0,.64-.64V8.14a.64.64,0,0,0-.64-.64" transform="translate(-116.912 -6.539)" fill="#2ed1e2"/>
          <path id="Trazado_661551" data-name="Trazado 661551" d="M138.442,31.324V8.14a.641.641,0,0,1,.64-.64h-4.355a.641.641,0,0,0-.64.64V31.324a.641.641,0,0,0,.64.64h4.355a.64.64,0,0,1-.64-.64" transform="translate(-116.912 -6.539)" fill="#03bed7"/>
          <path id="Trazado_661552" data-name="Trazado 661552" d="M219.242,98.55h-3.619V89.082h3.338a.281.281,0,0,1,.281.281Z" transform="translate(-188.004 -77.672)" fill="#fff"/>
          <path id="Trazado_661553" data-name="Trazado 661553" d="M218.961,42.619H215.9a.281.281,0,0,1-.281-.281V39.281A.281.281,0,0,1,215.9,39h3.057a.281.281,0,0,1,.281.281v3.057a.281.281,0,0,1-.281.281" transform="translate(-188.004 -34.005)" fill="#fff"/>
          <path id="Trazado_661554" data-name="Trazado 661554" d="M337.933,237.333h-8.684a.384.384,0,0,1-.384-.384v-8.684a.384.384,0,0,1,.384-.384h8.684a.384.384,0,0,1,.384.384v8.684a.384.384,0,0,1-.384.384" transform="translate(-286.742 -198.692)" fill="#00f2a6"/>
          <path id="Trazado_661555" data-name="Trazado 661555" d="M332.1,236.949v-8.684a.384.384,0,0,1,.384-.384h-3.231a.384.384,0,0,0-.384.384v8.684a.384.384,0,0,0,.384.384h3.231a.384.384,0,0,1-.384-.384" transform="translate(-286.742 -198.692)" fill="#05e39c"/>
          <path id="Trazado_661556" data-name="Trazado 661556" d="M174.4,393.943h-5.765a.384.384,0,0,1-.384-.384v-5.765a.384.384,0,0,1,.384-.384H174.4a.384.384,0,0,1,.384.384v5.765a.384.384,0,0,1-.384.384" transform="translate(-146.699 -337.788)" fill="#fe646f"/>
          <path id="Trazado_661557" data-name="Trazado 661557" d="M171.047,393.559v-5.765a.384.384,0,0,1,.384-.384h-2.8a.384.384,0,0,0-.384.384v5.765a.384.384,0,0,0,.384.384h2.8a.384.384,0,0,1-.384-.384" transform="translate(-146.699 -337.788)" fill="#fd4755"/>
          <path id="Trazado_661558" data-name="Trazado 661558" d="M37.274,29.57h-4.8a.384.384,0,0,1-.384-.384v-4.8A.384.384,0,0,1,32.472,24h4.8a.384.384,0,0,1,.384.384v4.8a.384.384,0,0,1-.384.384" transform="translate(-27.978 -20.926)" fill="#ffe177"/>
          <path id="Trazado_661559" data-name="Trazado 661559" d="M34.625,29.186v-4.8A.384.384,0,0,1,35.009,24H32.472a.384.384,0,0,0-.384.384v4.8a.384.384,0,0,0,.384.384h2.537a.384.384,0,0,1-.384-.384" transform="translate(-27.978 -20.926)" fill="#ffc344"/>
          <path id="Trazado_661560" data-name="Trazado 661560" d="M19.127,257.047H7.884a.384.384,0,0,0-.384.384V275.95a.384.384,0,0,0,.384.384H22.545a.384.384,0,0,0,.384-.384v-15.1a.384.384,0,0,0-.113-.272L19.4,257.159a.384.384,0,0,0-.272-.112" transform="translate(-6.539 -224.123)" fill="#ffe177"/>
          <path id="Trazado_661561" data-name="Trazado 661561" d="M11.8,275.95V257.431a.384.384,0,0,1,.384-.384h-4.3a.384.384,0,0,0-.384.384V275.95a.384.384,0,0,0,.384.384h4.3a.384.384,0,0,1-.384-.384" transform="translate(-6.539 -224.123)" fill="#ffc344"/>
          <path id="Trazado_661562" data-name="Trazado 661562" d="M365.385,71.607h-7.919a.384.384,0,0,0-.384.384v13.08a.384.384,0,0,0,.384.384h10.31a.384.384,0,0,0,.384-.384V74.382a.384.384,0,0,0-.113-.272l-2.391-2.391A.383.383,0,0,0,365.385,71.607Z" transform="translate(-311.344 -62.435)" fill="#d8ecfe"/>
          <path id="Trazado_661563" data-name="Trazado 661563" d="M360.733,85.071V71.991a.384.384,0,0,1,.384-.384h-3.652a.384.384,0,0,0-.384.384v13.08a.384.384,0,0,0,.384.384h3.652a.384.384,0,0,1-.384-.384" transform="translate(-311.344 -62.435)" fill="#c4e2ff"/>
          <path id="Trazado_661564" data-name="Trazado 661564" d="M57.538,58.175l-4.551-4.551a.961.961,0,0,0-1.358,1.358l4.551,4.551a1.125,1.125,0,0,1,0,1.59L53.973,63.33a1.125,1.125,0,0,1-1.59,0L41.424,52.37l3.8-3.8,3.239,3.239a.961.961,0,1,0,1.358-1.358L43.6,44.237a2.353,2.353,0,0,0-2.589-.5l-5.632-5.632A19.065,19.065,0,0,0,38.97,26.951c0-.189,0-.377-.009-.564H41a1.6,1.6,0,0,0,1.6-1.6V15.755a.961.961,0,1,0-1.921,0v8.71H29.514a1.591,1.591,0,0,0-1.132.469l-4.05,4.051V26.066a1.6,1.6,0,0,0-1.6-1.6H18.135V1.921H40.679v9.35a.961.961,0,1,0,1.921,0V1.6A1.6,1.6,0,0,0,41,0H17.815a1.6,1.6,0,0,0-1.6,1.6V8.119A19.17,19.17,0,0,0,1.3,31.966,1.346,1.346,0,0,0,0,33.309V51.827a1.346,1.346,0,0,0,1.345,1.345H8.081a.961.961,0,1,0,0-1.921H1.921V33.885H12.349l3.08,3.08V51.251H12.564a.961.961,0,1,0,0,1.921h3.442a1.346,1.346,0,0,0,1.345-1.345V45.964A19.141,19.141,0,0,0,30.958,42.53l5.63,5.63a2.351,2.351,0,0,0,.5,2.59L51.024,64.689a3.046,3.046,0,0,0,4.307,0l2.206-2.206a3.046,3.046,0,0,0,0-4.307Zm-41.324-48.1v2.306A15,15,0,0,0,5.664,31.964H3.3A17.251,17.251,0,0,1,16.214,10.078m-2.675,22.28a1.336,1.336,0,0,0-.951-.394H7.721a13.075,13.075,0,0,1,8.493-17.59V24.785a1.6,1.6,0,0,0,1.6,1.6H22.41v3.371a1.6,1.6,0,0,0,2.733,1.132l4.5-4.5h3.219c.008.187.014.375.014.564A13.074,13.074,0,0,1,17.351,39.8v-3.07a1.336,1.336,0,0,0-.394-.951Zm3.812,11.667V41.749A15,15,0,0,0,34.8,26.95c0-.189,0-.377-.012-.564h2.25c.006.187.011.375.011.564a17.247,17.247,0,0,1-19.7,17.074m15.119-2.7a19.339,19.339,0,0,0,1.7-1.7l5.359,5.359-1.7,1.7Zm5.975,8.068a.43.43,0,0,1,0-.607l3.189-3.189a.43.43,0,0,1,.607,0l1.62,1.62-3.8,3.8Z" transform="translate(0 0)"/>
          <path id="Trazado_661565" data-name="Trazado 661565" d="M212.421,37.041a1.243,1.243,0,0,0,1.242-1.242V32.742a1.243,1.243,0,0,0-1.242-1.242h-3.057a1.243,1.243,0,0,0-1.242,1.242V35.8a1.243,1.243,0,0,0,1.242,1.242Zm-2.378-3.619h1.7v1.7h-1.7Z" transform="translate(-181.464 -27.465)"/>
          <path id="Trazado_661566" data-name="Trazado 661566" d="M199.034,91.049a.961.961,0,0,0,0,1.921h6.121a.961.961,0,0,0,0-1.921h-.29V82.823a1.243,1.243,0,0,0-1.242-1.242h-4.631a.961.961,0,0,0,0,1.921h.332v7.547Zm2.211-7.547h1.7v7.547h-1.7Z" transform="translate(-172.666 -71.132)"/>
          <path id="Trazado_661567" data-name="Trazado 661567" d="M322.71,220.381a1.346,1.346,0,0,0-1.345,1.345v8.684a1.346,1.346,0,0,0,1.345,1.345h8.684a1.346,1.346,0,0,0,1.345-1.345v-8.684a1.346,1.346,0,0,0-1.345-1.345Zm8.107,9.452h-7.531V222.3h7.531Z" transform="translate(-280.202 -192.153)"/>
          <path id="Trazado_661568" data-name="Trazado 661568" d="M167.86,379.911h-5.765a1.346,1.346,0,0,0-1.345,1.345v5.765a1.346,1.346,0,0,0,1.345,1.345h5.765a1.346,1.346,0,0,0,1.345-1.345v-5.765a1.346,1.346,0,0,0-1.345-1.345m-.576,6.533h-4.612v-4.612h4.612Z" transform="translate(-140.16 -331.249)"/>
          <path id="Trazado_661569" data-name="Trazado 661569" d="M25.933,23.991h4.8a1.346,1.346,0,0,0,1.345-1.345v-4.8A1.346,1.346,0,0,0,30.735,16.5h-4.8a1.346,1.346,0,0,0-1.345,1.345v4.8a1.346,1.346,0,0,0,1.345,1.345m.576-5.57h3.649V22.07H26.509Z" transform="translate(-21.439 -14.387)"/>
          <path id="Trazado_661570" data-name="Trazado 661570" d="M37.1,360.485h6.172a.961.961,0,0,0,0-1.921H37.1a.961.961,0,0,0,0,1.921" transform="translate(-31.509 -312.637)"/>
          <path id="Trazado_661571" data-name="Trazado 661571" d="M37.1,326.756h6.172a.961.961,0,0,0,0-1.921H37.1a.961.961,0,0,0,0,1.921" transform="translate(-31.509 -283.228)"/>
          <path id="Trazado_661572" data-name="Trazado 661572" d="M37.1,293.026h3.5a.961.961,0,0,0,0-1.921H37.1a.961.961,0,0,0,0,1.921" transform="translate(-31.509 -253.818)"/>
          <path id="Trazado_661573" data-name="Trazado 661573" d="M350.925,79.876h10.31a1.346,1.346,0,0,0,1.345-1.345V67.842a1.336,1.336,0,0,0-.394-.951L359.8,64.5a1.336,1.336,0,0,0-.951-.394h-7.92a1.346,1.346,0,0,0-1.345,1.345v13.08a1.347,1.347,0,0,0,1.345,1.345m.576-13.848h7.1l2.053,2.053v9.874H351.5Z" transform="translate(-304.803 -55.895)"/>
          <path id="Trazado_661574" data-name="Trazado 661574" d="M380.922,142.383h-4.431a.961.961,0,1,0,0,1.921h4.431a.961.961,0,1,0,0-1.921" transform="translate(-327.429 -124.146)"/>
          <path id="Trazado_661575" data-name="Trazado 661575" d="M380.922,118.165h-4.431a.961.961,0,1,0,0,1.921h4.431a.961.961,0,0,0,0-1.921" transform="translate(-327.429 -103.03)"/>
          <path id="Trazado_661576" data-name="Trazado 661576" d="M376.49,95.868H379a.961.961,0,1,0,0-1.921H376.49a.961.961,0,1,0,0,1.921" transform="translate(-327.429 -81.914)"/>
        </g>
      </g>
    </g>
  </g>
</svg>
