<svg xmlns="http://www.w3.org/2000/svg" xmlns:xlink="http://www.w3.org/1999/xlink" width="100" height="100" viewBox="0 0 100 100">
  <defs>
    <clipPath id="clip-path">
      <rect id="Rectángulo_340714" data-name="Rectángulo 340714" width="66" height="66" transform="translate(0 0)" fill="none"/>
    </clipPath>
  </defs>
  <g id="Grupo_970840" data-name="Grupo 970840" transform="translate(-915 -3601)">
    <circle id="Elipse_5411" data-name="Elipse 5411" cx="50" cy="50" r="50" transform="translate(915 3601)" fill="#f3f9ff"/>
    <g id="Grupo_970719" data-name="Grupo 970719" transform="translate(-174 -61)">
      <rect id="Rectángulo_340715" data-name="Rectángulo 340715" width="66" height="66" transform="translate(1106 3677)" fill="none"/>
      <g id="Grupo_970718" data-name="Grupo 970718" transform="translate(1106 3677)">
        <g id="Grupo_970717" data-name="Grupo 970717" transform="translate(0 0)" clip-path="url(#clip-path)">
          <path id="Trazado_661577" data-name="Trazado 661577" d="M53.658,255.4a6.7,6.7,0,0,0-2.08-2.329A6.634,6.634,0,0,0,47.8,242.032c0-.03,0-.061,0-.093a6.619,6.619,0,0,0-.377-2.212,6.358,6.358,0,0,0-.328-.766,6.638,6.638,0,0,0-8.912-2.951l-.141.073a7.741,7.741,0,0,0-13.66,0,6.637,6.637,0,0,0-9.757,5.855c0,.032,0,.062,0,.093a6.633,6.633,0,0,0-3.775,11.037A6.627,6.627,0,0,0,8,258.527a6.716,6.716,0,0,0,.068.951,6.637,6.637,0,0,0,6.567,5.684H47.806a6.637,6.637,0,0,0,5.853-9.763Z" transform="translate(-6.891 -200.015)" fill="#f7afaf"/>
          <path id="Trazado_661578" data-name="Trazado 661578" d="M199.1,240.232H188.419A4.423,4.423,0,0,1,184,235.809V232.57a7.745,7.745,0,0,1,5.724,4.018,6.639,6.639,0,0,1,9.38,3.644Z" transform="translate(-158.563 -200.519)" fill="#f1a9a9"/>
          <path id="Trazado_661579" data-name="Trazado 661579" d="M54.863,302.025a6.635,6.635,0,0,1-6.635,6.635H15.053a6.637,6.637,0,0,1-6.567-5.684c13.43-2.454,27.865-8.558,39.037-20.516a6.357,6.357,0,0,1,.328.766,6.619,6.619,0,0,1,.377,2.212c0,.032,0,.062,0,.093A6.633,6.633,0,0,1,52,296.568a6.7,6.7,0,0,1,2.08,2.329A6.607,6.607,0,0,1,54.863,302.025Z" transform="translate(-7.313 -243.513)" fill="#f1a9a9"/>
          <path id="Trazado_661580" data-name="Trazado 661580" d="M203.123,12.423v26.54a4.423,4.423,0,0,1-4.423,4.423h-8.847l-12.164,7.741,1.106-7.741H164.419A4.423,4.423,0,0,1,160,38.963V12.423A4.423,4.423,0,0,1,164.419,8H198.7a4.419,4.419,0,0,1,4.423,4.416v.008" transform="translate(-137.88 -6.991)" fill="#348fd9"/>
          <path id="Trazado_661581" data-name="Trazado 661581" d="M203.123,12.923v26.54a4.423,4.423,0,0,1-4.423,4.423h-8.847l-12.164,7.741,1.106-7.741H164.419A4.423,4.423,0,0,1,160,39.463V36.718C174.543,32.784,189.448,24.3,199.542,8.58a4.424,4.424,0,0,1,3.581,4.343" transform="translate(-137.88 -7.491)" fill="#3086cd"/>
          <rect id="Rectángulo_340705" data-name="Rectángulo 340705" width="25" height="5" transform="translate(34 8)" fill="#f35244"/>
          <rect id="Rectángulo_340706" data-name="Rectángulo 340706" width="19" height="5" transform="translate(34 25)" fill="#ffb531"/>
          <rect id="Rectángulo_340707" data-name="Rectángulo 340707" width="12" height="5" transform="translate(34 16)" fill="#fa6d00"/>
          <path id="Trazado_661582" data-name="Trazado 661582" d="M185.05,288.547l1.92,1.1a3.989,3.989,0,0,1,6.926,0l1.92-1.1a6.2,6.2,0,0,0-10.767,0Z" transform="translate(-159.471 -246.066)"/>
          <path id="Trazado_661583" data-name="Trazado 661583" d="M57.641,370.974l-1.1-1.92a6.2,6.2,0,0,0,0,10.767l1.1-1.92a3.989,3.989,0,0,1,0-6.926" transform="translate(-46.034 -318.137)"/>
          <path id="Trazado_661584" data-name="Trazado 661584" d="M60.82,0H26.539A5.535,5.535,0,0,0,21.01,5.529v26.08a8.93,8.93,0,0,0-3.946,3.153A7.741,7.741,0,0,0,6.675,41.225,7.742,7.742,0,0,0,2.427,52.982,7.74,7.74,0,0,0,7.74,66.349H40.915a7.735,7.735,0,0,0,5.313-13.367,7.742,7.742,0,0,0,.285-8.2L44.6,45.893a5.528,5.528,0,0,1-.724,6.509,1.106,1.106,0,0,0,.182,1.659A5.616,5.616,0,0,1,45.793,56a5.531,5.531,0,0,1-4.878,8.134H30.888l-.171-.228a4.325,4.325,0,0,1,.4-5.626L29.554,56.72a6.555,6.555,0,0,0-1.268,7.417H24.328a5.529,5.529,0,1,1,0-11.058h8.946A6.121,6.121,0,0,0,36.3,57.357l1.1-1.92a3.989,3.989,0,0,1,0-6.926l-1.1-1.92a6.121,6.121,0,0,0-3.025,4.278H25.36a8.211,8.211,0,0,0-4.494-6.285L20.4,44.35l-.989,1.978.467.234a6.01,6.01,0,0,1,3.258,4.4,7.735,7.735,0,0,0-4.217,13.178H7.74A5.528,5.528,0,0,1,4.6,54.061,1.106,1.106,0,0,0,4.781,52.4a5.528,5.528,0,0,1,2-8.876,7.757,7.757,0,0,0,5.013,5.8l.737-2.085a5.538,5.538,0,0,1-3.685-5.142v-.029c0-.014,0-.028,0-.043a5.535,5.535,0,0,1,5.529-5.529,5.472,5.472,0,0,1,2.233.471l.1.273a3.853,3.853,0,0,1-.9,4L17.368,42.8a6.075,6.075,0,0,0,1.42-6.312l-.076-.212a6.706,6.706,0,0,1,2.61-2.384,5.538,5.538,0,0,0,5.217,3.7h13.1l-.926,6.478A1.106,1.106,0,0,0,40.4,45.166L52.3,37.6H60.82a5.535,5.535,0,0,0,5.529-5.529V5.529A5.535,5.535,0,0,0,60.82,0Zm3.317,32.069a3.321,3.321,0,0,1-3.317,3.317H51.973a1.106,1.106,0,0,0-.594.173l-10.135,6.45.766-5.36a1.106,1.106,0,0,0-1.095-1.262H26.539a3.321,3.321,0,0,1-3.317-3.317V5.529a3.321,3.321,0,0,1,3.317-3.317H60.82a3.321,3.321,0,0,1,3.317,3.317Z" transform="translate(0 -0.097)"/>
          <path id="Trazado_661585" data-name="Trazado 661585" d="M258.536,34.212H234.208V32H232V60.751h2.212V58.54H251.9a1.106,1.106,0,0,0,1.106-1.106V53.011A1.106,1.106,0,0,0,251.9,51.9H234.208V49.693h12.164a1.106,1.106,0,0,0,1.106-1.106V44.164a1.106,1.106,0,0,0-1.106-1.106H234.208V40.847h24.328a1.106,1.106,0,0,0,1.106-1.106V35.317a1.106,1.106,0,0,0-1.106-1.106m-7.741,22.116H234.208V54.116h16.587Zm-5.529-8.847H234.208V45.27h11.058Zm12.164-8.847H234.208V36.423H257.43Z" transform="translate(-199.928 -27.674)"/>
          <rect id="Rectángulo_340708" data-name="Rectángulo 340708" width="4" height="3" transform="translate(26 6)"/>
          <rect id="Rectángulo_340709" data-name="Rectángulo 340709" width="4" height="3" transform="translate(26 11)"/>
          <rect id="Rectángulo_340710" data-name="Rectángulo 340710" width="4" height="3" transform="translate(26 15)"/>
          <rect id="Rectángulo_340711" data-name="Rectángulo 340711" width="4" height="3" transform="translate(26 20)"/>
          <rect id="Rectángulo_340712" data-name="Rectángulo 340712" width="4" height="1" transform="translate(26 25)"/>
          <rect id="Rectángulo_340713" data-name="Rectángulo 340713" width="4" height="1" transform="translate(26 29)"/>
        </g>
      </g>
    </g>
  </g>
</svg>
