<svg xmlns="http://www.w3.org/2000/svg" width="82.765" height="77.332" viewBox="0 0 82.765 77.332">
  <g id="_1" data-name="1" transform="translate(-2 -4)">
    <path id="Trazado_661917" data-name="Trazado 661917" d="M22.936,41.921l-1.531-2.3L32.5,32.232a1.379,1.379,0,0,1,1.741.172L37,35.163l-1.95,1.95-1.959-1.959Z" transform="translate(7.362 10.624)" fill="#1e81ce"/>
    <path id="Trazado_661918" data-name="Trazado 661918" d="M63.772,28.48V39.557l-5.476.483L57.33,29.046Z" transform="translate(20.993 9.288)" fill="#e6e7e8"/>
    <path id="Trazado_661919" data-name="Trazado 661919" d="M63.506,36.51V58.677l-3.559.3L58.03,36.993Z" transform="translate(21.258 12.335)" fill="#ff5023"/>
    <path id="Trazado_661920" data-name="Trazado 661920" d="M55.994,55.577a8.276,8.276,0,1,1-8.966-7.518A8.276,8.276,0,0,1,55.994,55.577Z" transform="translate(14.218 16.704)" fill="#787680"/>
    <path id="Trazado_661921" data-name="Trazado 661921" d="M42.91,34.7l-1.241,7.463a1.379,1.379,0,0,0,1.49,1.517l24.429-2.138L69.5,63.525l-8.249.731-2.745.234a8.276,8.276,0,0,0-16.484,1.448l-2.745.234-2.745.234a2.759,2.759,0,0,1-2.993-2.5L33.3,61.152l-.317-3.642,5.6-3.366L35.82,51.386l2.759-2.759L32.84,45.758a27.278,27.278,0,0,1,.731-2.717l5.187-12.594a5.509,5.509,0,0,1,4.621-3.407l28.43-2.483a4.246,4.246,0,0,1,1.255.055v5.366l-6.442.566L45.393,32.405A2.759,2.759,0,0,0,42.91,34.7Z" transform="translate(11.701 7.791)" fill="#ff6243"/>
    <path id="Trazado_661922" data-name="Trazado 661922" d="M64.2,28.89l.966,10.994L40.732,42.022a1.379,1.379,0,0,1-1.49-1.517l1.241-7.463a2.759,2.759,0,0,1,2.483-2.29Z" transform="translate(14.127 9.444)" fill="#d1d3d4"/>
    <path id="Trazado_661923" data-name="Trazado 661923" d="M38.7,42.789l-2.759,2.759L38.7,48.307l-5.6,3.366-.483-5.49a22.687,22.687,0,0,1,.345-6.263Z" transform="translate(11.584 13.628)" fill="#ff9811"/>
    <path id="Trazado_661924" data-name="Trazado 661924" d="M33.324,44.051a7.914,7.914,0,0,1,.1,2.8l-.386,2.731-6.828-.966a1.379,1.379,0,0,1-1.173-1.559l.386-2.731a1.366,1.366,0,0,1,1.559-1.173Z" transform="translate(8.734 14.85)" fill="#e6e7e8"/>
    <path id="Trazado_661925" data-name="Trazado 661925" d="M21.265,48.143a8.276,8.276,0,1,1-9.352,7.035,8.276,8.276,0,0,1,9.352-7.035Z" transform="translate(3.73 16.717)" fill="#787680"/>
    <path id="Trazado_661926" data-name="Trazado 661926" d="M34.193,51.227l6.828.966-1.145,8.194a2.774,2.774,0,0,1-3.117,2.345l-2.731-.386L31.3,61.958a8.281,8.281,0,0,0-16.4-2.3l-2.731-.386L3.97,58.124,7.046,36.26,28.9,39.336l5.462.772a8.261,8.261,0,0,1,6.952,6.552l-6.345-.9a1.366,1.366,0,0,0-1.559,1.173l-.386,2.731a1.379,1.379,0,0,0,1.173,1.559Z" transform="translate(0.747 12.24)" fill="#5aaae7"/>
    <path id="Trazado_661927" data-name="Trazado 661927" d="M27.94,42.162l.11.179L6.2,39.265,7.731,28.34l12.111,1.71.428-.262Z" transform="translate(1.594 9.235)" fill="#e6e7e8"/>
    <path id="Trazado_661928" data-name="Trazado 661928" d="M9.325,28.625,7.794,39.55,2,38.736V27.59Z" transform="translate(0 8.95)" fill="#d1d3d4"/>
    <path id="Trazado_661929" data-name="Trazado 661929" d="M2,35.67l5.794.814L4.717,58.348,2,57.961Z" transform="translate(0 12.016)" fill="#3d9ae2"/>
    <path id="Trazado_661930" data-name="Trazado 661930" d="M21.864,31.6l-.428.262L9.325,30.154,2,29.119V23.56l13.725,1.931a5.505,5.505,0,0,1,3.931,2.552Z" transform="translate(0 7.421)" fill="#3d9ae2"/>
    <path id="Trazado_661931" data-name="Trazado 661931" d="M20.138,29.035,16,24.9h6.9V18l6.9,6.9,6.9-6.9v6.9h8.276L39.45,30.415H21.518Z" transform="translate(5.312 5.312)" fill="#ff9811"/>
    <path id="Trazado_661932" data-name="Trazado 661932" d="M31.774,58.626l-2.731-.386a8.281,8.281,0,1,0-16.4-2.3L9.91,55.55a11.074,11.074,0,0,1,10.925-9.49,11.637,11.637,0,0,1,1.545.11A11.035,11.035,0,0,1,31.774,58.626Z" transform="translate(3.001 15.958)" fill="#3d9ae2"/>
    <path id="Trazado_661933" data-name="Trazado 661933" d="M59.5,56.1l-2.745.234a8.276,8.276,0,0,0-16.484,1.448l-2.745.234A10.994,10.994,0,0,1,47.551,46.071c.317-.028.648-.041.966-.041A11.06,11.06,0,0,1,59.5,56.1Z" transform="translate(13.461 15.947)" fill="#ff5023"/>
    <path id="Trazado_661934" data-name="Trazado 661934" d="M0,0H2.759V5.518H0Z" transform="translate(35.322 70.489) rotate(-82.008)" fill="#ff9811"/>
    <path id="Trazado_661935" data-name="Trazado 661935" d="M0,0H2.759V5.518H0Z" transform="translate(10.913 55.901) rotate(-82.008)" fill="#3d9ae2"/>
    <path id="Trazado_661936" data-name="Trazado 661936" d="M0,0H2.759V2.759H0Z" transform="translate(22.261 74.22) rotate(-82.008)" fill="#57565c"/>
    <path id="Trazado_661937" data-name="Trazado 661937" d="M0,0H5.518V2.759H0Z" transform="translate(56.28 55.482) rotate(-4.992)" fill="#ed1c24"/>
    <path id="Trazado_661938" data-name="Trazado 661938" d="M0,0H2.759V2.759H0Z" transform="translate(60.438 71.761) rotate(-4.992)" fill="#57565c"/>
    <path id="Trazado_661939" data-name="Trazado 661939" d="M0,0H5.518V2.759H0Z" transform="translate(44.847 67.582) rotate(-4.992)" fill="#ff9811"/>
    <path id="Trazado_661940" data-name="Trazado 661940" d="M40.8,31.769l-1.95-1.95,3.163-3.163H37.071a1.379,1.379,0,0,1-1.379-1.379V21.709l-4.542,4.542a1.379,1.379,0,0,1-1.95,0l-4.542-4.542v3.567a1.379,1.379,0,0,1-1.379,1.379H19.709l1.784,1.784-1.95,1.95L15.4,26.252a1.379,1.379,0,0,1,.975-2.355H21.9V18.379a1.379,1.379,0,0,1,2.355-.975l5.922,5.922L36.1,17.4a1.379,1.379,0,0,1,2.355.975V23.9h6.9a1.379,1.379,0,0,1,.975,2.355Z" transform="translate(4.932 4.932)" fill="#ee8700"/>
    <g id="Grupo_970826" data-name="Grupo 970826" transform="translate(32.761 4)">
      <path id="Trazado_661941" data-name="Trazado 661941" d="M27.059,19.794H24.3a4.524,4.524,0,0,1,1.29-3.185,1.87,1.87,0,0,0,0-2.821,4.588,4.588,0,0,1,0-6.376A1.879,1.879,0,0,0,26.231,6H28.99A4.538,4.538,0,0,1,27.7,9.188a1.873,1.873,0,0,0,0,2.825,4.582,4.582,0,0,1,0,6.373A1.876,1.876,0,0,0,27.059,19.794Z" transform="translate(-24.3 -3.241)" fill="#e6e7e8"/>
      <path id="Trazado_661942" data-name="Trazado 661942" d="M33.059,17.794H30.3a4.524,4.524,0,0,1,1.29-3.185,1.87,1.87,0,0,0,0-2.821,4.588,4.588,0,0,1,0-6.376A1.879,1.879,0,0,0,32.231,4H34.99A4.538,4.538,0,0,1,33.7,7.188a1.873,1.873,0,0,0,0,2.825,4.582,4.582,0,0,1,0,6.373,1.876,1.876,0,0,0-.643,1.408Z" transform="translate(-22.023 -4)" fill="#e6e7e8"/>
    </g>
  </g>
</svg>
