<svg xmlns="http://www.w3.org/2000/svg" width="651" height="695" viewBox="0 0 651 695">
  <g id="Grupo_970844" data-name="Grupo 970844" transform="translate(-475 -2061)">
    <path id="Trazado_118970" data-name="Trazado 118970" d="M-6247.535-9757.5h330.151" transform="translate(6883.475 12232.364)" fill="none" stroke="#f3a43c" stroke-width="3"/>
    <path id="Trazado_118971" data-name="Trazado 118971" d="M-6247.535-9680.5h330.743" transform="translate(6883.475 12233.567)" fill="none" stroke="#f3a43c" stroke-width="3"/>
    <path id="Trazado_118972" data-name="Trazado 118972" d="M-6247.535-9604.5h331.2" transform="translate(6883.475 12234.754)" fill="none" stroke="#f3a43c" stroke-width="3"/>
    <path id="Trazado_118968" data-name="Trazado 118968" d="M-6085-9864.844v56.543h165.073v300.155H-6085" transform="translate(6886.013 12230.688)" fill="none" stroke="#f3a43c" stroke-width="3"/>
    <path id="Trazado_118969" data-name="Trazado 118969" d="M-5919.926-9809.17H-6085v300.155h165.074" transform="translate(6720.94 12231.557)" fill="none" stroke="#f3a43c" stroke-width="3"/>
    <path id="Trazado_118964" data-name="Trazado 118964" d="M-6141.635-10034.681v-257.6h-51.477" transform="translate(6901.299 12377.369)" fill="none" stroke="#f3a43c" stroke-width="3"/>
    <path id="Trazado_118966" data-name="Trazado 118966" d="M-6170.4-10148.511v-143.771h-22.712" transform="translate(6904.326 12454.843)" fill="none" stroke="#f3a43c" stroke-width="3"/>
    <path id="Trazado_118967" data-name="Trazado 118967" d="M-6193.111-10148.511v-143.771h22.712" transform="translate(7060.197 12454.843)" fill="none" stroke="#f3a43c" stroke-width="3"/>
    <path id="Trazado_118965" data-name="Trazado 118965" d="M-6193.112-10034.681v-257.6h51.477" transform="translate(7034.459 12377.369)" fill="none" stroke="#f3a43c" stroke-width="3"/>
    <path id="Trazado_661978" data-name="Trazado 661978" d="M10,0H224a10,10,0,0,1,10,10V37a10,10,0,0,1-10,10H10A10,10,0,0,1,0,37V10A10,10,0,0,1,10,0Z" transform="translate(684 2450)" fill="#fcc781"/>
    <path id="Trazado_661979" data-name="Trazado 661979" d="M10,0H224a10,10,0,0,1,10,10V38a10,10,0,0,1-10,10H10A10,10,0,0,1,0,38V10A10,10,0,0,1,10,0Z" transform="translate(684 2606)" fill="#fcc781"/>
    <path id="Trazado_661980" data-name="Trazado 661980" d="M10,0H224a10,10,0,0,1,10,10V37a10,10,0,0,1-10,10H10A10,10,0,0,1,0,37V10A10,10,0,0,1,10,0Z" transform="translate(684 2529)" fill="#fcc781"/>
    <path id="Trazado_661981" data-name="Trazado 661981" d="M10,0H224a10,10,0,0,1,10,10V61a10,10,0,0,1-10,10H10A10,10,0,0,1,0,61V10A10,10,0,0,1,10,0Z" transform="translate(684 2685)" fill="#fcc781"/>
    <path id="Trazado_661982" data-name="Trazado 661982" d="M59.6,8.3a3.136,3.136,0,0,0,.461,1.586,3.055,3.055,0,0,0,2.727,1.141,4.826,4.826,0,0,0,1.594-.25A1.771,1.771,0,0,0,65.77,9.039,1.5,1.5,0,0,0,65.184,7.7a5.916,5.916,0,0,0-1.859-.68L61.77,6.672a7.04,7.04,0,0,1-2.156-.758A2.4,2.4,0,0,1,58.52,3.766a3.308,3.308,0,0,1,1.07-2.539A4.294,4.294,0,0,1,62.621.234a5.265,5.265,0,0,1,3.066.871,3.144,3.144,0,0,1,1.262,2.785H65.488a2.876,2.876,0,0,0-.5-1.414,2.9,2.9,0,0,0-2.414-.9,2.793,2.793,0,0,0-1.977.578A1.809,1.809,0,0,0,60,3.5a1.312,1.312,0,0,0,.7,1.234,10.318,10.318,0,0,0,2.086.625l1.609.367a4.931,4.931,0,0,1,1.8.727,2.721,2.721,0,0,1,1.094,2.336A2.916,2.916,0,0,1,65.9,11.516a6.21,6.21,0,0,1-3.223.82,4.819,4.819,0,0,1-3.352-1.094A3.69,3.69,0,0,1,58.137,8.3ZM72.551,3.445a3.817,3.817,0,0,1,1.727.418,3.184,3.184,0,0,1,1.273,1.082,3.733,3.733,0,0,1,.563,1.477,9.66,9.66,0,0,1,.125,1.844H70.105a3.579,3.579,0,0,0,.6,2.043,2.014,2.014,0,0,0,1.742.77,2.252,2.252,0,0,0,1.758-.727,2.449,2.449,0,0,0,.531-.977h1.383a2.912,2.912,0,0,1-.363,1.027,3.654,3.654,0,0,1-.691.926,3.277,3.277,0,0,1-1.586.844,4.818,4.818,0,0,1-1.148.125,3.524,3.524,0,0,1-2.648-1.137A4.423,4.423,0,0,1,68.6,7.977,4.809,4.809,0,0,1,69.691,4.7,3.608,3.608,0,0,1,72.551,3.445Zm2.242,3.7a3.643,3.643,0,0,0-.4-1.461,2.042,2.042,0,0,0-1.93-1.016,2.139,2.139,0,0,0-1.625.7,2.641,2.641,0,0,0-.7,1.777Zm6.4-3.758a3.648,3.648,0,0,1,2.3.688,3.294,3.294,0,0,1,1.066,2.367H83.191a2.524,2.524,0,0,0-.57-1.285,1.8,1.8,0,0,0-1.43-.512A1.975,1.975,0,0,0,79.27,5.961a5.214,5.214,0,0,0-.375,2.1,3.955,3.955,0,0,0,.531,2.117,2.06,2.06,0,0,0,3.059.324,2.943,2.943,0,0,0,.707-1.465h1.367a3.67,3.67,0,0,1-1.172,2.434,3.656,3.656,0,0,1-2.4.77,3.2,3.2,0,0,1-2.617-1.2,4.59,4.59,0,0,1-.977-3,5.048,5.048,0,0,1,1.07-3.43A3.459,3.459,0,0,1,81.191,3.391Zm6.18.242V9.188a2.342,2.342,0,0,0,.2,1.047,1.417,1.417,0,0,0,1.4.75,1.977,1.977,0,0,0,2-1.312,5.207,5.207,0,0,0,.289-1.93V3.633h1.406V12H91.34l.016-1.234a2.837,2.837,0,0,1-.68.8,2.991,2.991,0,0,1-1.953.656,2.519,2.519,0,0,1-2.437-1.2,3.56,3.56,0,0,1-.352-1.711V3.633Zm10.977-.187a3.817,3.817,0,0,1,1.727.418,3.184,3.184,0,0,1,1.273,1.082,3.733,3.733,0,0,1,.563,1.477,9.66,9.66,0,0,1,.125,1.844H95.9a3.579,3.579,0,0,0,.6,2.043,2.014,2.014,0,0,0,1.742.77A2.252,2.252,0,0,0,100,10.352a2.449,2.449,0,0,0,.531-.977h1.383a2.912,2.912,0,0,1-.363,1.027,3.654,3.654,0,0,1-.691.926,3.277,3.277,0,0,1-1.586.844,4.818,4.818,0,0,1-1.148.125A3.524,3.524,0,0,1,95.48,11.16a4.423,4.423,0,0,1-1.086-3.184A4.809,4.809,0,0,1,95.488,4.7,3.608,3.608,0,0,1,98.348,3.445Zm2.242,3.7a3.643,3.643,0,0,0-.4-1.461,2.042,2.042,0,0,0-1.93-1.016,2.139,2.139,0,0,0-1.625.7,2.641,2.641,0,0,0-.7,1.777Zm3.172-3.516H105.1V4.82a3.747,3.747,0,0,1,1.258-1.055,3.354,3.354,0,0,1,1.477-.32,2.435,2.435,0,0,1,2.406,1.242,4.411,4.411,0,0,1,.344,1.945V12h-1.43V6.727a2.856,2.856,0,0,0-.227-1.234,1.374,1.374,0,0,0-1.359-.781,2.768,2.768,0,0,0-.82.1,2.113,2.113,0,0,0-1.016.688,2.07,2.07,0,0,0-.457.855,5.758,5.758,0,0,0-.105,1.262V12h-1.406Zm12.125-.242a3.648,3.648,0,0,1,2.3.688,3.294,3.294,0,0,1,1.066,2.367h-1.367a2.524,2.524,0,0,0-.57-1.285,1.8,1.8,0,0,0-1.43-.512,1.975,1.975,0,0,0-1.922,1.313,5.214,5.214,0,0,0-.375,2.1,3.955,3.955,0,0,0,.531,2.117,2.06,2.06,0,0,0,3.059.324,2.943,2.943,0,0,0,.707-1.465h1.367a3.67,3.67,0,0,1-1.172,2.434,3.656,3.656,0,0,1-2.4.77,3.2,3.2,0,0,1-2.617-1.2,4.59,4.59,0,0,1-.977-3,5.048,5.048,0,0,1,1.07-3.43A3.459,3.459,0,0,1,115.887,3.391Zm4.773.281h1.43V12h-1.43Zm0-3.148h1.43V2.117h-1.43Zm4.633,9.25a1.158,1.158,0,0,0,.445.961,1.651,1.651,0,0,0,1.055.352,3.207,3.207,0,0,0,1.438-.344A1.935,1.935,0,0,0,129.4,8.875V7.742a2.406,2.406,0,0,1-.664.273,5.658,5.658,0,0,1-.8.156l-.852.109a3.257,3.257,0,0,0-1.148.32A1.248,1.248,0,0,0,125.293,9.773ZM128.7,6.93a.764.764,0,0,0,.648-.406,1.236,1.236,0,0,0,.094-.539,1.142,1.142,0,0,0-.512-1.043,2.745,2.745,0,0,0-1.465-.324,1.861,1.861,0,0,0-1.562.594,1.953,1.953,0,0,0-.336.977h-1.312a2.416,2.416,0,0,1,1-2.152A4.122,4.122,0,0,1,127.5,3.43a4.554,4.554,0,0,1,2.4.563,1.908,1.908,0,0,1,.914,1.75v4.82a.617.617,0,0,0,.09.352.433.433,0,0,0,.379.133q.094,0,.211-.012t.25-.035v1.039a3.917,3.917,0,0,1-.5.117,3.654,3.654,0,0,1-.469.023,1.157,1.157,0,0,1-1.055-.516,1.99,1.99,0,0,1-.242-.773,3.578,3.578,0,0,1-1.234.977,3.818,3.818,0,0,1-1.773.414,2.637,2.637,0,0,1-1.9-.707,2.349,2.349,0,0,1-.738-1.77,2.279,2.279,0,0,1,.727-1.8,3.457,3.457,0,0,1,1.906-.789ZM133.152.523h1.406V12h-1.406Z" transform="translate(704 2464)" fill="#12263f"/>
    <path id="Trazado_661983" data-name="Trazado 661983" d="M60.957.523h5.164a3.5,3.5,0,0,1,2.469.863,3.133,3.133,0,0,1,.938,2.426,3.527,3.527,0,0,1-.836,2.34,3.167,3.167,0,0,1-2.57,1H62.512V12H60.957Zm7,3.3A1.727,1.727,0,0,0,67.02,2.1a3.385,3.385,0,0,0-1.414-.242H62.512V5.836h3.094a2.957,2.957,0,0,0,1.7-.445A1.765,1.765,0,0,0,67.957,3.82Zm3.375-.187h1.336V5.078a3.193,3.193,0,0,1,.8-1.027,2.086,2.086,0,0,1,1.477-.605q.039,0,.133.008l.32.031V4.969a2.1,2.1,0,0,0-.23-.031q-.105-.008-.23-.008a2.007,2.007,0,0,0-1.633.684,2.386,2.386,0,0,0-.57,1.574V12H71.332Zm8.609,7.461a1.939,1.939,0,0,0,1.918-1.059,5.274,5.274,0,0,0,.52-2.355A4.194,4.194,0,0,0,82,5.773a2.11,2.11,0,0,0-2.047-1.156,2.018,2.018,0,0,0-1.875.984A4.563,4.563,0,0,0,77.5,7.977a3.969,3.969,0,0,0,.586,2.227A2.064,2.064,0,0,0,79.941,11.094ZM80,3.391A3.789,3.789,0,0,1,82.73,4.469a4.21,4.21,0,0,1,1.117,3.172,5.442,5.442,0,0,1-.984,3.344,3.561,3.561,0,0,1-3.055,1.32,3.449,3.449,0,0,1-2.742-1.168A4.613,4.613,0,0,1,76.051,8a4.991,4.991,0,0,1,1.07-3.359A3.592,3.592,0,0,1,80,3.391ZM85.41.484h1.367V4.648A3.064,3.064,0,0,1,89.27,3.414,3.26,3.26,0,0,1,91.8,4.488a4.576,4.576,0,0,1,.973,3.168,5.433,5.433,0,0,1-.961,3.3,3.117,3.117,0,0,1-2.664,1.313,2.73,2.73,0,0,1-1.609-.461,3.887,3.887,0,0,1-.836-.875V12h-1.3Zm3.656,10.539a1.879,1.879,0,0,0,1.707-.906,4.462,4.462,0,0,0,.566-2.391,3.924,3.924,0,0,0-.566-2.187,1.865,1.865,0,0,0-1.668-.867,2.327,2.327,0,0,0-1.684.711A3.193,3.193,0,0,0,86.7,7.727,5.18,5.18,0,0,0,87,9.641,2.051,2.051,0,0,0,89.066,11.023Zm6.43-1.25a1.158,1.158,0,0,0,.445.961A1.651,1.651,0,0,0,97,11.086a3.207,3.207,0,0,0,1.438-.344,1.935,1.935,0,0,0,1.172-1.867V7.742a2.406,2.406,0,0,1-.664.273,5.659,5.659,0,0,1-.8.156l-.852.109a3.257,3.257,0,0,0-1.148.32A1.248,1.248,0,0,0,95.5,9.773ZM98.9,6.93a.764.764,0,0,0,.648-.406,1.236,1.236,0,0,0,.094-.539,1.142,1.142,0,0,0-.512-1.043,2.745,2.745,0,0,0-1.465-.324,1.861,1.861,0,0,0-1.562.594,1.953,1.953,0,0,0-.336.977H94.457a2.416,2.416,0,0,1,1-2.152A4.122,4.122,0,0,1,97.7,3.43a4.554,4.554,0,0,1,2.4.563,1.908,1.908,0,0,1,.914,1.75v4.82a.617.617,0,0,0,.09.352.433.433,0,0,0,.379.133q.094,0,.211-.012t.25-.035v1.039a3.916,3.916,0,0,1-.5.117,3.654,3.654,0,0,1-.469.023,1.157,1.157,0,0,1-1.055-.516,1.99,1.99,0,0,1-.242-.773,3.578,3.578,0,0,1-1.234.977,3.818,3.818,0,0,1-1.773.414,2.637,2.637,0,0,1-1.9-.707,2.349,2.349,0,0,1-.738-1.77A2.279,2.279,0,0,1,94.754,8a3.457,3.457,0,0,1,1.906-.789ZM103.6,1.3h1.422V3.633h1.336V4.781H105.02v5.461a.591.591,0,0,0,.3.586,1.262,1.262,0,0,0,.547.086q.1,0,.219,0t.273-.02V12a3.139,3.139,0,0,1-.5.1,4.791,4.791,0,0,1-.566.031,1.527,1.527,0,0,1-1.336-.5,2.239,2.239,0,0,1-.352-1.309V4.781h-1.133V3.633H103.6Zm7.484,9.8A1.939,1.939,0,0,0,113,10.035a5.274,5.274,0,0,0,.52-2.355,4.194,4.194,0,0,0-.375-1.906A2.11,2.11,0,0,0,111.1,4.617a2.018,2.018,0,0,0-1.875.984,4.563,4.563,0,0,0-.586,2.375,3.969,3.969,0,0,0,.586,2.227A2.064,2.064,0,0,0,111.082,11.094Zm.055-7.7a3.789,3.789,0,0,1,2.734,1.078,4.21,4.21,0,0,1,1.117,3.172A5.442,5.442,0,0,1,114,10.984a3.561,3.561,0,0,1-3.055,1.32,3.449,3.449,0,0,1-2.742-1.168A4.613,4.613,0,0,1,107.191,8a4.991,4.991,0,0,1,1.07-3.359A3.592,3.592,0,0,1,111.137,3.391Zm5.563.242h1.336V5.078a3.193,3.193,0,0,1,.8-1.027,2.086,2.086,0,0,1,1.477-.605q.039,0,.133.008l.32.031V4.969a2.1,2.1,0,0,0-.23-.031q-.105-.008-.23-.008a2.007,2.007,0,0,0-1.633.684,2.386,2.386,0,0,0-.57,1.574V12H116.7Zm5.289.039h1.43V12h-1.43Zm0-3.148h1.43V2.117h-1.43Zm6.875,10.57a1.939,1.939,0,0,0,1.918-1.059,5.274,5.274,0,0,0,.52-2.355,4.194,4.194,0,0,0-.375-1.906,2.11,2.11,0,0,0-2.047-1.156A2.018,2.018,0,0,0,127,5.6a4.563,4.563,0,0,0-.586,2.375A3.969,3.969,0,0,0,127,10.2,2.064,2.064,0,0,0,128.863,11.094Zm.055-7.7a3.789,3.789,0,0,1,2.734,1.078,4.21,4.21,0,0,1,1.117,3.172,5.442,5.442,0,0,1-.984,3.344,3.561,3.561,0,0,1-3.055,1.32,3.449,3.449,0,0,1-2.742-1.168A4.613,4.613,0,0,1,124.973,8a4.991,4.991,0,0,1,1.07-3.359A3.592,3.592,0,0,1,128.918,3.391Z" transform="translate(704 2620)" fill="#12263f"/>
    <path id="Trazado_661984" data-name="Trazado 661984" d="M66.551,10.672a4.3,4.3,0,0,0,1.3-.164,2.852,2.852,0,0,0,1.484-1.172A4.8,4.8,0,0,0,70,7.555a6.794,6.794,0,0,0,.117-1.2,5.6,5.6,0,0,0-.848-3.312,3.131,3.131,0,0,0-2.73-1.18H63.777v8.813ZM62.215.523h4.648A4.381,4.381,0,0,1,70.535,2.2,6.193,6.193,0,0,1,71.7,6.086a7.736,7.736,0,0,1-.687,3.3A4.242,4.242,0,0,1,66.848,12H62.215ZM77,3.445a3.817,3.817,0,0,1,1.727.418A3.184,3.184,0,0,1,80,4.945a3.733,3.733,0,0,1,.563,1.477,9.66,9.66,0,0,1,.125,1.844H74.551a3.579,3.579,0,0,0,.6,2.043,2.014,2.014,0,0,0,1.742.77,2.252,2.252,0,0,0,1.758-.727,2.449,2.449,0,0,0,.531-.977h1.383A2.912,2.912,0,0,1,80.2,10.4a3.654,3.654,0,0,1-.691.926,3.277,3.277,0,0,1-1.586.844,4.818,4.818,0,0,1-1.148.125,3.524,3.524,0,0,1-2.648-1.137,4.423,4.423,0,0,1-1.086-3.184A4.809,4.809,0,0,1,74.137,4.7,3.608,3.608,0,0,1,77,3.445Zm2.242,3.7a3.643,3.643,0,0,0-.4-1.461,2.042,2.042,0,0,0-1.93-1.016,2.139,2.139,0,0,0-1.625.7,2.641,2.641,0,0,0-.7,1.777Zm4.063.766a4.147,4.147,0,0,0,.57,2.25,2,2,0,0,0,1.828.906,1.925,1.925,0,0,0,1.605-.84,3.966,3.966,0,0,0,.629-2.41,3.564,3.564,0,0,0-.648-2.348,2.023,2.023,0,0,0-1.6-.762,2.114,2.114,0,0,0-1.723.813A3.721,3.721,0,0,0,83.3,7.914Zm2.117-4.43a2.977,2.977,0,0,1,1.609.406,3.78,3.78,0,0,1,.852.82V.484H89.23V12H87.965V10.836A3.043,3.043,0,0,1,86.8,11.953a3.332,3.332,0,0,1-1.539.344,3.117,3.117,0,0,1-2.422-1.176,4.6,4.6,0,0,1-1.023-3.129,5.4,5.4,0,0,1,.934-3.168A3.057,3.057,0,0,1,85.418,3.484Zm7.3.148V9.188a2.342,2.342,0,0,0,.2,1.047,1.417,1.417,0,0,0,1.4.75,1.977,1.977,0,0,0,2-1.312,5.207,5.207,0,0,0,.289-1.93V3.633h1.406V12H96.684l.016-1.234a2.837,2.837,0,0,1-.68.8,2.991,2.991,0,0,1-1.953.656,2.519,2.519,0,0,1-2.437-1.2,3.56,3.56,0,0,1-.352-1.711V3.633Zm10.719-.242a3.648,3.648,0,0,1,2.3.688A3.294,3.294,0,0,1,106.8,6.445h-1.367a2.524,2.524,0,0,0-.57-1.285,1.8,1.8,0,0,0-1.43-.512,1.975,1.975,0,0,0-1.922,1.313,5.214,5.214,0,0,0-.375,2.1,3.955,3.955,0,0,0,.531,2.117,2.06,2.06,0,0,0,3.059.324,2.943,2.943,0,0,0,.707-1.465H106.8a3.67,3.67,0,0,1-1.172,2.434,3.656,3.656,0,0,1-2.4.77,3.2,3.2,0,0,1-2.617-1.2,4.59,4.59,0,0,1-.977-3,5.048,5.048,0,0,1,1.07-3.43A3.459,3.459,0,0,1,103.434,3.391ZM108.488,1.3h1.422V3.633h1.336V4.781H109.91v5.461a.591.591,0,0,0,.3.586,1.262,1.262,0,0,0,.547.086q.1,0,.219,0t.273-.02V12a3.139,3.139,0,0,1-.5.1,4.791,4.791,0,0,1-.566.031,1.527,1.527,0,0,1-1.336-.5,2.239,2.239,0,0,1-.352-1.309V4.781h-1.133V3.633h1.133Zm4.164,2.375h1.43V12h-1.43Zm0-3.148h1.43V2.117h-1.43Zm4.242,3.109,2.234,6.813,2.336-6.812H123L119.848,12h-1.5l-3.086-8.367Zm10.633,7.461a1.939,1.939,0,0,0,1.918-1.059,5.274,5.274,0,0,0,.52-2.355,4.194,4.194,0,0,0-.375-1.906,2.11,2.11,0,0,0-2.047-1.156,2.018,2.018,0,0,0-1.875.984,4.563,4.563,0,0,0-.586,2.375,3.969,3.969,0,0,0,.586,2.227A2.064,2.064,0,0,0,127.527,11.094Zm.055-7.7a3.789,3.789,0,0,1,2.734,1.078,4.21,4.21,0,0,1,1.117,3.172,5.442,5.442,0,0,1-.984,3.344,3.561,3.561,0,0,1-3.055,1.32,3.449,3.449,0,0,1-2.742-1.168A4.613,4.613,0,0,1,123.637,8a4.991,4.991,0,0,1,1.07-3.359A3.592,3.592,0,0,1,127.582,3.391Z" transform="translate(704 2543)" fill="#12263f"/>
    <path id="Trazado_661985" data-name="Trazado 661985" d="M38.234,7.3l-1.742-5.07L34.641,7.3ZM35.68.523h1.758L41.6,12H39.9L38.734,8.563H34.2L32.953,12H31.359Zm7.148,3.109h1.336V4.82a3.747,3.747,0,0,1,1.258-1.055,3.354,3.354,0,0,1,1.477-.32A2.435,2.435,0,0,1,49.3,4.688a4.411,4.411,0,0,1,.344,1.945V12h-1.43V6.727a2.856,2.856,0,0,0-.227-1.234,1.374,1.374,0,0,0-1.359-.781,2.768,2.768,0,0,0-.82.1A2.113,2.113,0,0,0,44.8,5.5a2.07,2.07,0,0,0-.457.855,5.758,5.758,0,0,0-.105,1.262V12H42.828ZM52.8,9.773a1.158,1.158,0,0,0,.445.961,1.651,1.651,0,0,0,1.055.352,3.207,3.207,0,0,0,1.438-.344,1.935,1.935,0,0,0,1.172-1.867V7.742a2.406,2.406,0,0,1-.664.273,5.659,5.659,0,0,1-.8.156l-.852.109a3.257,3.257,0,0,0-1.148.32A1.248,1.248,0,0,0,52.8,9.773ZM56.211,6.93a.764.764,0,0,0,.648-.406,1.236,1.236,0,0,0,.094-.539,1.142,1.142,0,0,0-.512-1.043,2.745,2.745,0,0,0-1.465-.324,1.861,1.861,0,0,0-1.562.594,1.953,1.953,0,0,0-.336.977H51.766a2.416,2.416,0,0,1,1-2.152,4.122,4.122,0,0,1,2.238-.605,4.554,4.554,0,0,1,2.4.563,1.908,1.908,0,0,1,.914,1.75v4.82a.617.617,0,0,0,.09.352.433.433,0,0,0,.379.133q.094,0,.211-.012T59.25,11v1.039a3.917,3.917,0,0,1-.5.117,3.654,3.654,0,0,1-.469.023,1.157,1.157,0,0,1-1.055-.516,1.99,1.99,0,0,1-.242-.773,3.578,3.578,0,0,1-1.234.977,3.818,3.818,0,0,1-1.773.414,2.637,2.637,0,0,1-1.9-.707,2.349,2.349,0,0,1-.738-1.77A2.279,2.279,0,0,1,52.063,8a3.457,3.457,0,0,1,1.906-.789ZM60.664.523H62.07V12H60.664ZM64.18,3.672h1.43V12H64.18Zm0-3.148h1.43V2.117H64.18Zm2.93,10.367,4.961-6H67.477V3.633h6.484V4.781l-4.93,5.961h5.078V12h-7Zm9.7-1.117a1.158,1.158,0,0,0,.445.961,1.651,1.651,0,0,0,1.055.352,3.207,3.207,0,0,0,1.438-.344,1.935,1.935,0,0,0,1.172-1.867V7.742a2.406,2.406,0,0,1-.664.273,5.659,5.659,0,0,1-.8.156l-.852.109a3.257,3.257,0,0,0-1.148.32A1.248,1.248,0,0,0,76.813,9.773ZM80.219,6.93a.764.764,0,0,0,.648-.406,1.236,1.236,0,0,0,.094-.539,1.142,1.142,0,0,0-.512-1.043,2.745,2.745,0,0,0-1.465-.324,1.861,1.861,0,0,0-1.562.594,1.953,1.953,0,0,0-.336.977H75.773a2.416,2.416,0,0,1,1-2.152,4.122,4.122,0,0,1,2.238-.605,4.554,4.554,0,0,1,2.4.563,1.908,1.908,0,0,1,.914,1.75v4.82a.617.617,0,0,0,.09.352.433.433,0,0,0,.379.133q.094,0,.211-.012t.25-.035v1.039a3.916,3.916,0,0,1-.5.117,3.654,3.654,0,0,1-.469.023,1.157,1.157,0,0,1-1.055-.516,1.99,1.99,0,0,1-.242-.773,3.578,3.578,0,0,1-1.234.977,3.818,3.818,0,0,1-1.773.414,2.637,2.637,0,0,1-1.9-.707,2.349,2.349,0,0,1-.738-1.77A2.279,2.279,0,0,1,76.07,8a3.457,3.457,0,0,1,1.906-.789Zm8.9-6.406h1.406V12H89.117Zm4.594,9.25a1.158,1.158,0,0,0,.445.961,1.651,1.651,0,0,0,1.055.352,3.207,3.207,0,0,0,1.438-.344A1.935,1.935,0,0,0,97.82,8.875V7.742a2.406,2.406,0,0,1-.664.273,5.659,5.659,0,0,1-.8.156l-.852.109a3.257,3.257,0,0,0-1.148.32A1.248,1.248,0,0,0,93.711,9.773ZM97.117,6.93a.764.764,0,0,0,.648-.406,1.236,1.236,0,0,0,.094-.539,1.142,1.142,0,0,0-.512-1.043,2.745,2.745,0,0,0-1.465-.324,1.861,1.861,0,0,0-1.562.594,1.953,1.953,0,0,0-.336.977H92.672a2.416,2.416,0,0,1,1-2.152,4.122,4.122,0,0,1,2.238-.605,4.554,4.554,0,0,1,2.4.563,1.908,1.908,0,0,1,.914,1.75v4.82a.617.617,0,0,0,.09.352.433.433,0,0,0,.379.133q.094,0,.211-.012t.25-.035v1.039a3.916,3.916,0,0,1-.5.117,3.654,3.654,0,0,1-.469.023,1.157,1.157,0,0,1-1.055-.516,1.99,1.99,0,0,1-.242-.773,3.578,3.578,0,0,1-1.234.977,3.818,3.818,0,0,1-1.773.414,2.637,2.637,0,0,1-1.9-.707,2.349,2.349,0,0,1-.738-1.77A2.279,2.279,0,0,1,92.969,8a3.457,3.457,0,0,1,1.906-.789Zm8.9-3.3h1.336V5.078a3.193,3.193,0,0,1,.8-1.027,2.086,2.086,0,0,1,1.477-.605q.039,0,.133.008l.32.031V4.969a2.1,2.1,0,0,0-.23-.031q-.105-.008-.23-.008a2.007,2.007,0,0,0-1.633.684,2.386,2.386,0,0,0-.57,1.574V12h-1.406Zm8.773-.187a3.817,3.817,0,0,1,1.727.418,3.184,3.184,0,0,1,1.273,1.082,3.733,3.733,0,0,1,.563,1.477,9.66,9.66,0,0,1,.125,1.844h-6.133a3.579,3.579,0,0,0,.6,2.043,2.014,2.014,0,0,0,1.742.77,2.252,2.252,0,0,0,1.758-.727,2.449,2.449,0,0,0,.531-.977h1.383A2.912,2.912,0,0,1,118,10.4a3.654,3.654,0,0,1-.691.926,3.277,3.277,0,0,1-1.586.844,4.818,4.818,0,0,1-1.148.125,3.524,3.524,0,0,1-2.648-1.137,4.423,4.423,0,0,1-1.086-3.184A4.809,4.809,0,0,1,111.93,4.7,3.608,3.608,0,0,1,114.789,3.445Zm2.242,3.7a3.643,3.643,0,0,0-.4-1.461,2.042,2.042,0,0,0-1.93-1.016,2.139,2.139,0,0,0-1.625.7,2.641,2.641,0,0,0-.7,1.777Zm4.25,2.625a1.158,1.158,0,0,0,.445.961,1.651,1.651,0,0,0,1.055.352,3.207,3.207,0,0,0,1.438-.344,1.935,1.935,0,0,0,1.172-1.867V7.742a2.406,2.406,0,0,1-.664.273,5.659,5.659,0,0,1-.8.156l-.852.109a3.257,3.257,0,0,0-1.148.32A1.248,1.248,0,0,0,121.281,9.773Zm3.406-2.844a.764.764,0,0,0,.648-.406,1.236,1.236,0,0,0,.094-.539,1.142,1.142,0,0,0-.512-1.043,2.745,2.745,0,0,0-1.465-.324,1.861,1.861,0,0,0-1.562.594,1.953,1.953,0,0,0-.336.977h-1.312a2.416,2.416,0,0,1,1-2.152,4.122,4.122,0,0,1,2.238-.605,4.554,4.554,0,0,1,2.4.563,1.908,1.908,0,0,1,.914,1.75v4.82a.617.617,0,0,0,.09.352.433.433,0,0,0,.379.133q.094,0,.211-.012t.25-.035v1.039a3.916,3.916,0,0,1-.5.117,3.654,3.654,0,0,1-.469.023,1.157,1.157,0,0,1-1.055-.516,1.99,1.99,0,0,1-.242-.773,3.578,3.578,0,0,1-1.234.977,3.818,3.818,0,0,1-1.773.414,2.637,2.637,0,0,1-1.9-.707,2.349,2.349,0,0,1-.738-1.77,2.279,2.279,0,0,1,.727-1.8,3.457,3.457,0,0,1,1.906-.789ZM129.141.523h1.406V12h-1.406Zm3.516,3.148h1.43V12h-1.43Zm0-3.148h1.43V2.117h-1.43ZM137.1,7.914a4.148,4.148,0,0,0,.57,2.25,2,2,0,0,0,1.828.906,1.925,1.925,0,0,0,1.605-.84,3.966,3.966,0,0,0,.629-2.41,3.564,3.564,0,0,0-.648-2.348,2.023,2.023,0,0,0-1.6-.762,2.114,2.114,0,0,0-1.723.813A3.721,3.721,0,0,0,137.1,7.914Zm2.117-4.43a2.977,2.977,0,0,1,1.609.406,3.78,3.78,0,0,1,.852.82V.484h1.352V12h-1.266V10.836a3.042,3.042,0,0,1-1.164,1.117,3.332,3.332,0,0,1-1.539.344,3.117,3.117,0,0,1-2.422-1.176,4.6,4.6,0,0,1-1.023-3.129,5.4,5.4,0,0,1,.934-3.168A3.057,3.057,0,0,1,139.219,3.484Zm6.969,6.289a1.158,1.158,0,0,0,.445.961,1.651,1.651,0,0,0,1.055.352,3.207,3.207,0,0,0,1.438-.344A1.935,1.935,0,0,0,150.3,8.875V7.742a2.406,2.406,0,0,1-.664.273,5.658,5.658,0,0,1-.8.156l-.852.109a3.257,3.257,0,0,0-1.148.32A1.248,1.248,0,0,0,146.188,9.773Zm3.406-2.844a.764.764,0,0,0,.648-.406,1.236,1.236,0,0,0,.094-.539,1.142,1.142,0,0,0-.512-1.043,2.745,2.745,0,0,0-1.465-.324,1.861,1.861,0,0,0-1.562.594,1.953,1.953,0,0,0-.336.977h-1.312a2.416,2.416,0,0,1,1-2.152,4.122,4.122,0,0,1,2.238-.605,4.554,4.554,0,0,1,2.4.563,1.908,1.908,0,0,1,.914,1.75v4.82a.617.617,0,0,0,.09.352.433.433,0,0,0,.379.133q.094,0,.211-.012t.25-.035v1.039a3.917,3.917,0,0,1-.5.117,3.654,3.654,0,0,1-.469.023,1.157,1.157,0,0,1-1.055-.516,1.99,1.99,0,0,1-.242-.773,3.578,3.578,0,0,1-1.234.977,3.818,3.818,0,0,1-1.773.414,2.637,2.637,0,0,1-1.9-.707,2.349,2.349,0,0,1-.738-1.77,2.279,2.279,0,0,1,.727-1.8,3.457,3.457,0,0,1,1.906-.789Zm5.3.984a4.148,4.148,0,0,0,.57,2.25,2,2,0,0,0,1.828.906,1.925,1.925,0,0,0,1.605-.84,3.966,3.966,0,0,0,.629-2.41,3.564,3.564,0,0,0-.648-2.348,2.023,2.023,0,0,0-1.6-.762,2.114,2.114,0,0,0-1.723.813A3.721,3.721,0,0,0,154.9,7.914Zm2.117-4.43a2.977,2.977,0,0,1,1.609.406,3.78,3.78,0,0,1,.852.82V.484h1.352V12h-1.266V10.836a3.042,3.042,0,0,1-1.164,1.117,3.332,3.332,0,0,1-1.539.344,3.117,3.117,0,0,1-2.422-1.176,4.6,4.6,0,0,1-1.023-3.129,5.4,5.4,0,0,1,.934-3.168A3.057,3.057,0,0,1,157.016,3.484ZM73.324,24.211a5.254,5.254,0,0,1,4.5,1.953,6.329,6.329,0,0,1,1.141,3.9,6.822,6.822,0,0,1-1.3,4.273,5.8,5.8,0,0,1-8.531.25,6.608,6.608,0,0,1-1.352-4.266,6.784,6.784,0,0,1,1.156-3.984A5.009,5.009,0,0,1,73.324,24.211Zm.156,10.734a3.237,3.237,0,0,0,2.973-1.473,6.268,6.268,0,0,0,.918-3.387,4.831,4.831,0,0,0-1.059-3.258,3.613,3.613,0,0,0-2.895-1.234,3.769,3.769,0,0,0-2.906,1.223,5.153,5.153,0,0,0-1.125,3.605,5.268,5.268,0,0,0,.965,3.215A3.629,3.629,0,0,0,73.48,34.945ZM80.52,24.484h1.367v4.164a3.064,3.064,0,0,1,2.492-1.234,3.26,3.26,0,0,1,2.535,1.074,4.576,4.576,0,0,1,.973,3.168,5.433,5.433,0,0,1-.961,3.3,3.117,3.117,0,0,1-2.664,1.313,2.73,2.73,0,0,1-1.609-.461,3.887,3.887,0,0,1-.836-.875V36h-1.3Zm3.656,10.539a1.879,1.879,0,0,0,1.707-.906,4.462,4.462,0,0,0,.566-2.391,3.924,3.924,0,0,0-.566-2.187,1.865,1.865,0,0,0-1.668-.867,2.327,2.327,0,0,0-1.684.711,3.193,3.193,0,0,0-.723,2.344,5.18,5.18,0,0,0,.3,1.914A2.051,2.051,0,0,0,84.176,35.023Zm6.758-8.875H89.527V24.523h1.406ZM88.2,38.117a2.8,2.8,0,0,0,1.137-.168q.191-.137.191-.855V27.672h1.406v9.57a2.525,2.525,0,0,1-.3,1.367,2.053,2.053,0,0,1-1.867.766q-.1,0-.215-.008t-.355-.031Zm8.367-10.672a3.817,3.817,0,0,1,1.727.418,3.184,3.184,0,0,1,1.273,1.082,3.733,3.733,0,0,1,.563,1.477,9.66,9.66,0,0,1,.125,1.844H94.121a3.579,3.579,0,0,0,.6,2.043,2.014,2.014,0,0,0,1.742.77,2.252,2.252,0,0,0,1.758-.727,2.449,2.449,0,0,0,.531-.977h1.383a2.912,2.912,0,0,1-.363,1.027,3.654,3.654,0,0,1-.691.926,3.277,3.277,0,0,1-1.586.844,4.818,4.818,0,0,1-1.148.125A3.524,3.524,0,0,1,93.7,35.16a4.423,4.423,0,0,1-1.086-3.184A4.809,4.809,0,0,1,93.707,28.7,3.608,3.608,0,0,1,96.566,27.445Zm2.242,3.7a3.643,3.643,0,0,0-.4-1.461,2.042,2.042,0,0,0-1.93-1.016,2.139,2.139,0,0,0-1.625.7,2.641,2.641,0,0,0-.7,1.777Zm3.453-5.852h1.422v2.336h1.336v1.148h-1.336v5.461a.591.591,0,0,0,.3.586,1.262,1.262,0,0,0,.547.086q.1,0,.219,0t.273-.02V36a3.139,3.139,0,0,1-.5.1,4.791,4.791,0,0,1-.566.031,1.527,1.527,0,0,1-1.336-.5,2.239,2.239,0,0,1-.352-1.309V28.781h-1.133V27.633h1.133Zm4.164,2.375h1.43V36h-1.43Zm0-3.148h1.43v1.594h-1.43Zm4.242,3.109,2.234,6.813,2.336-6.812h1.539L113.621,36h-1.5l-3.086-8.367Zm8.391,6.141a1.158,1.158,0,0,0,.445.961,1.651,1.651,0,0,0,1.055.352A3.207,3.207,0,0,0,122,34.742a1.935,1.935,0,0,0,1.172-1.867V31.742a2.406,2.406,0,0,1-.664.273,5.659,5.659,0,0,1-.8.156l-.852.109a3.257,3.257,0,0,0-1.148.32A1.248,1.248,0,0,0,119.059,33.773Zm3.406-2.844a.764.764,0,0,0,.648-.406,1.236,1.236,0,0,0,.094-.539,1.142,1.142,0,0,0-.512-1.043,2.745,2.745,0,0,0-1.465-.324,1.861,1.861,0,0,0-1.562.594,1.953,1.953,0,0,0-.336.977H118.02a2.416,2.416,0,0,1,1-2.152,4.122,4.122,0,0,1,2.238-.605,4.554,4.554,0,0,1,2.4.563,1.908,1.908,0,0,1,.914,1.75v4.82a.617.617,0,0,0,.09.352.433.433,0,0,0,.379.133q.094,0,.211-.012T125.5,35v1.039a3.916,3.916,0,0,1-.5.117,3.654,3.654,0,0,1-.469.023,1.157,1.157,0,0,1-1.055-.516,1.99,1.99,0,0,1-.242-.773,3.578,3.578,0,0,1-1.234.977,3.818,3.818,0,0,1-1.773.414,2.637,2.637,0,0,1-1.9-.707,2.349,2.349,0,0,1-.738-1.77,2.279,2.279,0,0,1,.727-1.8,3.457,3.457,0,0,1,1.906-.789Z" transform="translate(704 2699)" fill="#12263f"/>
    <path id="Trazado_661986" data-name="Trazado 661986" d="M102,0c56.333,0,102,45.891,102,102.5S158.333,205,102,205,0,159.109,0,102.5,45.667,0,102,0Z" transform="translate(698 2201)"/>
    <path id="Trazado_661987" data-name="Trazado 661987" d="M-80.02-12.911h9.413v1.582h-7.708v3.92h7.128v1.494h-7.128v4.377h7.84V0H-80.02Zm11.628,3.5h1.5v1.336a4.215,4.215,0,0,1,1.415-1.187,3.773,3.773,0,0,1,1.661-.36,2.739,2.739,0,0,1,2.707,1.4,4.962,4.962,0,0,1,.387,2.188V0h-1.608V-5.933a3.212,3.212,0,0,0-.255-1.389A1.545,1.545,0,0,0-64.112-8.2a3.114,3.114,0,0,0-.923.114,2.377,2.377,0,0,0-1.143.773,2.329,2.329,0,0,0-.514.962,6.478,6.478,0,0,0-.119,1.419V0h-1.582Zm10.406-1.433a2.821,2.821,0,0,1,.343-1.441,2.423,2.423,0,0,1,2.136-.809q.149,0,.308.009t.36.026v1.441q-.246-.018-.356-.022t-.207,0q-.721,0-.861.374a7.385,7.385,0,0,0-.141,1.9h1.564v1.248h-1.582V0h-1.564V-8.121H-59.3V-9.369h1.31Zm8.341,9.826A2.182,2.182,0,0,0-47.487-2.21,5.933,5.933,0,0,0-46.9-4.86,4.718,4.718,0,0,0-47.325-7a2.373,2.373,0,0,0-2.3-1.3A2.271,2.271,0,0,0-51.737-7.2,5.133,5.133,0,0,0-52.4-4.526a4.465,4.465,0,0,0,.659,2.5A2.322,2.322,0,0,0-49.645-1.02Zm.062-8.666a4.262,4.262,0,0,1,3.076,1.213A4.736,4.736,0,0,1-45.25-4.9a6.122,6.122,0,0,1-1.107,3.762A4.006,4.006,0,0,1-49.794.343,3.88,3.88,0,0,1-52.879-.971,5.19,5.19,0,0,1-54.022-4.5a5.615,5.615,0,0,1,1.2-3.779A4.041,4.041,0,0,1-49.583-9.686Zm7.233,5.106a5.361,5.361,0,0,0,.343,2.048,2.178,2.178,0,0,0,2.171,1.468A2.271,2.271,0,0,0-37.56-2.61a5.9,5.9,0,0,0,.343-2.18A4.855,4.855,0,0,0-37.6-6.829a2.285,2.285,0,0,0-2.259-1.4,2.214,2.214,0,0,0-1.762.892A4.289,4.289,0,0,0-42.35-4.579Zm2.338-5.045a3.229,3.229,0,0,1,1.969.589A3.492,3.492,0,0,1-37.2-8.1v-1.31h1.5V3.753h-1.591V-1.081A2.839,2.839,0,0,1-38.382-.075,3.67,3.67,0,0,1-40.126.3,3.722,3.722,0,0,1-42.816-.879,4.856,4.856,0,0,1-44-4.465a5.922,5.922,0,0,1,1.112-3.709A3.466,3.466,0,0,1-40.012-9.624Zm8.235.211v6.249a2.635,2.635,0,0,0,.229,1.178,1.6,1.6,0,0,0,1.573.844,2.224,2.224,0,0,0,2.25-1.477A5.858,5.858,0,0,0-27.4-4.79V-9.413h1.582V0h-1.494l.018-1.389a3.191,3.191,0,0,1-.765.905,3.365,3.365,0,0,1-2.2.738A2.834,2.834,0,0,1-33-1.09a4,4,0,0,1-.4-1.925v-6.4Zm12.349-.211a4.294,4.294,0,0,1,1.942.47,3.582,3.582,0,0,1,1.433,1.217,4.2,4.2,0,0,1,.633,1.661A10.868,10.868,0,0,1-15.28-4.2h-6.9A4.026,4.026,0,0,0-21.5-1.9a2.266,2.266,0,0,0,1.96.866,2.534,2.534,0,0,0,1.978-.817,2.755,2.755,0,0,0,.6-1.1h1.556A3.276,3.276,0,0,1-15.82-1.8,4.111,4.111,0,0,1-16.6-.756a3.687,3.687,0,0,1-1.784.949,5.42,5.42,0,0,1-1.292.141A3.964,3.964,0,0,1-22.654-.945a4.976,4.976,0,0,1-1.222-3.582,5.41,5.41,0,0,1,1.23-3.683A4.059,4.059,0,0,1-19.428-9.624Zm2.522,4.166A4.1,4.1,0,0,0-17.354-7.1a2.3,2.3,0,0,0-2.171-1.143,2.406,2.406,0,0,0-1.828.787,2.972,2.972,0,0,0-.782,2Zm12.2-4.228a4.1,4.1,0,0,1,2.588.773,3.705,3.705,0,0,1,1.2,2.663H-2.457A2.839,2.839,0,0,0-3.1-7.695a2.027,2.027,0,0,0-1.608-.576A2.222,2.222,0,0,0-6.869-6.794,5.865,5.865,0,0,0-7.291-4.43a4.449,4.449,0,0,0,.6,2.382,2.05,2.05,0,0,0,1.881.967,2.057,2.057,0,0,0,1.56-.6,3.311,3.311,0,0,0,.8-1.648H-.918A4.129,4.129,0,0,1-2.237-.593a4.113,4.113,0,0,1-2.7.866A3.6,3.6,0,0,1-7.879-1.077a5.164,5.164,0,0,1-1.1-3.371,5.678,5.678,0,0,1,1.2-3.858A3.891,3.891,0,0,1-4.707-9.686Zm6.952.272v6.249a2.635,2.635,0,0,0,.229,1.178,1.6,1.6,0,0,0,1.573.844A2.224,2.224,0,0,0,6.3-2.619,5.858,5.858,0,0,0,6.623-4.79V-9.413H8.2V0H6.71l.018-1.389a3.191,3.191,0,0,1-.765.905,3.365,3.365,0,0,1-2.2.738A2.834,2.834,0,0,1,1.024-1.09a4,4,0,0,1-.4-1.925v-6.4ZM11.887-2.5a1.3,1.3,0,0,0,.5,1.081,1.857,1.857,0,0,0,1.187.4,3.608,3.608,0,0,0,1.617-.387,2.176,2.176,0,0,0,1.318-2.1V-4.79a2.707,2.707,0,0,1-.747.308,6.366,6.366,0,0,1-.9.176l-.958.123a3.664,3.664,0,0,0-1.292.36A1.4,1.4,0,0,0,11.887-2.5Zm3.832-3.2a.859.859,0,0,0,.729-.457,1.391,1.391,0,0,0,.105-.606,1.285,1.285,0,0,0-.576-1.173,3.089,3.089,0,0,0-1.648-.365,2.094,2.094,0,0,0-1.758.668,2.2,2.2,0,0,0-.378,1.1H10.718A2.718,2.718,0,0,1,11.848-8.96a4.637,4.637,0,0,1,2.518-.681,5.124,5.124,0,0,1,2.7.633A2.147,2.147,0,0,1,18.092-7.04v5.423a.694.694,0,0,0,.1.4.487.487,0,0,0,.426.149q.105,0,.237-.013t.281-.04V.044a4.406,4.406,0,0,1-.562.132A4.111,4.111,0,0,1,18.048.2a1.3,1.3,0,0,1-1.187-.58,2.239,2.239,0,0,1-.272-.87A4.025,4.025,0,0,1,15.2-.149a4.3,4.3,0,0,1-2,.466,2.967,2.967,0,0,1-2.14-.8,2.642,2.642,0,0,1-.831-1.991,2.564,2.564,0,0,1,.817-2.03A3.889,3.889,0,0,1,13.2-5.388Zm4.966-3.709h1.5v1.336A4.215,4.215,0,0,1,23.6-9.264a3.773,3.773,0,0,1,1.661-.36,2.739,2.739,0,0,1,2.707,1.4,4.962,4.962,0,0,1,.387,2.188V0H26.75V-5.933a3.212,3.212,0,0,0-.255-1.389A1.545,1.545,0,0,0,24.965-8.2a3.114,3.114,0,0,0-.923.114,2.377,2.377,0,0,0-1.143.773,2.329,2.329,0,0,0-.514.962,6.478,6.478,0,0,0-.119,1.419V0H20.685Zm10.327-2.628h1.6v2.628h1.5v1.292h-1.5v6.144a.665.665,0,0,0,.334.659,1.42,1.42,0,0,0,.615.1q.114,0,.246,0t.308-.022V0a3.532,3.532,0,0,1-.567.114,5.39,5.39,0,0,1-.637.035,1.717,1.717,0,0,1-1.5-.567,2.519,2.519,0,0,1-.4-1.472V-8.121H29.738V-9.413h1.274ZM35.7-9.369h1.608V0H35.7Zm0-3.542h1.608v1.793H35.7Zm4.315.87h1.6v2.628h1.5v1.292h-1.5v6.144a.665.665,0,0,0,.334.659,1.42,1.42,0,0,0,.615.1q.114,0,.246,0t.308-.022V0a3.532,3.532,0,0,1-.567.114,5.39,5.39,0,0,1-.637.035,1.717,1.717,0,0,1-1.5-.567,2.519,2.519,0,0,1-.4-1.472V-8.121H38.738V-9.413h1.274ZM45.91-2.5a1.3,1.3,0,0,0,.5,1.081,1.857,1.857,0,0,0,1.187.4,3.608,3.608,0,0,0,1.617-.387,2.176,2.176,0,0,0,1.318-2.1V-4.79a2.707,2.707,0,0,1-.747.308,6.366,6.366,0,0,1-.9.176l-.958.123a3.664,3.664,0,0,0-1.292.36A1.4,1.4,0,0,0,45.91-2.5Zm3.832-3.2a.859.859,0,0,0,.729-.457,1.391,1.391,0,0,0,.105-.606A1.285,1.285,0,0,0,50-7.941a3.089,3.089,0,0,0-1.648-.365,2.094,2.094,0,0,0-1.758.668,2.2,2.2,0,0,0-.378,1.1H44.741A2.718,2.718,0,0,1,45.87-8.96a4.637,4.637,0,0,1,2.518-.681,5.124,5.124,0,0,1,2.7.633A2.147,2.147,0,0,1,52.115-7.04v5.423a.694.694,0,0,0,.1.4.487.487,0,0,0,.426.149q.105,0,.237-.013t.281-.04V.044A4.406,4.406,0,0,1,52.6.176,4.111,4.111,0,0,1,52.071.2a1.3,1.3,0,0,1-1.187-.58,2.239,2.239,0,0,1-.272-.87,4.025,4.025,0,0,1-1.389,1.1,4.3,4.3,0,0,1-2,.466,2.967,2.967,0,0,1-2.14-.8,2.642,2.642,0,0,1-.831-1.991,2.564,2.564,0,0,1,.817-2.03,3.889,3.889,0,0,1,2.145-.888Zm5.282-6.337h1.6v2.628h1.5v1.292h-1.5v6.144a.665.665,0,0,0,.334.659,1.42,1.42,0,0,0,.615.1q.114,0,.246,0t.308-.022V0a3.532,3.532,0,0,1-.567.114,5.39,5.39,0,0,1-.637.035,1.717,1.717,0,0,1-1.5-.567,2.519,2.519,0,0,1-.4-1.472V-8.121H53.75V-9.413h1.274Zm4.685,2.672h1.608V0H59.708Zm0-3.542h1.608v1.793H59.708Zm4.772,3.5,2.514,7.664,2.628-7.664h1.731L67.8,0H66.116L62.644-9.413ZM76.443-1.02A2.182,2.182,0,0,0,78.6-2.21a5.933,5.933,0,0,0,.584-2.65A4.718,4.718,0,0,0,78.763-7a2.373,2.373,0,0,0-2.3-1.3A2.271,2.271,0,0,0,74.351-7.2a5.133,5.133,0,0,0-.659,2.672,4.465,4.465,0,0,0,.659,2.5A2.322,2.322,0,0,0,76.443-1.02ZM76.5-9.686a4.262,4.262,0,0,1,3.076,1.213A4.736,4.736,0,0,1,80.837-4.9,6.122,6.122,0,0,1,79.73-1.143,4.006,4.006,0,0,1,76.293.343,3.88,3.88,0,0,1,73.208-.971,5.19,5.19,0,0,1,72.066-4.5a5.615,5.615,0,0,1,1.2-3.779A4.041,4.041,0,0,1,76.5-9.686Z" transform="translate(798 2310)" fill="#ffd817"/>
    <path id="Trazado_661988" data-name="Trazado 661988" d="M10,0H223a10,10,0,0,1,10,10V37a10,10,0,0,1-10,10H10A10,10,0,0,1,0,37V10A10,10,0,0,1,10,0Z" transform="translate(475 2061)" fill="#ffe251"/>
    <path id="Trazado_661989" data-name="Trazado 661989" d="M10,0H223a10,10,0,0,1,10,10V38a10,10,0,0,1-10,10H10A10,10,0,0,1,0,38V10A10,10,0,0,1,10,0Z" transform="translate(478 2139)" fill="#ffe251"/>
    <path id="Trazado_661990" data-name="Trazado 661990" d="M10,0H224a10,10,0,0,1,10,10V37a10,10,0,0,1-10,10H10A10,10,0,0,1,0,37V10A10,10,0,0,1,10,0Z" transform="translate(892 2061)" fill="#ffe251"/>
    <path id="Trazado_661991" data-name="Trazado 661991" d="M10,0H224a10,10,0,0,1,10,10V38a10,10,0,0,1-10,10H10A10,10,0,0,1,0,38V10A10,10,0,0,1,10,0Z" transform="translate(889 2139)" fill="#ffe251"/>
    <path id="Trazado_661992" data-name="Trazado 661992" d="M44.715.523V7.617A4.173,4.173,0,0,0,45.184,9.7a2.463,2.463,0,0,0,2.344,1.25,2.753,2.753,0,0,0,2.688-1.352A4.3,4.3,0,0,0,50.6,7.617V.523h1.578V6.969a7.457,7.457,0,0,1-.57,3.258Q50.559,12.3,47.652,12.3t-3.945-2.078a7.457,7.457,0,0,1-.57-3.258V.523ZM55.23,9.375a2.045,2.045,0,0,0,.352,1.078,2.209,2.209,0,0,0,1.844.68,2.719,2.719,0,0,0,1.375-.34,1.129,1.129,0,0,0,.594-1.051.9.9,0,0,0-.477-.82,5.666,5.666,0,0,0-1.2-.4L56.6,8.242a5.45,5.45,0,0,1-1.578-.594,1.775,1.775,0,0,1-.906-1.578,2.411,2.411,0,0,1,.855-1.922,3.413,3.413,0,0,1,2.3-.734A3.194,3.194,0,0,1,60,4.523,2.407,2.407,0,0,1,60.5,6.039H59.176a1.627,1.627,0,0,0-.336-.867,2.143,2.143,0,0,0-1.68-.555,2.008,2.008,0,0,0-1.207.3.955.955,0,0,0-.41.8.991.991,0,0,0,.539.875A3.239,3.239,0,0,0,57,6.945l.93.227a7.188,7.188,0,0,1,2.031.711,1.882,1.882,0,0,1,.82,1.7,2.584,2.584,0,0,1-.848,1.93,3.608,3.608,0,0,1-2.582.813,3.464,3.464,0,0,1-2.645-.848,3.206,3.206,0,0,1-.832-2.1Zm8.242.4a1.158,1.158,0,0,0,.445.961,1.651,1.651,0,0,0,1.055.352,3.207,3.207,0,0,0,1.438-.344,1.935,1.935,0,0,0,1.172-1.867V7.742a2.406,2.406,0,0,1-.664.273,5.659,5.659,0,0,1-.8.156l-.852.109a3.257,3.257,0,0,0-1.148.32A1.248,1.248,0,0,0,63.473,9.773ZM66.879,6.93a.764.764,0,0,0,.648-.406,1.236,1.236,0,0,0,.094-.539,1.142,1.142,0,0,0-.512-1.043,2.745,2.745,0,0,0-1.465-.324,1.861,1.861,0,0,0-1.562.594,1.953,1.953,0,0,0-.336.977H62.434a2.416,2.416,0,0,1,1-2.152,4.122,4.122,0,0,1,2.238-.605,4.554,4.554,0,0,1,2.4.563,1.908,1.908,0,0,1,.914,1.75v4.82a.617.617,0,0,0,.09.352.433.433,0,0,0,.379.133q.094,0,.211-.012t.25-.035v1.039a3.916,3.916,0,0,1-.5.117,3.654,3.654,0,0,1-.469.023,1.157,1.157,0,0,1-1.055-.516,1.99,1.99,0,0,1-.242-.773,3.578,3.578,0,0,1-1.234.977,3.818,3.818,0,0,1-1.773.414,2.637,2.637,0,0,1-1.9-.707A2.349,2.349,0,0,1,62,9.8,2.279,2.279,0,0,1,62.73,8a3.457,3.457,0,0,1,1.906-.789ZM79.223,3.445a3.817,3.817,0,0,1,1.727.418,3.184,3.184,0,0,1,1.273,1.082,3.733,3.733,0,0,1,.563,1.477,9.66,9.66,0,0,1,.125,1.844H76.777a3.579,3.579,0,0,0,.6,2.043,2.014,2.014,0,0,0,1.742.77,2.252,2.252,0,0,0,1.758-.727,2.449,2.449,0,0,0,.531-.977h1.383A2.912,2.912,0,0,1,82.43,10.4a3.654,3.654,0,0,1-.691.926,3.277,3.277,0,0,1-1.586.844A4.818,4.818,0,0,1,79,12.3a3.524,3.524,0,0,1-2.648-1.137A4.423,4.423,0,0,1,75.27,7.977,4.809,4.809,0,0,1,76.363,4.7,3.608,3.608,0,0,1,79.223,3.445Zm2.242,3.7a3.643,3.643,0,0,0-.4-1.461,2.042,2.042,0,0,0-1.93-1.016,2.139,2.139,0,0,0-1.625.7,2.641,2.641,0,0,0-.7,1.777Zm4.008,2.227a2.045,2.045,0,0,0,.352,1.078,2.209,2.209,0,0,0,1.844.68,2.719,2.719,0,0,0,1.375-.34,1.129,1.129,0,0,0,.594-1.051.9.9,0,0,0-.477-.82,5.666,5.666,0,0,0-1.2-.4L86.84,8.242a5.45,5.45,0,0,1-1.578-.594,1.775,1.775,0,0,1-.906-1.578,2.411,2.411,0,0,1,.855-1.922,3.413,3.413,0,0,1,2.3-.734,3.194,3.194,0,0,1,2.727,1.109,2.407,2.407,0,0,1,.508,1.516H89.418a1.627,1.627,0,0,0-.336-.867,2.143,2.143,0,0,0-1.68-.555,2.008,2.008,0,0,0-1.207.3.955.955,0,0,0-.41.8.991.991,0,0,0,.539.875,3.239,3.239,0,0,0,.922.344l.93.227a7.188,7.188,0,0,1,2.031.711,1.882,1.882,0,0,1,.82,1.7,2.584,2.584,0,0,1-.848,1.93,3.608,3.608,0,0,1-2.582.813,3.464,3.464,0,0,1-2.645-.848,3.206,3.206,0,0,1-.832-2.1ZM92.918,1.3H94.34V3.633h1.336V4.781H94.34v5.461a.591.591,0,0,0,.3.586,1.262,1.262,0,0,0,.547.086q.1,0,.219,0t.273-.02V12a3.139,3.139,0,0,1-.5.1,4.791,4.791,0,0,1-.566.031,1.527,1.527,0,0,1-1.336-.5,2.239,2.239,0,0,1-.352-1.309V4.781H91.785V3.633h1.133ZM98.16,9.773a1.158,1.158,0,0,0,.445.961,1.651,1.651,0,0,0,1.055.352,3.207,3.207,0,0,0,1.438-.344,1.935,1.935,0,0,0,1.172-1.867V7.742a2.406,2.406,0,0,1-.664.273,5.659,5.659,0,0,1-.8.156l-.852.109a3.257,3.257,0,0,0-1.148.32A1.248,1.248,0,0,0,98.16,9.773Zm3.406-2.844a.764.764,0,0,0,.648-.406,1.236,1.236,0,0,0,.094-.539,1.142,1.142,0,0,0-.512-1.043,2.745,2.745,0,0,0-1.465-.324,1.861,1.861,0,0,0-1.562.594,1.953,1.953,0,0,0-.336.977H97.121a2.416,2.416,0,0,1,1-2.152,4.122,4.122,0,0,1,2.238-.605,4.554,4.554,0,0,1,2.4.563,1.908,1.908,0,0,1,.914,1.75v4.82a.617.617,0,0,0,.09.352.433.433,0,0,0,.379.133q.094,0,.211-.012t.25-.035v1.039a3.916,3.916,0,0,1-.5.117,3.654,3.654,0,0,1-.469.023,1.157,1.157,0,0,1-1.055-.516,1.99,1.99,0,0,1-.242-.773,3.578,3.578,0,0,1-1.234.977,3.818,3.818,0,0,1-1.773.414,2.637,2.637,0,0,1-1.9-.707,2.349,2.349,0,0,1-.738-1.77A2.279,2.279,0,0,1,97.418,8a3.457,3.457,0,0,1,1.906-.789Zm5.3.984a4.147,4.147,0,0,0,.57,2.25,2,2,0,0,0,1.828.906,1.925,1.925,0,0,0,1.605-.84,3.966,3.966,0,0,0,.629-2.41,3.564,3.564,0,0,0-.648-2.348,2.023,2.023,0,0,0-1.6-.762,2.114,2.114,0,0,0-1.723.813A3.721,3.721,0,0,0,106.871,7.914Zm2.117-4.43a2.977,2.977,0,0,1,1.609.406,3.78,3.78,0,0,1,.852.82V.484H112.8V12h-1.266V10.836a3.043,3.043,0,0,1-1.164,1.117,3.332,3.332,0,0,1-1.539.344,3.117,3.117,0,0,1-2.422-1.176,4.6,4.6,0,0,1-1.023-3.129,5.4,5.4,0,0,1,.934-3.168A3.057,3.057,0,0,1,108.988,3.484Zm6.336.188h1.43V12h-1.43ZM117.816.266,115.73,2.523h-1.078l1.43-2.258Zm2.344,9.109a2.045,2.045,0,0,0,.352,1.078,2.209,2.209,0,0,0,1.844.68,2.719,2.719,0,0,0,1.375-.34,1.129,1.129,0,0,0,.594-1.051.9.9,0,0,0-.477-.82,5.666,5.666,0,0,0-1.2-.4l-1.117-.281a5.45,5.45,0,0,1-1.578-.594,1.775,1.775,0,0,1-.906-1.578,2.411,2.411,0,0,1,.855-1.922,3.413,3.413,0,0,1,2.3-.734,3.194,3.194,0,0,1,2.727,1.109,2.407,2.407,0,0,1,.508,1.516h-1.328a1.627,1.627,0,0,0-.336-.867,2.143,2.143,0,0,0-1.68-.555,2.008,2.008,0,0,0-1.207.3.955.955,0,0,0-.41.8.991.991,0,0,0,.539.875,3.239,3.239,0,0,0,.922.344l.93.227a7.188,7.188,0,0,1,2.031.711,1.882,1.882,0,0,1,.82,1.7,2.584,2.584,0,0,1-.848,1.93,3.608,3.608,0,0,1-2.582.813,3.464,3.464,0,0,1-2.645-.848,3.206,3.206,0,0,1-.832-2.1ZM127.605,1.3h1.422V3.633h1.336V4.781h-1.336v5.461a.591.591,0,0,0,.3.586,1.262,1.262,0,0,0,.547.086q.1,0,.219,0t.273-.02V12a3.139,3.139,0,0,1-.5.1,4.791,4.791,0,0,1-.566.031,1.527,1.527,0,0,1-1.336-.5,2.239,2.239,0,0,1-.352-1.309V4.781h-1.133V3.633h1.133Zm4.164,2.375h1.43V12h-1.43Zm0-3.148h1.43V2.117h-1.43Zm6.781,2.867a3.648,3.648,0,0,1,2.3.688,3.294,3.294,0,0,1,1.066,2.367h-1.367a2.524,2.524,0,0,0-.57-1.285,1.8,1.8,0,0,0-1.43-.512,1.975,1.975,0,0,0-1.922,1.313,5.214,5.214,0,0,0-.375,2.1,3.955,3.955,0,0,0,.531,2.117,2.06,2.06,0,0,0,3.059.324,2.943,2.943,0,0,0,.707-1.465h1.367a3.67,3.67,0,0,1-1.172,2.434,3.656,3.656,0,0,1-2.4.77,3.2,3.2,0,0,1-2.617-1.2,4.59,4.59,0,0,1-.977-3,5.047,5.047,0,0,1,1.07-3.43A3.459,3.459,0,0,1,138.551,3.391ZM144.4,9.773a1.158,1.158,0,0,0,.445.961,1.651,1.651,0,0,0,1.055.352,3.207,3.207,0,0,0,1.438-.344,1.935,1.935,0,0,0,1.172-1.867V7.742a2.406,2.406,0,0,1-.664.273,5.658,5.658,0,0,1-.8.156l-.852.109a3.257,3.257,0,0,0-1.148.32A1.248,1.248,0,0,0,144.4,9.773Zm3.406-2.844a.764.764,0,0,0,.648-.406,1.236,1.236,0,0,0,.094-.539,1.142,1.142,0,0,0-.512-1.043,2.745,2.745,0,0,0-1.465-.324,1.861,1.861,0,0,0-1.562.594,1.953,1.953,0,0,0-.336.977h-1.312a2.416,2.416,0,0,1,1-2.152,4.122,4.122,0,0,1,2.238-.605,4.554,4.554,0,0,1,2.4.563,1.908,1.908,0,0,1,.914,1.75v4.82a.617.617,0,0,0,.09.352.433.433,0,0,0,.379.133q.094,0,.211-.012t.25-.035v1.039a3.917,3.917,0,0,1-.5.117,3.654,3.654,0,0,1-.469.023,1.157,1.157,0,0,1-1.055-.516,1.99,1.99,0,0,1-.242-.773,3.578,3.578,0,0,1-1.234.977,3.818,3.818,0,0,1-1.773.414,2.637,2.637,0,0,1-1.9-.707,2.349,2.349,0,0,1-.738-1.77A2.279,2.279,0,0,1,143.66,8a3.457,3.457,0,0,1,1.906-.789Z" transform="translate(495 2075)" fill="#12263f"/>
    <path id="Trazado_661993" data-name="Trazado 661993" d="M38.535.523h2.227l3.3,9.7,3.273-9.7h2.2V12H48.059V5.227q0-.352.016-1.164T48.09,2.32L44.816,12H43.277l-3.3-9.68v.352q0,.422.02,1.285t.02,1.27V12H38.535Zm13.18,3.148h1.43V12h-1.43Zm0-3.148h1.43V2.117h-1.43ZM56.16,7.914a4.148,4.148,0,0,0,.57,2.25,2,2,0,0,0,1.828.906,1.925,1.925,0,0,0,1.605-.84,3.966,3.966,0,0,0,.629-2.41,3.564,3.564,0,0,0-.648-2.348,2.023,2.023,0,0,0-1.6-.762,2.114,2.114,0,0,0-1.723.813A3.721,3.721,0,0,0,56.16,7.914Zm2.117-4.43a2.977,2.977,0,0,1,1.609.406,3.78,3.78,0,0,1,.852.82V.484H62.09V12H60.824V10.836a3.043,3.043,0,0,1-1.164,1.117,3.332,3.332,0,0,1-1.539.344A3.117,3.117,0,0,1,55.7,11.121a4.6,4.6,0,0,1-1.023-3.129,5.4,5.4,0,0,1,.934-3.168A3.057,3.057,0,0,1,58.277,3.484Zm9.375-.039a3.817,3.817,0,0,1,1.727.418,3.184,3.184,0,0,1,1.273,1.082,3.733,3.733,0,0,1,.563,1.477,9.66,9.66,0,0,1,.125,1.844H65.207a3.579,3.579,0,0,0,.6,2.043,2.014,2.014,0,0,0,1.742.77,2.252,2.252,0,0,0,1.758-.727,2.449,2.449,0,0,0,.531-.977h1.383a2.912,2.912,0,0,1-.363,1.027,3.654,3.654,0,0,1-.691.926,3.277,3.277,0,0,1-1.586.844,4.818,4.818,0,0,1-1.148.125,3.524,3.524,0,0,1-2.648-1.137A4.423,4.423,0,0,1,63.7,7.977,4.809,4.809,0,0,1,64.793,4.7,3.608,3.608,0,0,1,67.652,3.445Zm2.242,3.7a3.643,3.643,0,0,0-.4-1.461,2.042,2.042,0,0,0-1.93-1.016,2.139,2.139,0,0,0-1.625.7,2.641,2.641,0,0,0-.7,1.777Zm7.969-4.789a2.507,2.507,0,0,1,.3-1.281,2.153,2.153,0,0,1,1.9-.719q.133,0,.273.008t.32.023V1.672q-.219-.016-.316-.02t-.184,0q-.641,0-.766.332a6.564,6.564,0,0,0-.125,1.691H80.66V4.781H79.254V12H77.863V4.781H76.7V3.672h1.164Zm7.578,1.086a3.817,3.817,0,0,1,1.727.418,3.184,3.184,0,0,1,1.273,1.082A3.733,3.733,0,0,1,89,6.422a9.66,9.66,0,0,1,.125,1.844H83a3.579,3.579,0,0,0,.6,2.043,2.014,2.014,0,0,0,1.742.77,2.252,2.252,0,0,0,1.758-.727,2.449,2.449,0,0,0,.531-.977h1.383a2.912,2.912,0,0,1-.363,1.027,3.654,3.654,0,0,1-.691.926,3.277,3.277,0,0,1-1.586.844,4.818,4.818,0,0,1-1.148.125,3.524,3.524,0,0,1-2.648-1.137,4.423,4.423,0,0,1-1.086-3.184A4.809,4.809,0,0,1,82.582,4.7,3.608,3.608,0,0,1,85.441,3.445Zm2.242,3.7a3.643,3.643,0,0,0-.4-1.461,2.042,2.042,0,0,0-1.93-1.016,2.139,2.139,0,0,0-1.625.7,2.641,2.641,0,0,0-.7,1.777Zm3.172-3.516h1.336V4.82a3.747,3.747,0,0,1,1.258-1.055,3.354,3.354,0,0,1,1.477-.32,2.435,2.435,0,0,1,2.406,1.242,4.411,4.411,0,0,1,.344,1.945V12h-1.43V6.727a2.856,2.856,0,0,0-.227-1.234,1.374,1.374,0,0,0-1.359-.781,2.768,2.768,0,0,0-.82.1,2.113,2.113,0,0,0-1.016.688,2.07,2.07,0,0,0-.457.855,5.758,5.758,0,0,0-.105,1.262V12H90.855Zm12.219,7.461a1.939,1.939,0,0,0,1.918-1.059,5.274,5.274,0,0,0,.52-2.355,4.194,4.194,0,0,0-.375-1.906,2.11,2.11,0,0,0-2.047-1.156,2.018,2.018,0,0,0-1.875.984,4.563,4.563,0,0,0-.586,2.375,3.969,3.969,0,0,0,.586,2.227A2.064,2.064,0,0,0,103.074,11.094Zm.055-7.7a3.789,3.789,0,0,1,2.734,1.078,4.21,4.21,0,0,1,1.117,3.172A5.442,5.442,0,0,1,106,10.984a3.561,3.561,0,0,1-3.055,1.32,3.449,3.449,0,0,1-2.742-1.168A4.613,4.613,0,0,1,99.184,8a4.991,4.991,0,0,1,1.07-3.359A3.592,3.592,0,0,1,103.129,3.391ZM104.762.266l-2.086,2.258H101.6l1.43-2.258Zm3.891,3.367h1.391V4.82a4.674,4.674,0,0,1,.906-.9,2.726,2.726,0,0,1,1.578-.477,2.484,2.484,0,0,1,1.609.492,2.573,2.573,0,0,1,.625.828,3.039,3.039,0,0,1,1.1-1,3.073,3.073,0,0,1,1.422-.324,2.325,2.325,0,0,1,2.3,1.219,3.984,3.984,0,0,1,.328,1.766V12h-1.461V6.188a1.354,1.354,0,0,0-.418-1.148,1.654,1.654,0,0,0-1.02-.312,2.024,2.024,0,0,0-1.426.555,2.436,2.436,0,0,0-.6,1.852V12h-1.43V6.539a2.837,2.837,0,0,0-.2-1.242,1.239,1.239,0,0,0-1.2-.586,2.062,2.062,0,0,0-1.449.617,3.025,3.025,0,0,0-.652,2.234V12h-1.406Zm16.813-.187a3.817,3.817,0,0,1,1.727.418,3.184,3.184,0,0,1,1.273,1.082,3.733,3.733,0,0,1,.563,1.477,9.661,9.661,0,0,1,.125,1.844H123.02a3.579,3.579,0,0,0,.6,2.043,2.014,2.014,0,0,0,1.742.77,2.252,2.252,0,0,0,1.758-.727,2.449,2.449,0,0,0,.531-.977h1.383a2.912,2.912,0,0,1-.363,1.027,3.654,3.654,0,0,1-.691.926,3.277,3.277,0,0,1-1.586.844,4.818,4.818,0,0,1-1.148.125A3.524,3.524,0,0,1,122.6,11.16a4.423,4.423,0,0,1-1.086-3.184A4.809,4.809,0,0,1,122.605,4.7,3.608,3.608,0,0,1,125.465,3.445Zm2.242,3.7a3.643,3.643,0,0,0-.4-1.461,2.042,2.042,0,0,0-1.93-1.016,2.139,2.139,0,0,0-1.625.7,2.641,2.641,0,0,0-.7,1.777Zm3.172-3.516h1.336V4.82a3.747,3.747,0,0,1,1.258-1.055,3.354,3.354,0,0,1,1.477-.32,2.435,2.435,0,0,1,2.406,1.242,4.411,4.411,0,0,1,.344,1.945V12h-1.43V6.727a2.855,2.855,0,0,0-.227-1.234,1.374,1.374,0,0,0-1.359-.781,2.768,2.768,0,0,0-.82.1,2.113,2.113,0,0,0-1.016.688,2.07,2.07,0,0,0-.457.855,5.758,5.758,0,0,0-.105,1.262V12h-1.406ZM143.1,11.094a1.939,1.939,0,0,0,1.918-1.059,5.274,5.274,0,0,0,.52-2.355,4.194,4.194,0,0,0-.375-1.906,2.11,2.11,0,0,0-2.047-1.156,2.018,2.018,0,0,0-1.875.984,4.563,4.563,0,0,0-.586,2.375,3.969,3.969,0,0,0,.586,2.227A2.064,2.064,0,0,0,143.1,11.094Zm.055-7.7a3.789,3.789,0,0,1,2.734,1.078A4.21,4.21,0,0,1,147,7.641a5.442,5.442,0,0,1-.984,3.344,3.561,3.561,0,0,1-3.055,1.32,3.449,3.449,0,0,1-2.742-1.168A4.613,4.613,0,0,1,139.207,8a4.991,4.991,0,0,1,1.07-3.359A3.592,3.592,0,0,1,143.152,3.391Zm6.359,5.984a2.045,2.045,0,0,0,.352,1.078,2.209,2.209,0,0,0,1.844.68,2.719,2.719,0,0,0,1.375-.34,1.129,1.129,0,0,0,.594-1.051.9.9,0,0,0-.477-.82,5.666,5.666,0,0,0-1.2-.4l-1.117-.281a5.45,5.45,0,0,1-1.578-.594,1.775,1.775,0,0,1-.906-1.578,2.411,2.411,0,0,1,.855-1.922,3.413,3.413,0,0,1,2.3-.734,3.194,3.194,0,0,1,2.727,1.109,2.407,2.407,0,0,1,.508,1.516h-1.328a1.627,1.627,0,0,0-.336-.867,2.143,2.143,0,0,0-1.68-.555,2.008,2.008,0,0,0-1.207.3.955.955,0,0,0-.41.8.991.991,0,0,0,.539.875,3.239,3.239,0,0,0,.922.344l.93.227a7.188,7.188,0,0,1,2.031.711,1.882,1.882,0,0,1,.82,1.7,2.584,2.584,0,0,1-.848,1.93,3.608,3.608,0,0,1-2.582.813,3.464,3.464,0,0,1-2.645-.848,3.206,3.206,0,0,1-.832-2.1Z" transform="translate(498 2154)" fill="#12263f"/>
    <path id="Trazado_661994" data-name="Trazado 661994" d="M38.273.523h5.164a3.5,3.5,0,0,1,2.469.863,3.133,3.133,0,0,1,.938,2.426,3.527,3.527,0,0,1-.836,2.34,3.167,3.167,0,0,1-2.57,1H39.828V12H38.273Zm7,3.3A1.727,1.727,0,0,0,44.336,2.1a3.385,3.385,0,0,0-1.414-.242H39.828V5.836h3.094a2.957,2.957,0,0,0,1.7-.445A1.765,1.765,0,0,0,45.273,3.82Zm3.375-.187h1.336V5.078a3.193,3.193,0,0,1,.8-1.027,2.086,2.086,0,0,1,1.477-.605q.039,0,.133.008l.32.031V4.969a2.1,2.1,0,0,0-.23-.031q-.105-.008-.23-.008a2.007,2.007,0,0,0-1.633.684,2.386,2.386,0,0,0-.57,1.574V12H48.648Zm6.7,0V9.188a2.342,2.342,0,0,0,.2,1.047,1.417,1.417,0,0,0,1.4.75,1.977,1.977,0,0,0,2-1.312,5.207,5.207,0,0,0,.289-1.93V3.633h1.406V12H59.313l.016-1.234a2.837,2.837,0,0,1-.68.8,2.991,2.991,0,0,1-1.953.656,2.519,2.519,0,0,1-2.437-1.2,3.56,3.56,0,0,1-.352-1.711V3.633ZM66.32,3.445a3.817,3.817,0,0,1,1.727.418A3.184,3.184,0,0,1,69.32,4.945a3.733,3.733,0,0,1,.563,1.477,9.66,9.66,0,0,1,.125,1.844H63.875a3.579,3.579,0,0,0,.6,2.043,2.014,2.014,0,0,0,1.742.77,2.252,2.252,0,0,0,1.758-.727,2.449,2.449,0,0,0,.531-.977h1.383a2.912,2.912,0,0,1-.363,1.027,3.654,3.654,0,0,1-.691.926,3.277,3.277,0,0,1-1.586.844A4.818,4.818,0,0,1,66.1,12.3a3.524,3.524,0,0,1-2.648-1.137,4.423,4.423,0,0,1-1.086-3.184A4.809,4.809,0,0,1,63.461,4.7,3.608,3.608,0,0,1,66.32,3.445Zm2.242,3.7a3.643,3.643,0,0,0-.4-1.461,2.042,2.042,0,0,0-1.93-1.016,2.139,2.139,0,0,0-1.625.7,2.641,2.641,0,0,0-.7,1.777ZM71.625.484h1.367V4.648a3.064,3.064,0,0,1,2.492-1.234A3.26,3.26,0,0,1,78.02,4.488a4.576,4.576,0,0,1,.973,3.168,5.433,5.433,0,0,1-.961,3.3,3.117,3.117,0,0,1-2.664,1.313,2.73,2.73,0,0,1-1.609-.461,3.887,3.887,0,0,1-.836-.875V12h-1.3Zm3.656,10.539a1.879,1.879,0,0,0,1.707-.906,4.462,4.462,0,0,0,.566-2.391,3.924,3.924,0,0,0-.566-2.187,1.865,1.865,0,0,0-1.668-.867,2.327,2.327,0,0,0-1.684.711,3.193,3.193,0,0,0-.723,2.344,5.18,5.18,0,0,0,.3,1.914A2.051,2.051,0,0,0,75.281,11.023Zm6.43-1.25a1.158,1.158,0,0,0,.445.961,1.651,1.651,0,0,0,1.055.352,3.207,3.207,0,0,0,1.438-.344A1.935,1.935,0,0,0,85.82,8.875V7.742a2.406,2.406,0,0,1-.664.273,5.659,5.659,0,0,1-.8.156l-.852.109a3.257,3.257,0,0,0-1.148.32A1.248,1.248,0,0,0,81.711,9.773ZM85.117,6.93a.764.764,0,0,0,.648-.406,1.236,1.236,0,0,0,.094-.539,1.142,1.142,0,0,0-.512-1.043,2.745,2.745,0,0,0-1.465-.324,1.861,1.861,0,0,0-1.562.594,1.953,1.953,0,0,0-.336.977H80.672a2.416,2.416,0,0,1,1-2.152,4.122,4.122,0,0,1,2.238-.605,4.554,4.554,0,0,1,2.4.563,1.908,1.908,0,0,1,.914,1.75v4.82a.617.617,0,0,0,.09.352.433.433,0,0,0,.379.133q.094,0,.211-.012t.25-.035v1.039a3.916,3.916,0,0,1-.5.117,3.654,3.654,0,0,1-.469.023,1.157,1.157,0,0,1-1.055-.516,1.99,1.99,0,0,1-.242-.773,3.578,3.578,0,0,1-1.234.977,3.818,3.818,0,0,1-1.773.414,2.637,2.637,0,0,1-1.9-.707,2.349,2.349,0,0,1-.738-1.77A2.279,2.279,0,0,1,80.969,8a3.457,3.457,0,0,1,1.906-.789ZM93.977.484h1.406V4.766a4.06,4.06,0,0,1,.9-.891,3.031,3.031,0,0,1,1.7-.445A2.507,2.507,0,0,1,100.445,4.7a4.343,4.343,0,0,1,.352,1.93V12H99.352V6.727a2.949,2.949,0,0,0-.234-1.352,1.5,1.5,0,0,0-1.437-.687,2.4,2.4,0,0,0-1.586.6,2.892,2.892,0,0,0-.711,2.273V12H93.977Zm8.9,3.188h1.43V12h-1.43Zm0-3.148h1.43V2.117h-1.43Zm7.086,10.531a2.006,2.006,0,0,0,1.637-.824,3.922,3.922,0,0,0,.652-2.465,4.6,4.6,0,0,0-.289-1.719,2.118,2.118,0,0,0-4,.078,5.79,5.79,0,0,0-.289,1.984,4.206,4.206,0,0,0,.289,1.648A1.994,1.994,0,0,0,109.961,11.055ZM106.32,3.672h1.367V4.781a3.413,3.413,0,0,1,.922-.883,2.967,2.967,0,0,1,1.672-.469A3.144,3.144,0,0,1,112.7,4.52a4.465,4.465,0,0,1,.992,3.113,4.781,4.781,0,0,1-1.43,3.906,3.23,3.23,0,0,1-2.109.742,2.863,2.863,0,0,1-1.586-.414,3.654,3.654,0,0,1-.836-.8v4.273H106.32Zm12.328,7.422a1.939,1.939,0,0,0,1.918-1.059,5.274,5.274,0,0,0,.52-2.355,4.194,4.194,0,0,0-.375-1.906,2.11,2.11,0,0,0-2.047-1.156,2.018,2.018,0,0,0-1.875.984,4.563,4.563,0,0,0-.586,2.375,3.969,3.969,0,0,0,.586,2.227A2.064,2.064,0,0,0,118.648,11.094Zm.055-7.7a3.789,3.789,0,0,1,2.734,1.078,4.21,4.21,0,0,1,1.117,3.172,5.442,5.442,0,0,1-.984,3.344,3.561,3.561,0,0,1-3.055,1.32,3.449,3.449,0,0,1-2.742-1.168A4.613,4.613,0,0,1,114.758,8a4.991,4.991,0,0,1,1.07-3.359A3.592,3.592,0,0,1,118.7,3.391ZM120.336.266,118.25,2.523h-1.078L118.6.266ZM124.508,1.3h1.422V3.633h1.336V4.781H125.93v5.461a.591.591,0,0,0,.3.586,1.262,1.262,0,0,0,.547.086q.1,0,.219,0t.273-.02V12a3.139,3.139,0,0,1-.5.1,4.791,4.791,0,0,1-.566.031,1.527,1.527,0,0,1-1.336-.5,2.239,2.239,0,0,1-.352-1.309V4.781h-1.133V3.633h1.133Zm7.648,2.148a3.817,3.817,0,0,1,1.727.418,3.184,3.184,0,0,1,1.273,1.082,3.733,3.733,0,0,1,.563,1.477,9.661,9.661,0,0,1,.125,1.844h-6.133a3.579,3.579,0,0,0,.6,2.043,2.014,2.014,0,0,0,1.742.77,2.252,2.252,0,0,0,1.758-.727,2.449,2.449,0,0,0,.531-.977h1.383a2.912,2.912,0,0,1-.363,1.027,3.654,3.654,0,0,1-.691.926,3.277,3.277,0,0,1-1.586.844,4.818,4.818,0,0,1-1.148.125,3.524,3.524,0,0,1-2.648-1.137A4.423,4.423,0,0,1,128.2,7.977,4.809,4.809,0,0,1,129.3,4.7,3.608,3.608,0,0,1,132.156,3.445Zm2.242,3.7a3.643,3.643,0,0,0-.4-1.461,2.042,2.042,0,0,0-1.93-1.016,2.139,2.139,0,0,0-1.625.7,2.641,2.641,0,0,0-.7,1.777Zm4.008,2.227a2.045,2.045,0,0,0,.352,1.078,2.209,2.209,0,0,0,1.844.68,2.719,2.719,0,0,0,1.375-.34,1.129,1.129,0,0,0,.594-1.051.9.9,0,0,0-.477-.82,5.666,5.666,0,0,0-1.2-.4l-1.117-.281a5.45,5.45,0,0,1-1.578-.594,1.775,1.775,0,0,1-.906-1.578,2.411,2.411,0,0,1,.855-1.922,3.413,3.413,0,0,1,2.3-.734,3.194,3.194,0,0,1,2.727,1.109,2.407,2.407,0,0,1,.508,1.516h-1.328a1.627,1.627,0,0,0-.336-.867,2.143,2.143,0,0,0-1.68-.555,2.008,2.008,0,0,0-1.207.3.955.955,0,0,0-.41.8.991.991,0,0,0,.539.875,3.239,3.239,0,0,0,.922.344l.93.227a7.188,7.188,0,0,1,2.031.711,1.882,1.882,0,0,1,.82,1.7,2.584,2.584,0,0,1-.848,1.93,3.608,3.608,0,0,1-2.582.813,3.464,3.464,0,0,1-2.645-.848,3.206,3.206,0,0,1-.832-2.1Zm7.164-5.7H147V12h-1.43Zm0-3.148H147V2.117h-1.43Zm4.391,8.852a2.045,2.045,0,0,0,.352,1.078,2.209,2.209,0,0,0,1.844.68,2.719,2.719,0,0,0,1.375-.34,1.129,1.129,0,0,0,.594-1.051.9.9,0,0,0-.477-.82,5.666,5.666,0,0,0-1.2-.4l-1.117-.281a5.45,5.45,0,0,1-1.578-.594,1.775,1.775,0,0,1-.906-1.578,2.411,2.411,0,0,1,.855-1.922,3.413,3.413,0,0,1,2.3-.734,3.194,3.194,0,0,1,2.727,1.109,2.407,2.407,0,0,1,.508,1.516h-1.328a1.627,1.627,0,0,0-.336-.867,2.143,2.143,0,0,0-1.68-.555,2.008,2.008,0,0,0-1.207.3.955.955,0,0,0-.41.8.991.991,0,0,0,.539.875,3.239,3.239,0,0,0,.922.344l.93.227a7.188,7.188,0,0,1,2.031.711,1.882,1.882,0,0,1,.82,1.7,2.584,2.584,0,0,1-.848,1.93,3.608,3.608,0,0,1-2.582.813,3.464,3.464,0,0,1-2.645-.848,3.206,3.206,0,0,1-.832-2.1Z" transform="translate(912 2075)" fill="#12263f"/>
    <path id="Trazado_661995" data-name="Trazado 661995" d="M24.9,7.3l-1.742-5.07L21.3,7.3ZM22.344.523H24.1L28.266,12h-1.7L25.4,8.563H20.859L19.617,12H18.023Zm7.148,3.109h1.336V4.82a3.747,3.747,0,0,1,1.258-1.055,3.354,3.354,0,0,1,1.477-.32,2.435,2.435,0,0,1,2.406,1.242,4.411,4.411,0,0,1,.344,1.945V12h-1.43V6.727a2.856,2.856,0,0,0-.227-1.234A1.374,1.374,0,0,0,33.3,4.711a2.768,2.768,0,0,0-.82.1,2.113,2.113,0,0,0-1.016.688A2.07,2.07,0,0,0,31,6.355,5.758,5.758,0,0,0,30.9,7.617V12H29.492Zm9.977,6.141a1.158,1.158,0,0,0,.445.961,1.651,1.651,0,0,0,1.055.352,3.207,3.207,0,0,0,1.438-.344,1.935,1.935,0,0,0,1.172-1.867V7.742a2.406,2.406,0,0,1-.664.273,5.659,5.659,0,0,1-.8.156l-.852.109a3.257,3.257,0,0,0-1.148.32A1.248,1.248,0,0,0,39.469,9.773ZM42.875,6.93a.764.764,0,0,0,.648-.406,1.236,1.236,0,0,0,.094-.539,1.142,1.142,0,0,0-.512-1.043,2.745,2.745,0,0,0-1.465-.324,1.861,1.861,0,0,0-1.562.594,1.953,1.953,0,0,0-.336.977H38.43a2.416,2.416,0,0,1,1-2.152,4.122,4.122,0,0,1,2.238-.605,4.554,4.554,0,0,1,2.4.563,1.908,1.908,0,0,1,.914,1.75v4.82a.617.617,0,0,0,.09.352.433.433,0,0,0,.379.133q.094,0,.211-.012t.25-.035v1.039a3.917,3.917,0,0,1-.5.117,3.654,3.654,0,0,1-.469.023,1.157,1.157,0,0,1-1.055-.516,1.99,1.99,0,0,1-.242-.773,3.578,3.578,0,0,1-1.234.977,3.818,3.818,0,0,1-1.773.414,2.637,2.637,0,0,1-1.9-.707A2.349,2.349,0,0,1,38,9.8,2.279,2.279,0,0,1,38.727,8a3.457,3.457,0,0,1,1.906-.789ZM47.328.523h1.406V12H47.328Zm3.516,3.148h1.43V12h-1.43Zm0-3.148h1.43V2.117h-1.43Zm2.93,10.367,4.961-6H54.141V3.633h6.484V4.781L55.7,10.742h5.078V12h-7Zm9.7-1.117a1.158,1.158,0,0,0,.445.961,1.651,1.651,0,0,0,1.055.352,3.207,3.207,0,0,0,1.438-.344,1.935,1.935,0,0,0,1.172-1.867V7.742a2.406,2.406,0,0,1-.664.273,5.659,5.659,0,0,1-.8.156l-.852.109a3.257,3.257,0,0,0-1.148.32A1.248,1.248,0,0,0,63.477,9.773ZM66.883,6.93a.764.764,0,0,0,.648-.406,1.236,1.236,0,0,0,.094-.539,1.142,1.142,0,0,0-.512-1.043,2.745,2.745,0,0,0-1.465-.324,1.861,1.861,0,0,0-1.562.594,1.953,1.953,0,0,0-.336.977H62.438a2.416,2.416,0,0,1,1-2.152A4.122,4.122,0,0,1,65.68,3.43a4.554,4.554,0,0,1,2.4.563,1.908,1.908,0,0,1,.914,1.75v4.82a.617.617,0,0,0,.09.352.433.433,0,0,0,.379.133q.094,0,.211-.012t.25-.035v1.039a3.916,3.916,0,0,1-.5.117,3.654,3.654,0,0,1-.469.023,1.157,1.157,0,0,1-1.055-.516,1.99,1.99,0,0,1-.242-.773,3.578,3.578,0,0,1-1.234.977,3.818,3.818,0,0,1-1.773.414,2.637,2.637,0,0,1-1.9-.707,2.349,2.349,0,0,1-.738-1.77A2.279,2.279,0,0,1,62.734,8a3.457,3.457,0,0,1,1.906-.789ZM78.969,3.391a3.648,3.648,0,0,1,2.3.688,3.294,3.294,0,0,1,1.066,2.367H80.969A2.524,2.524,0,0,0,80.4,5.16a1.8,1.8,0,0,0-1.43-.512,1.975,1.975,0,0,0-1.922,1.313,5.214,5.214,0,0,0-.375,2.1A3.955,3.955,0,0,0,77.2,10.18a2.06,2.06,0,0,0,3.059.324,2.943,2.943,0,0,0,.707-1.465h1.367a3.67,3.67,0,0,1-1.172,2.434,3.656,3.656,0,0,1-2.4.77,3.2,3.2,0,0,1-2.617-1.2,4.59,4.59,0,0,1-.977-3,5.048,5.048,0,0,1,1.07-3.43A3.459,3.459,0,0,1,78.969,3.391ZM84.82,9.773a1.158,1.158,0,0,0,.445.961,1.651,1.651,0,0,0,1.055.352,3.207,3.207,0,0,0,1.438-.344A1.935,1.935,0,0,0,88.93,8.875V7.742a2.406,2.406,0,0,1-.664.273,5.659,5.659,0,0,1-.8.156l-.852.109a3.257,3.257,0,0,0-1.148.32A1.248,1.248,0,0,0,84.82,9.773ZM88.227,6.93a.764.764,0,0,0,.648-.406,1.236,1.236,0,0,0,.094-.539,1.142,1.142,0,0,0-.512-1.043,2.745,2.745,0,0,0-1.465-.324,1.861,1.861,0,0,0-1.562.594,1.953,1.953,0,0,0-.336.977H83.781a2.416,2.416,0,0,1,1-2.152,4.122,4.122,0,0,1,2.238-.605,4.554,4.554,0,0,1,2.4.563,1.908,1.908,0,0,1,.914,1.75v4.82a.617.617,0,0,0,.09.352.433.433,0,0,0,.379.133q.094,0,.211-.012t.25-.035v1.039a3.916,3.916,0,0,1-.5.117,3.654,3.654,0,0,1-.469.023,1.157,1.157,0,0,1-1.055-.516A1.99,1.99,0,0,1,89,10.891a3.578,3.578,0,0,1-1.234.977,3.818,3.818,0,0,1-1.773.414,2.637,2.637,0,0,1-1.9-.707,2.349,2.349,0,0,1-.738-1.77A2.279,2.279,0,0,1,84.078,8a3.457,3.457,0,0,1,1.906-.789Zm5.82-3.3V9.188a2.342,2.342,0,0,0,.2,1.047,1.417,1.417,0,0,0,1.4.75,1.977,1.977,0,0,0,2-1.312,5.207,5.207,0,0,0,.289-1.93V3.633h1.406V12H98.016l.016-1.234a2.837,2.837,0,0,1-.68.8,2.991,2.991,0,0,1-1.953.656,2.519,2.519,0,0,1-2.437-1.2,3.56,3.56,0,0,1-.352-1.711V3.633Zm8.328,5.742a2.045,2.045,0,0,0,.352,1.078,2.209,2.209,0,0,0,1.844.68,2.719,2.719,0,0,0,1.375-.34,1.129,1.129,0,0,0,.594-1.051.9.9,0,0,0-.477-.82,5.666,5.666,0,0,0-1.2-.4l-1.117-.281a5.45,5.45,0,0,1-1.578-.594,1.775,1.775,0,0,1-.906-1.578,2.411,2.411,0,0,1,.855-1.922,3.413,3.413,0,0,1,2.3-.734,3.194,3.194,0,0,1,2.727,1.109,2.407,2.407,0,0,1,.508,1.516H106.32a1.627,1.627,0,0,0-.336-.867,2.143,2.143,0,0,0-1.68-.555,2.008,2.008,0,0,0-1.207.3.955.955,0,0,0-.41.8.991.991,0,0,0,.539.875,3.239,3.239,0,0,0,.922.344l.93.227a7.188,7.188,0,0,1,2.031.711,1.882,1.882,0,0,1,.82,1.7,2.584,2.584,0,0,1-.848,1.93,3.608,3.608,0,0,1-2.582.813,3.464,3.464,0,0,1-2.645-.848,3.206,3.206,0,0,1-.832-2.1Zm8.242.4a1.158,1.158,0,0,0,.445.961,1.651,1.651,0,0,0,1.055.352,3.207,3.207,0,0,0,1.438-.344,1.935,1.935,0,0,0,1.172-1.867V7.742a2.406,2.406,0,0,1-.664.273,5.659,5.659,0,0,1-.8.156l-.852.109a3.257,3.257,0,0,0-1.148.32A1.248,1.248,0,0,0,110.617,9.773Zm3.406-2.844a.764.764,0,0,0,.648-.406,1.236,1.236,0,0,0,.094-.539,1.142,1.142,0,0,0-.512-1.043,2.745,2.745,0,0,0-1.465-.324,1.861,1.861,0,0,0-1.562.594,1.953,1.953,0,0,0-.336.977h-1.312a2.416,2.416,0,0,1,1-2.152,4.122,4.122,0,0,1,2.238-.605,4.554,4.554,0,0,1,2.4.563,1.908,1.908,0,0,1,.914,1.75v4.82a.617.617,0,0,0,.09.352.433.433,0,0,0,.379.133q.094,0,.211-.012t.25-.035v1.039a3.916,3.916,0,0,1-.5.117,3.654,3.654,0,0,1-.469.023,1.157,1.157,0,0,1-1.055-.516,1.99,1.99,0,0,1-.242-.773,3.578,3.578,0,0,1-1.234.977,3.818,3.818,0,0,1-1.773.414,2.637,2.637,0,0,1-1.9-.707,2.349,2.349,0,0,1-.738-1.77,2.279,2.279,0,0,1,.727-1.8,3.457,3.457,0,0,1,1.906-.789Zm8.492-.109h3.922V8.266h-3.922Zm13.625-3.375a3.817,3.817,0,0,1,1.727.418,3.184,3.184,0,0,1,1.273,1.082,3.733,3.733,0,0,1,.563,1.477,9.661,9.661,0,0,1,.125,1.844H133.7a3.579,3.579,0,0,0,.6,2.043,2.014,2.014,0,0,0,1.742.77,2.252,2.252,0,0,0,1.758-.727,2.449,2.449,0,0,0,.531-.977h1.383a2.912,2.912,0,0,1-.363,1.027,3.654,3.654,0,0,1-.691.926,3.277,3.277,0,0,1-1.586.844,4.818,4.818,0,0,1-1.148.125,3.524,3.524,0,0,1-2.648-1.137,4.423,4.423,0,0,1-1.086-3.184A4.809,4.809,0,0,1,133.281,4.7,3.608,3.608,0,0,1,136.141,3.445Zm2.242,3.7a3.643,3.643,0,0,0-.4-1.461,2.042,2.042,0,0,0-1.93-1.016,2.139,2.139,0,0,0-1.625.7,2.641,2.641,0,0,0-.7,1.777Zm3.523-4.789a2.507,2.507,0,0,1,.3-1.281,2.153,2.153,0,0,1,1.9-.719q.133,0,.273.008t.32.023V1.672q-.219-.016-.316-.02t-.184,0q-.641,0-.766.332a6.565,6.565,0,0,0-.125,1.691H144.7V4.781H143.3V12h-1.391V4.781h-1.164V3.672h1.164Zm7.578,1.086a3.817,3.817,0,0,1,1.727.418,3.184,3.184,0,0,1,1.273,1.082,3.733,3.733,0,0,1,.563,1.477,9.661,9.661,0,0,1,.125,1.844h-6.133a3.579,3.579,0,0,0,.6,2.043,2.014,2.014,0,0,0,1.742.77,2.252,2.252,0,0,0,1.758-.727,2.449,2.449,0,0,0,.531-.977h1.383a2.912,2.912,0,0,1-.363,1.027,3.654,3.654,0,0,1-.691.926,3.277,3.277,0,0,1-1.586.844,4.818,4.818,0,0,1-1.148.125,3.524,3.524,0,0,1-2.648-1.137,4.423,4.423,0,0,1-1.086-3.184A4.809,4.809,0,0,1,146.625,4.7,3.608,3.608,0,0,1,149.484,3.445Zm2.242,3.7a3.643,3.643,0,0,0-.4-1.461,2.042,2.042,0,0,0-1.93-1.016,2.139,2.139,0,0,0-1.625.7,2.641,2.641,0,0,0-.7,1.777Zm6.4-3.758a3.648,3.648,0,0,1,2.3.688,3.294,3.294,0,0,1,1.066,2.367h-1.367a2.524,2.524,0,0,0-.57-1.285,1.8,1.8,0,0,0-1.43-.512A1.975,1.975,0,0,0,156.2,5.961a5.214,5.214,0,0,0-.375,2.1,3.955,3.955,0,0,0,.531,2.117,2.06,2.06,0,0,0,3.059.324,2.943,2.943,0,0,0,.707-1.465h1.367a3.67,3.67,0,0,1-1.172,2.434,3.656,3.656,0,0,1-2.4.77,3.2,3.2,0,0,1-2.617-1.2,4.59,4.59,0,0,1-.977-3,5.047,5.047,0,0,1,1.07-3.43A3.459,3.459,0,0,1,158.125,3.391ZM163.18,1.3H164.6V3.633h1.336V4.781H164.6v5.461a.591.591,0,0,0,.3.586,1.262,1.262,0,0,0,.547.086q.1,0,.219,0t.273-.02V12a3.139,3.139,0,0,1-.5.1,4.791,4.791,0,0,1-.566.031,1.527,1.527,0,0,1-1.336-.5,2.239,2.239,0,0,1-.352-1.309V4.781h-1.133V3.633h1.133Zm7.484,9.8a1.939,1.939,0,0,0,1.918-1.059,5.274,5.274,0,0,0,.52-2.355,4.194,4.194,0,0,0-.375-1.906,2.11,2.11,0,0,0-2.047-1.156A2.018,2.018,0,0,0,168.8,5.6a4.563,4.563,0,0,0-.586,2.375A3.969,3.969,0,0,0,168.8,10.2,2.064,2.064,0,0,0,170.664,11.094Zm.055-7.7a3.789,3.789,0,0,1,2.734,1.078,4.21,4.21,0,0,1,1.117,3.172,5.442,5.442,0,0,1-.984,3.344,3.561,3.561,0,0,1-3.055,1.32,3.449,3.449,0,0,1-2.742-1.168A4.613,4.613,0,0,1,166.773,8a4.991,4.991,0,0,1,1.07-3.359A3.592,3.592,0,0,1,170.719,3.391Z" transform="translate(909 2154)" fill="#12263f"/>
  </g>
</svg>
