<svg id="a1" xmlns="http://www.w3.org/2000/svg" xmlns:xlink="http://www.w3.org/1999/xlink" width="106.193" height="106.193" viewBox="0 0 106.193 106.193">
  <defs>
    <linearGradient id="linear-gradient" x1="0.88" y1="0.026" x2="0.075" y2="1.03" gradientUnits="objectBoundingBox">
      <stop offset="0" stop-color="#bf2026"/>
      <stop offset="0.166" stop-color="#ac1d22"/>
      <stop offset="0.499" stop-color="#7d1719"/>
      <stop offset="0.796" stop-color="#4f1110"/>
    </linearGradient>
    <linearGradient id="linear-gradient-2" x1="0.901" y1="-0.001" x2="0.013" y2="1.108" gradientUnits="objectBoundingBox">
      <stop offset="0.231" stop-color="#ec1c24"/>
      <stop offset="0.384" stop-color="#e71c23"/>
      <stop offset="0.559" stop-color="#d91c23"/>
      <stop offset="0.746" stop-color="#c21d22"/>
      <stop offset="0.914" stop-color="#a71e22"/>
    </linearGradient>
    <linearGradient id="linear-gradient-3" x1="0.965" y1="0.073" x2="-0.09" y2="1.041" gradientUnits="objectBoundingBox">
      <stop offset="0.059" stop-color="#f0efef"/>
      <stop offset="0.094" stop-color="#c3c2c2"/>
      <stop offset="0.14" stop-color="#908f8f"/>
      <stop offset="0.187" stop-color="#636363"/>
      <stop offset="0.234" stop-color="#3f3f3f"/>
      <stop offset="0.281" stop-color="#232323"/>
      <stop offset="0.328" stop-color="#0f0f0f"/>
      <stop offset="0.376" stop-color="#030303"/>
      <stop offset="0.423"/>
      <stop offset="0.469" stop-color="#070707"/>
      <stop offset="0.538" stop-color="#1c1c1c"/>
      <stop offset="0.622" stop-color="#3e3e3e"/>
      <stop offset="0.718" stop-color="#6e6d6d"/>
      <stop offset="0.824" stop-color="#abaaaa"/>
      <stop offset="0.93" stop-color="#f0efef"/>
    </linearGradient>
    <linearGradient id="linear-gradient-4" x1="1.062" y1="-0.22" x2="-0.065" y2="1.224" gradientUnits="objectBoundingBox">
      <stop offset="0" stop-color="#5f0a0b"/>
      <stop offset="0.163" stop-color="#4b0a0b"/>
      <stop offset="0.465" stop-color="#2c0b0b"/>
      <stop offset="0.634" stop-color="#210c0c"/>
    </linearGradient>
    <linearGradient id="linear-gradient-5" x1="1.05" y1="-0.195" x2="-0.058" y2="1.206" gradientUnits="objectBoundingBox">
      <stop offset="0" stop-color="#630b0c"/>
      <stop offset="0.015" stop-color="#600b0c"/>
      <stop offset="0.113" stop-color="#550b0c"/>
      <stop offset="0.339" stop-color="#420b0c"/>
      <stop offset="0.634" stop-color="#250c0c"/>
      <stop offset="0.796" stop-color="#240c0c"/>
    </linearGradient>
    <linearGradient id="linear-gradient-6" x1="1.037" y1="-0.17" x2="-0.052" y2="1.188" gradientUnits="objectBoundingBox">
      <stop offset="0" stop-color="#670c0e"/>
      <stop offset="0.009" stop-color="#650c0d"/>
      <stop offset="0.113" stop-color="#5a0c0d"/>
      <stop offset="0.335" stop-color="#470c0c"/>
      <stop offset="0.634" stop-color="#290c0c"/>
      <stop offset="0.796" stop-color="#270d0d"/>
    </linearGradient>
    <linearGradient id="linear-gradient-7" x1="1.025" y1="-0.145" x2="-0.045" y2="1.17" gradientUnits="objectBoundingBox">
      <stop offset="0" stop-color="#6b0e0f"/>
      <stop offset="0.009" stop-color="#690d0f"/>
      <stop offset="0.113" stop-color="#5e0d0f"/>
      <stop offset="0.331" stop-color="#4b0c0d"/>
      <stop offset="0.634" stop-color="#2c0c0c"/>
      <stop offset="0.796" stop-color="#2a0d0d"/>
    </linearGradient>
    <linearGradient id="linear-gradient-8" x1="1.012" y1="-0.121" x2="-0.037" y2="1.152" gradientUnits="objectBoundingBox">
      <stop offset="0" stop-color="#6f0f10"/>
      <stop offset="0.009" stop-color="#6d0e10"/>
      <stop offset="0.113" stop-color="#620e10"/>
      <stop offset="0.331" stop-color="#4f0d0e"/>
      <stop offset="0.634" stop-color="#300c0c"/>
      <stop offset="0.796" stop-color="#2d0d0d"/>
    </linearGradient>
    <linearGradient id="linear-gradient-9" x1="0.998" y1="-0.096" x2="-0.03" y2="1.134" gradientUnits="objectBoundingBox">
      <stop offset="0" stop-color="#731012"/>
      <stop offset="0.003" stop-color="#720f11"/>
      <stop offset="0.113" stop-color="#670f11"/>
      <stop offset="0.327" stop-color="#540d0f"/>
      <stop offset="0.634" stop-color="#340b0c"/>
      <stop offset="0.796" stop-color="#300e0d"/>
    </linearGradient>
    <linearGradient id="linear-gradient-10" x1="0.985" y1="-0.072" x2="-0.022" y2="1.117" gradientUnits="objectBoundingBox">
      <stop offset="0" stop-color="#771113"/>
      <stop offset="0.003" stop-color="#761012"/>
      <stop offset="0.113" stop-color="#6b1012"/>
      <stop offset="0.327" stop-color="#580e0f"/>
      <stop offset="0.634" stop-color="#380b0c"/>
      <stop offset="0.796" stop-color="#330e0e"/>
    </linearGradient>
    <linearGradient id="linear-gradient-11" x1="0.971" y1="-0.048" x2="-0.015" y2="1.099" gradientUnits="objectBoundingBox">
      <stop offset="0" stop-color="#7b1214"/>
      <stop offset="0.003" stop-color="#7a1113"/>
      <stop offset="0.113" stop-color="#6f1113"/>
      <stop offset="0.327" stop-color="#5c0e10"/>
      <stop offset="0.634" stop-color="#3c0b0c"/>
      <stop offset="0.796" stop-color="#360e0e"/>
    </linearGradient>
    <linearGradient id="linear-gradient-12" x1="0.957" y1="-0.025" x2="-0.007" y2="1.082" gradientUnits="objectBoundingBox">
      <stop offset="0" stop-color="#7f1416"/>
      <stop offset="0.113" stop-color="#741315"/>
      <stop offset="0.324" stop-color="#611011"/>
      <stop offset="0.634" stop-color="#400b0c"/>
      <stop offset="0.796" stop-color="#390f0e"/>
    </linearGradient>
    <linearGradient id="linear-gradient-13" x1="0.942" y1="-0.001" x2="0.002" y2="1.065" gradientUnits="objectBoundingBox">
      <stop offset="0" stop-color="#831517"/>
      <stop offset="0.113" stop-color="#781416"/>
      <stop offset="0.32" stop-color="#651012"/>
      <stop offset="0.634" stop-color="#430b0b"/>
      <stop offset="0.796" stop-color="#3c0f0e"/>
    </linearGradient>
    <linearGradient id="linear-gradient-14" x1="0.928" y1="0.022" x2="0.01" y2="1.048" gradientUnits="objectBoundingBox">
      <stop offset="0" stop-color="#871618"/>
      <stop offset="0.113" stop-color="#7c1517"/>
      <stop offset="0.32" stop-color="#691112"/>
      <stop offset="0.634" stop-color="#470b0b"/>
      <stop offset="0.796" stop-color="#3f0f0f"/>
    </linearGradient>
    <linearGradient id="linear-gradient-15" x1="0.913" y1="0.045" x2="0.019" y2="1.031" gradientUnits="objectBoundingBox">
      <stop offset="0" stop-color="#8b1719"/>
      <stop offset="0.113" stop-color="#801618"/>
      <stop offset="0.32" stop-color="#6d1213"/>
      <stop offset="0.634" stop-color="#4b0b0b"/>
      <stop offset="0.796" stop-color="#420f0f"/>
    </linearGradient>
    <linearGradient id="linear-gradient-16" x1="0.897" y1="0.068" x2="0.027" y2="1.014" gradientUnits="objectBoundingBox">
      <stop offset="0" stop-color="#8f181b"/>
      <stop offset="0.113" stop-color="#851719"/>
      <stop offset="0.317" stop-color="#721214"/>
      <stop offset="0.634" stop-color="#4f0b0b"/>
      <stop offset="0.796" stop-color="#45100f"/>
    </linearGradient>
    <linearGradient id="linear-gradient-17" x1="0.882" y1="0.09" x2="0.037" y2="0.997" gradientUnits="objectBoundingBox">
      <stop offset="0" stop-color="#93191c"/>
      <stop offset="0.113" stop-color="#89181a"/>
      <stop offset="0.317" stop-color="#761314"/>
      <stop offset="0.634" stop-color="#530a0b"/>
      <stop offset="0.796" stop-color="#48100f"/>
    </linearGradient>
    <linearGradient id="linear-gradient-18" x1="0.866" y1="0.113" x2="0.046" y2="0.981" gradientUnits="objectBoundingBox">
      <stop offset="0" stop-color="#971b1d"/>
      <stop offset="0.113" stop-color="#8d191c"/>
      <stop offset="0.314" stop-color="#7a1416"/>
      <stop offset="0.634" stop-color="#560a0b"/>
      <stop offset="0.796" stop-color="#4b1010"/>
    </linearGradient>
    <linearGradient id="linear-gradient-19" x1="0.85" y1="0.135" x2="0.055" y2="0.964" gradientUnits="objectBoundingBox">
      <stop offset="0" stop-color="#9b1c1f"/>
      <stop offset="0.113" stop-color="#921a1d"/>
      <stop offset="0.311" stop-color="#7f1417"/>
      <stop offset="0.634" stop-color="#5a0a0b"/>
      <stop offset="0.796" stop-color="#4e1110"/>
    </linearGradient>
    <linearGradient id="linear-gradient-20" x1="0.833" y1="0.157" x2="0.065" y2="0.948" gradientUnits="objectBoundingBox">
      <stop offset="0" stop-color="#9f1d20"/>
      <stop offset="0.113" stop-color="#961b1e"/>
      <stop offset="0.311" stop-color="#831517"/>
      <stop offset="0.634" stop-color="#5e0a0b"/>
      <stop offset="0.796" stop-color="#511110"/>
    </linearGradient>
    <linearGradient id="linear-gradient-21" x1="0.833" y1="0.157" x2="0.065" y2="0.948" gradientUnits="objectBoundingBox">
      <stop offset="0" stop-color="#9f888d"/>
      <stop offset="0.075" stop-color="#9a8286"/>
      <stop offset="0.489" stop-color="#846667"/>
      <stop offset="0.72" stop-color="#7c5c5c"/>
    </linearGradient>
    <linearGradient id="linear-gradient-22" x1="0.833" y1="0.157" x2="0.065" y2="0.948" gradientUnits="objectBoundingBox">
      <stop offset="0.054" stop-color="#f0efef"/>
      <stop offset="0.301" stop-color="#e9e8e8"/>
      <stop offset="0.657" stop-color="#d6d6d6"/>
      <stop offset="0.72" stop-color="#d2d2d2"/>
    </linearGradient>
    <linearGradient id="linear-gradient-23" x1="0.965" y1="0.073" x2="-0.09" y2="1.041" xlink:href="#linear-gradient-3"/>
    <linearGradient id="linear-gradient-24" x1="1.005" y1="-0.322" x2="0.297" y2="0.954" gradientUnits="objectBoundingBox">
      <stop offset="0.054" stop-color="#f0efef"/>
      <stop offset="0.14" stop-color="#e8e7e7"/>
      <stop offset="0.267" stop-color="#d4d3d3"/>
      <stop offset="0.42" stop-color="#b4b3b3"/>
      <stop offset="0.593" stop-color="#868686"/>
      <stop offset="0.783" stop-color="#4c4b4b"/>
      <stop offset="0.983" stop-color="#060606"/>
      <stop offset="1"/>
    </linearGradient>
  </defs>
  <g id="Group_82259" data-name="Group 82259">
    <g id="Group_82251" data-name="Group 82251">
      <path id="Path_118859" data-name="Path 118859" d="M111.971,92.234a53.1,53.1,0,1,1-53.094-53.1A53.1,53.1,0,0,1,111.971,92.234Z" transform="translate(-5.778 -39.135)" fill="url(#linear-gradient)"/>
      <path id="Path_118860" data-name="Path 118860" d="M108.882,90.861A51.382,51.382,0,1,1,57.5,39.474,51.38,51.38,0,0,1,108.882,90.861Z" transform="translate(-4.401 -37.762)" fill="url(#linear-gradient-2)"/>
      <path id="Path_118861" data-name="Path 118861" d="M57.5,39.474a51.382,51.382,0,1,0,51.382,51.387A51.379,51.379,0,0,0,57.5,39.474Zm0,102.006a50.627,50.627,0,1,1,50.624-50.619A50.628,50.628,0,0,1,57.5,141.48Z" transform="translate(-4.401 -37.762)" opacity="0.8" fill="url(#linear-gradient-3)" style="mix-blend-mode: screen;isolation: isolate"/>
    </g>
    <g id="Group_82258" data-name="Group 82258" transform="translate(11.425 12.061)">
      <g id="Group_82256" data-name="Group 82256">
        <g id="Group_82252" data-name="Group 82252">
          <path id="Path_118862" data-name="Path 118862" d="M90.818,82.914A41.389,41.389,0,1,1,49.426,41.523,41.387,41.387,0,0,1,90.818,82.914Z" transform="translate(-8.04 -41.523)" opacity="0" fill="url(#linear-gradient-4)" style="mix-blend-mode: multiply;isolation: isolate"/>
          <path id="Path_118863" data-name="Path 118863" d="M90.6,82.824a41.268,41.268,0,1,1-41.265-41.27A41.266,41.266,0,0,1,90.6,82.824Z" transform="translate(-7.931 -41.397)" opacity="0.063" fill="url(#linear-gradient-5)"/>
          <path id="Path_118864" data-name="Path 118864" d="M90.379,82.729A41.141,41.141,0,1,1,49.235,41.585,41.143,41.143,0,0,1,90.379,82.729Z" transform="translate(-7.813 -41.272)" opacity="0.125" fill="url(#linear-gradient-6)"/>
          <path id="Path_118865" data-name="Path 118865" d="M90.159,82.64A41.018,41.018,0,1,1,49.142,41.617,41.011,41.011,0,0,1,90.159,82.64Z" transform="translate(-7.7 -41.142)" opacity="0.188" fill="url(#linear-gradient-7)"/>
          <path id="Path_118866" data-name="Path 118866" d="M89.944,82.55a40.9,40.9,0,1,1-40.9-40.9A40.891,40.891,0,0,1,89.944,82.55Z" transform="translate(-7.59 -41.017)" opacity="0.25" fill="url(#linear-gradient-8)"/>
          <path id="Path_118867" data-name="Path 118867" d="M89.724,82.45a40.773,40.773,0,1,1-40.77-40.77A40.767,40.767,0,0,1,89.724,82.45Z" transform="translate(-7.477 -40.887)" opacity="0.313" fill="url(#linear-gradient-9)"/>
          <path id="Path_118868" data-name="Path 118868" d="M89.5,82.365A40.649,40.649,0,1,1,48.856,41.711,40.643,40.643,0,0,1,89.5,82.365Z" transform="translate(-7.364 -40.761)" opacity="0.375" fill="url(#linear-gradient-10)"/>
          <path id="Path_118869" data-name="Path 118869" d="M89.285,82.271A40.525,40.525,0,1,1,48.763,41.743,40.518,40.518,0,0,1,89.285,82.271Z" transform="translate(-7.25 -40.632)" opacity="0.438" fill="url(#linear-gradient-11)"/>
          <path id="Path_118870" data-name="Path 118870" d="M89.066,82.176a40.4,40.4,0,1,1-40.4-40.4A40.4,40.4,0,0,1,89.066,82.176Z" transform="translate(-7.137 -40.506)" opacity="0.5" fill="url(#linear-gradient-12)"/>
          <path id="Path_118871" data-name="Path 118871" d="M88.847,82.081A40.278,40.278,0,1,1,48.571,41.806,40.275,40.275,0,0,1,88.847,82.081Z" transform="translate(-7.023 -40.377)" opacity="0.563" fill="url(#linear-gradient-13)"/>
          <path id="Path_118872" data-name="Path 118872" d="M88.627,81.991A40.154,40.154,0,1,1,48.473,41.837,40.148,40.148,0,0,1,88.627,81.991Z" transform="translate(-6.91 -40.251)" opacity="0.625" fill="url(#linear-gradient-14)"/>
          <path id="Path_118873" data-name="Path 118873" d="M88.408,81.9A40.03,40.03,0,1,1,48.38,41.869,40.027,40.027,0,0,1,88.408,81.9Z" transform="translate(-6.796 -40.121)" opacity="0.688" fill="url(#linear-gradient-15)"/>
          <path id="Path_118874" data-name="Path 118874" d="M88.188,81.807A39.907,39.907,0,1,1,48.282,41.9,39.9,39.9,0,0,1,88.188,81.807Z" transform="translate(-6.683 -39.996)" opacity="0.75" fill="url(#linear-gradient-16)"/>
          <path id="Path_118875" data-name="Path 118875" d="M87.969,81.712a39.783,39.783,0,1,1-39.78-39.78A39.782,39.782,0,0,1,87.969,81.712Z" transform="translate(-6.57 -39.866)" opacity="0.813" fill="url(#linear-gradient-17)"/>
          <path id="Path_118876" data-name="Path 118876" d="M87.749,81.622A39.659,39.659,0,1,1,48.09,41.963,39.655,39.655,0,0,1,87.749,81.622Z" transform="translate(-6.456 -39.741)" opacity="0.875" fill="url(#linear-gradient-18)"/>
          <path id="Path_118877" data-name="Path 118877" d="M87.53,81.528A39.535,39.535,0,1,1,48,42,39.527,39.527,0,0,1,87.53,81.528Z" transform="translate(-6.343 -39.611)" opacity="0.938" fill="url(#linear-gradient-19)"/>
          <path id="Path_118878" data-name="Path 118878" d="M87.31,81.438A39.412,39.412,0,1,1,47.9,42.026,39.407,39.407,0,0,1,87.31,81.438Z" transform="translate(-6.229 -39.485)" fill="url(#linear-gradient-20)"/>
        </g>
        <g id="Group_82253" data-name="Group 82253" transform="translate(1.722 1.379)">
          <path id="Path_118879" data-name="Path 118879" d="M87.851,81.526A39.735,39.735,0,1,1,48.116,41.8,39.74,39.74,0,0,1,87.851,81.526Z" transform="translate(-8.381 -41.796)" fill="url(#linear-gradient-21)"/>
        </g>
        <g id="Group_82255" data-name="Group 82255" transform="translate(2.828 2.505)">
          <g id="Group_82254" data-name="Group 82254">
            <path id="Path_118880" data-name="Path 118880" d="M85.812,80.622a38.606,38.606,0,1,1-38.6-38.6A38.613,38.613,0,0,1,85.812,80.622Z" transform="translate(-8.6 -42.019)" fill="url(#linear-gradient-22)"/>
          </g>
          <path id="Path_118881" data-name="Path 118881" d="M47.208,42.019a38.608,38.608,0,1,0,38.6,38.6A38.605,38.605,0,0,0,47.208,42.019Zm0,75.833a37.232,37.232,0,1,1,37.235-37.23A37.233,37.233,0,0,1,47.208,117.852Z" transform="translate(-8.6 -42.019)" fill="url(#linear-gradient-23)" style="mix-blend-mode: screen;isolation: isolate"/>
        </g>
      </g>
      <g id="Group_82257" data-name="Group 82257" transform="translate(12.546 3.839)" style="mix-blend-mode: screen;isolation: isolate">
        <path id="Path_118882" data-name="Path 118882" d="M75.129,93.938A38.615,38.615,0,0,0,10.524,54.582Z" transform="translate(-10.524 -42.283)" fill="url(#linear-gradient-24)"/>
      </g>
    </g>
  </g>
  <g id="Group_82260" data-name="Group 82260" transform="translate(31.81 28.35)">
    <path id="Path_118883" data-name="Path 118883" d="M28.324,51.188a6.244,6.244,0,0,0-4.586-2.177c-3.626,0-6.576,2.682-6.8,10.662a8.527,8.527,0,0,1,6.263-3.4c4.99,0,8.44,2.9,8.44,8.94,0,5.763-4.132,9.485-9.076,9.485-5.672,0-10.486-4.4-10.486-14.117,0-11.2,5.445-15.834,11.349-15.834a10.294,10.294,0,0,1,7.713,3.268Zm-1.54,14.026c0-3.4-1.682-5.127-4.541-5.127-1.636,0-3.541.909-5.172,3.308.54,5.132,2.586,7.309,5.4,7.309C24.875,70.7,26.784,68.755,26.784,65.214Z" transform="translate(-12.076 -44.748)" fill="#212120"/>
    <path id="Path_118884" data-name="Path 118884" d="M16.65,59.582c0-9.753,3.813-14.834,9.8-14.834s9.8,5.127,9.8,14.834c0,9.758-3.813,15.117-9.8,15.117S16.65,69.34,16.65,59.582Zm14.612,0c0-8.167-2-10.753-4.808-10.753-2.773,0-4.813,2.586-4.813,10.753s2.041,11.031,4.813,11.031C29.267,70.613,31.262,67.76,31.262,59.582Z" transform="translate(6.452 -44.748)" fill="#212120"/>
    <path id="Path_118885" data-name="Path 118885" d="M12.586,51.924h2.45v6.884H15.1l2.692-3.374h2.738l-2.98,3.49,3.207,5.005H18.031l-1.914-3.3-1.081,1.212V63.93h-2.45Z" transform="translate(-10.01 -15.679)" fill="#212120"/>
    <path id="Path_118886" data-name="Path 118886" d="M14.444,52.785H16.5l.172,1.1h.066a3.575,3.575,0,0,1,2.571-1.3A2.354,2.354,0,0,1,21.657,54a3.726,3.726,0,0,1,2.672-1.419c1.828,0,2.652,1.3,2.652,3.424v5.278H24.465V56.326c0-1.232-.328-1.606-1.046-1.606a2.275,2.275,0,0,0-1.455.818v5.743h-2.52V56.326c0-1.232-.323-1.606-1.046-1.606a2.238,2.238,0,0,0-1.434.818v5.743h-2.52Z" transform="translate(-2.484 -13.03)" fill="#212120"/>
    <path id="Path_118887" data-name="Path 118887" d="M20.614,51.893H22.26L18.816,66.788H17.174Z" transform="translate(8.575 -15.805)" fill="#212120"/>
    <path id="Path_118888" data-name="Path 118888" d="M18.5,51.924h2.52v2.94l-.116,1.53a3.888,3.888,0,0,1,2.616-1.167c1.854,0,2.642,1.3,2.642,3.424V63.93h-2.52V58.975c0-1.232-.323-1.606-1.046-1.606a2.172,2.172,0,0,0-1.576.818V63.93H18.5Z" transform="translate(13.942 -15.679)" fill="#212120"/>
  </g>
</svg>
