<svg xmlns="http://www.w3.org/2000/svg" xmlns:xlink="http://www.w3.org/1999/xlink" width="90" height="90" viewBox="0 0 90 90">
  <defs>
    <clipPath id="clip-path">
      <rect id="Rectangle_340721" data-name="Rectangle 340721" width="90" height="90" transform="translate(0 0)" fill="none"/>
    </clipPath>
  </defs>
  <g id="cc1" transform="translate(-1297 -4909)">
    <rect id="Rectangle_340719" data-name="Rectangle 340719" width="90" height="90" transform="translate(1297 4909)" fill="none"/>
    <g id="Group_970724" data-name="Group 970724" transform="translate(1297 4909.002)">
      <g id="Group_970723" data-name="Group 970723" transform="translate(0 -0.002)" clip-path="url(#clip-path)">
        <path id="Path_661608" data-name="Path 661608" d="M427.988,362.527l-.179-.357a2.3,2.3,0,0,0,1.243-2.943l-1.271-2.521a1.108,1.108,0,0,0-1.536-.35,1.277,1.277,0,0,0-.714,1.079.864.864,0,0,0,.086.379l-6.05-12.036-1.271-2.521c-.721-1.436-2.136-2.314-3.821-3.221-.264,1.921-.393,3.6.336,5.043l1.264,2.521,7.014,13.943,1.407,2.8,1.521,3.029a1.791,1.791,0,0,0,2.486.557,2.04,2.04,0,0,0,1.157-1.736,1.439,1.439,0,0,0-.15-.643Z" transform="translate(-341.445 -280.26)" fill="#e7f2f1"/>
        <path id="Path_661609" data-name="Path 661609" d="M380.976,364.135l-7.75-16.564-.029-.057a12.937,12.937,0,0,0-4.55-5.164,13.29,13.29,0,0,0,1,6.679,1.774,1.774,0,0,0,.071.171l.029.057,7.75,16.564,1.143,2.443a1.834,1.834,0,0,0,2.493.764,1.9,1.9,0,0,0,.986-2.457Z" transform="translate(-303.776 -282.168)" fill="#e7f2f1"/>
        <path id="Path_661610" data-name="Path 661610" d="M30.792,370.794h-.086c-6.171,0-11.178,3.436-11.178,7.679V380.5H13.52v-.057a1.341,1.341,0,0,0-1.343-1.343H6.949a2.887,2.887,0,0,0-2.886,2.886v.243a2.887,2.887,0,0,0,2.886,2.886h5.228a1.341,1.341,0,0,0,1.343-1.343v-.057h6.2c.586,2.15,2.471,3.979,5.078,5.093v.007L22.806,394.9H73.177L65.27,370.794Z" transform="translate(-3.349 -305.613)" fill="#e7f2f1"/>
        <path id="Path_661611" data-name="Path 661611" d="M96.667,47.028A4.755,4.755,0,0,0,99.3,42.75V8.814a4.713,4.713,0,0,0-4.671-4.75h-51.9a4.712,4.712,0,0,0-4.664,4.75V33.528a23.875,23.875,0,0,0-2.764-.164,17.817,17.817,0,0,0-8.764,2l-4.514,28.05L24.5,65.121a19.557,19.557,0,0,1,8.55-1.564c7.564.171,11.607,3.736,11.607,3.736s4.036-3.564,11.6-3.736a19.592,19.592,0,0,1,8.557,1.564l2.464-1.707-.493-3.072h40.657V57.135Z" transform="translate(-18.153 -3.347)" fill="#e7f2f1"/>
        <path id="Path_661612" data-name="Path 661612" d="M477.476,471.014a1.439,1.439,0,0,1,.15.643,2.039,2.039,0,0,1-1.157,1.736,1.791,1.791,0,0,1-2.486-.557l-1.522-3.029a5.126,5.126,0,0,1,3.493-1.814Z" transform="translate(-389.412 -385.725)" fill="#c2c2c2"/>
        <path id="Path_661613" data-name="Path 661613" d="M428.645,475.587a1.9,1.9,0,0,1-.986,2.457,1.833,1.833,0,0,1-2.493-.764,1.9,1.9,0,0,1,.986-2.457,1.834,1.834,0,0,1,2.493.764" transform="translate(-350.302 -391.185)" fill="#c3ddda"/>
        <path id="Path_661614" data-name="Path 661614" d="M479.068,432.14a1.108,1.108,0,0,1,1.536.35l1.271,2.521a2.3,2.3,0,0,1-1.243,2.943L479.4,435.5l-.95-1.893c0-.007-.007-.007-.007-.014a.865.865,0,0,1-.086-.379A1.277,1.277,0,0,1,479.068,432.14Z" transform="translate(-394.268 -356.044)" fill="#ffc05a"/>
        <path id="Path_661615" data-name="Path 661615" d="M420.847,358.36l1.271,2.521a5.1,5.1,0,0,0-3.493,1.821l-1.264-2.521a5.075,5.075,0,0,1,3.486-1.821" transform="translate(-343.997 -295.365)" fill="#ffc05a"/>
        <path id="Path_661616" data-name="Path 661616" d="M422.143,461.7l1.143,2.436a1.833,1.833,0,0,0-2.493-.764,1.9,1.9,0,0,0-.986,2.457l-1.143-2.443a1.9,1.9,0,0,1,.986-2.457A1.83,1.83,0,0,1,422.143,461.7Z" transform="translate(-344.943 -379.732)" fill="#ffc05a"/>
        <path id="Path_661617" data-name="Path 661617" d="M469.179,454.473l.179.357a5.126,5.126,0,0,0-3.493,1.814l-1.407-2.8a5.075,5.075,0,0,1,3.486-1.821Z" transform="translate(-382.814 -372.564)" fill="#655f68"/>
        <path id="Path_661618" data-name="Path 661618" d="M414.473,340.033c1.686.907,3.1,1.786,3.822,3.221a5.075,5.075,0,0,0-3.486,1.821C414.08,343.633,414.209,341.954,414.473,340.033Z" transform="translate(-341.444 -280.259)" fill="#655f68"/>
        <path id="Path_661619" data-name="Path 661619" d="M370.7,346.75a1.923,1.923,0,0,0-1.057,2.279,13.29,13.29,0,0,1-1-6.679,12.937,12.937,0,0,1,4.55,5.164A1.822,1.822,0,0,0,370.7,346.75Z" transform="translate(-303.776 -282.169)" fill="#655f68"/>
        <path id="Path_661620" data-name="Path 661620" d="M434.1,384.754l.95,1.893a5.074,5.074,0,0,0-3.486,1.821l-7.014-13.943a5.106,5.106,0,0,1,3.493-1.821l6.05,12.036C434.1,384.747,434.1,384.747,434.1,384.754Z" transform="translate(-349.925 -307.187)" fill="#c2c2c2"/>
        <path id="Path_661621" data-name="Path 661621" d="M377.913,367.21l7.75,16.564A1.83,1.83,0,0,0,383.17,383a1.9,1.9,0,0,0-.986,2.457l-7.75-16.564-.029-.057a1.782,1.782,0,0,1-.071-.171,1.923,1.923,0,0,1,1.057-2.279,1.822,1.822,0,0,1,2.493.764Z" transform="translate(-308.463 -301.808)" fill="#ad6a6a"/>
        <path id="Path_661622" data-name="Path 661622" d="M118.59,389.973c4.471,0,8.321-1.8,10.114-4.4a5.785,5.785,0,0,0,1.064-3.279v-3.821a5.944,5.944,0,0,0-1.5-3.85h-.007c-1.914-2.272-5.486-3.807-9.586-3.829h34.478l7.907,24.107H110.69l1.993-6.086v-.007A14.917,14.917,0,0,0,118.59,389.973Z" transform="translate(-91.233 -305.613)" fill="#ffdbac"/>
        <path id="Path_661623" data-name="Path 661623" d="M64.064,429.23h-6.2v-3.214h6.007v1.793a5.291,5.291,0,0,0,.193,1.421" transform="translate(-47.693 -351.128)" fill="#aba49a"/>
        <path id="Path_661624" data-name="Path 661624" d="M178.914,396.31v.007a7.066,7.066,0,0,1-2.079,2.914l-6.129-9.014c4.714.707,8.2,3.257,8.207,6.093" transform="translate(-140.7 -321.622)" fill="#acccc6"/>
        <path id="Path_661625" data-name="Path 661625" d="M152.587,389.279l6.129,9.014a10.731,10.731,0,0,1-2.643,1.657l-7.35-10.829c.4-.029.8-.043,1.214-.043A17.719,17.719,0,0,1,152.587,389.279Z" transform="translate(-122.58 -320.684)" fill="#b8d3cf"/>
        <path id="Path_661626" data-name="Path 661626" d="M132.883,389.323l7.35,10.829a13.279,13.279,0,0,1-3.093.971L129.5,389.895a16.51,16.51,0,0,1,3.379-.572" transform="translate(-106.74 -320.885)" fill="#c3ddda"/>
        <path id="Path_661627" data-name="Path 661627" d="M97.221,399.4l7.007,10.314c-5.014-.157-9.164-2.593-10.322-5.829C93.907,402.172,95.178,400.565,97.221,399.4Z" transform="translate(-77.4 -329.192)" fill="#d6eae8"/>
        <path id="Path_661628" data-name="Path 661628" d="M114.074,380.3c-.007-2.836-3.493-5.386-8.207-6.093a17.718,17.718,0,0,0-2.65-.2c-.414,0-.814.014-1.214.043a16.51,16.51,0,0,0-3.379.572,12.937,12.937,0,0,0-2.943,1.2c-2.043,1.164-3.314,2.771-3.314,4.486a5.317,5.317,0,0,1-.329-1.836c0-4.243,5.007-7.679,11.179-7.679h.086c4.1.021,7.671,1.557,9.586,3.829h.007a5.945,5.945,0,0,1,1.5,3.85,5.477,5.477,0,0,1-.322,1.829" transform="translate(-75.859 -305.613)" fill="#655f68"/>
        <path id="Path_661629" data-name="Path 661629" d="M112,419.227a7.069,7.069,0,0,0,2.079-2.914v-.007a5.475,5.475,0,0,0,.321-1.829V418.3a5.785,5.785,0,0,1-1.064,3.279c-1.793,2.6-5.643,4.4-10.114,4.4a14.919,14.919,0,0,1-5.907-1.164c-2.607-1.114-4.493-2.943-5.079-5.093a5.291,5.291,0,0,1-.193-1.421v-3.822a5.317,5.317,0,0,0,.329,1.836c1.157,3.236,5.307,5.671,10.322,5.829.179.007.35.007.529.007a15.541,15.541,0,0,0,3.043-.293,13.277,13.277,0,0,0,3.093-.972A10.725,10.725,0,0,0,112,419.227Z" transform="translate(-75.859 -341.617)" fill="#655f68"/>
        <path id="Path_661630" data-name="Path 661630" d="M13.52,422.666v.057a1.341,1.341,0,0,1-1.343,1.343H6.949a2.887,2.887,0,0,1-2.886-2.886v-.243a2.887,2.887,0,0,1,2.886-2.886h5.229a1.341,1.341,0,0,1,1.343,1.343v3.271Z" transform="translate(-3.349 -344.564)" fill="#604533"/>
        <path id="Path_661631" data-name="Path 661631" d="M415.139,264.94l2.286,2.286h-6.907l-1.243-2.286Z" transform="translate(-337.332 -218.366)" fill="#1ea6bc"/>
        <path id="Path_661632" data-name="Path 661632" d="M386,277.943l1.271,2.329h-7.129l-.614-2.329Z" transform="translate(-312.816 -229.084)" fill="#1ea6bc"/>
        <path id="Path_661633" data-name="Path 661633" d="M377.583,251.205l1.314,2.414h-5.836l-.643-2.414Z" transform="translate(-306.955 -207.046)" fill="#1ea6bc"/>
        <path id="Path_661634" data-name="Path 661634" d="M346.641,267.226H340l-.379-2.286h6.407Z" transform="translate(-279.926 -218.366)" fill="#1ea6bc"/>
        <path id="Path_661635" data-name="Path 661635" d="M306.806,251.205l.4,2.414h-6.779l-.136-2.414Z" transform="translate(-247.506 -207.046)" fill="#1ea6bc"/>
        <path id="Path_661636" data-name="Path 661636" d="M308.791,277.943l.386,2.329h-7.293l-.128-2.329Z" transform="translate(-248.712 -229.084)" fill="#1ea6bc"/>
        <path id="Path_661637" data-name="Path 661637" d="M273.1,264.94l.121,2.286H267.5l-.364-2.286Z" transform="translate(-220.177 -218.366)" fill="#1ea6bc"/>
        <path id="Path_661638" data-name="Path 661638" d="M425.588,280.272h-7.972l-1.271-2.329h6.914Z" transform="translate(-343.159 -229.084)" fill="#655f68"/>
        <path id="Path_661639" data-name="Path 661639" d="M408.977,253.619h-5.864L401.8,251.2h4.757Z" transform="translate(-331.17 -207.045)" fill="#655f68"/>
        <path id="Path_661640" data-name="Path 661640" d="M381.912,264.94l1.243,2.286h-6.471l-.607-2.286Z" transform="translate(-309.969 -218.366)" fill="#655f68"/>
        <path id="Path_661641" data-name="Path 661641" d="M348.416,277.943l.614,2.329h-6.865l-.386-2.329Z" transform="translate(-281.702 -229.084)" fill="#655f68"/>
        <path id="Path_661642" data-name="Path 661642" d="M343.515,251.205l.643,2.414h-6.407l-.4-2.414Z" transform="translate(-278.051 -207.046)" fill="#655f68"/>
        <path id="Path_661643" data-name="Path 661643" d="M307.842,264.94l.379,2.286h-7.036l-.121-2.286Z" transform="translate(-248.142 -218.366)" fill="#655f68"/>
        <path id="Path_661644" data-name="Path 661644" d="M274.927,277.943l.129,2.329h-5.479l-.371-2.329Z" transform="translate(-221.885 -229.084)" fill="#655f68"/>
        <path id="Path_661645" data-name="Path 661645" d="M271.121,251.205l.136,2.414h-5.964l-.393-2.414Z" transform="translate(-218.335 -207.046)" fill="#655f68"/>
        <path id="Path_661646" data-name="Path 661646" d="M312.912,258.59H271.74l-.421-2.6h34.736l-2.329-2.329h-.007l-2.286-2.286-2.422-2.414H300.1a4.545,4.545,0,0,0,2.036-.478Z" transform="translate(-223.626 -204.802)" fill="#aaa"/>
        <path id="Path_661647" data-name="Path 661647" d="M314.888,305.981v3.207H274.231l-.514-3.207Z" transform="translate(-225.602 -252.193)" fill="#7e7e7e"/>
        <path id="Path_661648" data-name="Path 661648" d="M162.356,327.446c-7.564.171-11.6,3.736-11.6,3.736v-3.214s4.036-3.564,11.6-3.729,11.021,3.064,11.021,3.064l-2.464,1.707a19.592,19.592,0,0,0-8.557-1.564" transform="translate(-124.256 -267.236)" fill="#acccc6"/>
        <path id="Path_661649" data-name="Path 661649" d="M44.653,327.967v3.214s-4.043-3.564-11.607-3.736a19.553,19.553,0,0,0-8.55,1.564L22.024,327.3s3.45-3.229,11.021-3.064,11.607,3.729,11.607,3.729" transform="translate(-18.153 -267.236)" fill="#b8d3cf"/>
        <path id="Path_661650" data-name="Path 661650" d="M180.446,190.816s1.536,9.307,1.336,9.236a16.037,16.037,0,0,0-7.107-1.364,13.833,13.833,0,0,0-7.3,1.879V191.1a24.067,24.067,0,0,1,7.3-1.335A13.8,13.8,0,0,1,180.446,190.816Z" transform="translate(-137.954 -156.406)" fill="#6fceae"/>
        <path id="Path_661651" data-name="Path 661651" d="M171.213,187.306l.364,2.286.372,2.329.421,2.6.514,3.207.493,3.071s-3.45-3.229-11.021-3.064-11.6,3.729-11.6,3.729V172.749a21.924,21.924,0,0,1,9.35-2,19.958,19.958,0,0,1,7.186,1.264,10.912,10.912,0,0,1,1.579.736l.293,1.843.45,2.8.443,2.743.764,4.757Zm-3.129-2.928c.2.071-1.336-9.236-1.336-9.236a13.8,13.8,0,0,0-5.771-1.05,24.063,24.063,0,0,0-7.3,1.336v9.464a13.834,13.834,0,0,1,7.3-1.879A16.039,16.039,0,0,1,168.085,184.377Z" transform="translate(-124.256 -140.732)" fill="#c3ddda"/>
        <path id="Path_661652" data-name="Path 661652" d="M44.653,172.748v28.714s-4.043-3.564-11.607-3.729S22.024,200.8,22.024,200.8l4.514-28.05a17.817,17.817,0,0,1,8.764-2,23.29,23.29,0,0,1,6.414.9v.007a17.243,17.243,0,0,1,2.936,1.093" transform="translate(-18.153 -140.731)" fill="#d6eae8"/>
        <path id="Path_661653" data-name="Path 661653" d="M159.983,53.58a1.093,1.093,0,1,0-1.093,1.121,1.1,1.1,0,0,0,1.093-1.121m2.593-1.114a1.118,1.118,0,1,0,1.1,1.114,1.107,1.107,0,0,0-1.1-1.114m3.636,3.893H134.055V53.795a2.855,2.855,0,0,1,2.829-2.879h26.493a2.857,2.857,0,0,1,2.836,2.879Z" transform="translate(-110.491 -41.964)" fill="#655f68"/>
        <path id="Path_661654" data-name="Path 661654" d="M248.018,154.86a3.5,3.5,0,0,1,0,6.993,3.385,3.385,0,0,1-1.521-.357l-.293-1.843a10.907,10.907,0,0,0-1.579-.736,3.673,3.673,0,0,1-.043-.557,3.465,3.465,0,0,1,3.436-3.5" transform="translate(-201.589 -127.636)" fill="#655f68"/>
        <rect id="Rectangle_340720" data-name="Rectangle 340720" width="10.064" height="10.25" transform="translate(26.25 16.895)" fill="#655f68"/>
        <path id="Path_661655" data-name="Path 661655" d="M166.212,81.879v19.386a2.857,2.857,0,0,1-2.836,2.879h-7.529l-.45-2.8a3.384,3.384,0,0,0,1.521.357,3.5,3.5,0,1,0-3.436-3.493,3.67,3.67,0,0,0,.043.557,19.96,19.96,0,0,0-7.186-1.264,21.923,21.923,0,0,0-9.35,2,17.249,17.249,0,0,0-2.936-1.093V81.879Zm-19.407,2.5H136.741v10.25H146.8Z" transform="translate(-110.491 -67.484)" fill="#f1c27d"/>
        <path id="Path_661656" data-name="Path 661656" d="M143.9,7.906V9.563H113.29v-.75a4.712,4.712,0,0,1,4.664-4.75H143.9V5.677a1.114,1.114,0,0,0,0,2.229" transform="translate(-93.376 -3.346)" fill="#c2c2c2"/>
        <path id="Path_661657" data-name="Path 661657" d="M260.572,224.142H295.9a4.755,4.755,0,0,1-2.636,4.279,4.542,4.542,0,0,1-2.036.479H261.315l-.764-4.757Z" transform="translate(-214.751 -184.74)" fill="#96928c"/>
        <path id="Path_661658" data-name="Path 661658" d="M318.073,8.814v.75H287.451V7.907a1.114,1.114,0,0,0,0-2.229V4.064H313.4A4.713,4.713,0,0,1,318.073,8.814Z" transform="translate(-236.923 -3.347)" fill="#c2c2c2"/>
        <path id="Path_661659" data-name="Path 661659" d="M256.488,189.3a26.478,26.478,0,0,0,10.636-2.057v.864a2.857,2.857,0,0,1-2.836,2.879h-7.529Z" transform="translate(-211.402 -154.329)" fill="#e2b579"/>
        <path id="Path_661660" data-name="Path 661660" d="M260.572,224.142H295.9a4.755,4.755,0,0,1-2.636,4.279,4.542,4.542,0,0,1-2.036.479H261.315l-.764-4.757Z" transform="translate(-214.751 -184.74)" fill="#7e7e7e"/>
        <path id="Path_661661" data-name="Path 661661" d="M422.066,8.814v.75h-8.443a44.416,44.416,0,0,0,.529-5.5h3.243a4.713,4.713,0,0,1,4.671,4.75" transform="translate(-340.916 -3.347)" fill="#aaa"/>
        <path id="Path_661662" data-name="Path 661662" d="M282.746,45.639a51.2,51.2,0,0,0,2.636-10.286h8.443V68.539h-35.35l-.443-2.743h7.529a2.857,2.857,0,0,0,2.836-2.879v-.864a22.768,22.768,0,0,0,6.907-4.6,27.8,27.8,0,0,0,4.629-5.907A37.076,37.076,0,0,0,282.746,45.639Z" transform="translate(-212.675 -29.136)" fill="#d6eae8"/>
        <path id="Path_661663" data-name="Path 661663" d="M163.681,197.83a.715.715,0,0,0,.736-.039,13.239,13.239,0,0,1,6.9-1.751,16.289,16.289,0,0,1,6.71,1.255c.077.036.131.059.156.067a.725.725,0,0,0,.706-.122c.409-.34.472-.391-1.1-9.9a.715.715,0,0,0-.382-.521,14.4,14.4,0,0,0-6.092-1.129,24.532,24.532,0,0,0-7.551,1.383.714.714,0,0,0-.466.67V197.2a.71.71,0,0,0,.378.63m1.049-9.581a23.055,23.055,0,0,1,6.588-1.135,14.434,14.434,0,0,1,5.129.84c.48,2.922.966,6.044,1.176,7.636a18.932,18.932,0,0,0-6.3-.978A15.681,15.681,0,0,0,164.73,196Z" transform="translate(-134.597 -153.043)" fill="#3a322b"/>
        <path id="Path_661664" data-name="Path 661664" d="M163.533,261.539a.715.715,0,0,0,.954,1.064,11.856,11.856,0,0,1,7.4-2.509c4.551,0,6.9,1.643,6.921,1.658a.714.714,0,1,0,.841-1.154c-.108-.079-2.709-1.932-7.763-1.932A13.179,13.179,0,0,0,163.533,261.539Z" transform="translate(-134.592 -213.195)" fill="#3a322b"/>
        <path id="Path_661665" data-name="Path 661665" d="M44.593,261.756c.023-.016,2.328-1.658,6.921-1.658A14.532,14.532,0,0,1,59,262a.714.714,0,0,0,.8-1.184,15.668,15.668,0,0,0-8.281-2.149c-5.054,0-7.655,1.853-7.763,1.932a.714.714,0,1,0,.841,1.154Z" transform="translate(-35.819 -213.198)" fill="#3a322b"/>
        <path id="Path_661666" data-name="Path 661666" d="M180.564,289.434a.712.712,0,0,0-.28-.969,18.572,18.572,0,0,0-8.4-1.842,13.179,13.179,0,0,0-8.358,2.873.715.715,0,0,0,.954,1.064,11.858,11.858,0,0,1,7.4-2.509,17.5,17.5,0,0,1,7.707,1.664A.713.713,0,0,0,180.564,289.434Z" transform="translate(-134.589 -236.238)" fill="#3a322b"/>
        <path id="Path_661667" data-name="Path 661667" d="M39.515,289.434a.714.714,0,0,0,.969.281,17.5,17.5,0,0,1,7.707-1.664,11.957,11.957,0,0,1,7.4,2.509.715.715,0,0,0,.953-1.065,13.182,13.182,0,0,0-8.358-2.873,18.575,18.575,0,0,0-8.4,1.842A.713.713,0,0,0,39.515,289.434Z" transform="translate(-32.496 -236.238)" fill="#3a322b"/>
        <path id="Path_661668" data-name="Path 661668" d="M52.025,222.4a.712.712,0,0,0,.47-.177,9.713,9.713,0,0,1,6.061-1.831,14.026,14.026,0,0,1,6.921,1.892.714.714,0,0,0,.779-1.2,15.212,15.212,0,0,0-7.7-2.124,11.057,11.057,0,0,0-7,2.184.715.715,0,0,0,.471,1.253Z" transform="translate(-42.291 -180.473)" fill="#3a322b"/>
        <path id="Path_661669" data-name="Path 661669" d="M58.471,192.691a8.01,8.01,0,0,1,5.375-1.639,13.439,13.439,0,0,1,6.538,1.733.714.714,0,0,0,.767-1.2,14.636,14.636,0,0,0-7.306-1.957c-4.276,0-6.3,1.97-6.382,2.054a.715.715,0,0,0,1.008,1.014Z" transform="translate(-47.19 -156.289)" fill="#3a322b"/>
        <path id="Path_661670" data-name="Path 661670" d="M89.991,53.744a.7.7,0,0,0-.038-.188.647.647,0,0,0-.028-.073.694.694,0,0,0-.111-.164c-.011-.013-.019-.029-.032-.041l-.008-.01-10.1-9.479A5.486,5.486,0,0,0,81.861,39.4V5.468A5.431,5.431,0,0,0,76.479,0h-51.9A5.431,5.431,0,0,0,19.2,5.468V29.392c-.654-.056-1.337-.091-2.052-.091a18.439,18.439,0,0,0-9.139,2.1.715.715,0,0,0-.33.494L3.168,59.955a.7.7,0,0,0,0,.094.622.622,0,0,0-.011.072c0,.018.013.033.016.051a.661.661,0,0,0,.055.179.741.741,0,0,0,.045.1.709.709,0,0,0,.141.154c.019.016.029.039.049.053L5.934,62.36a.711.711,0,0,0,.7.063,18.848,18.848,0,0,1,8.242-1.5c7.169.156,11.091,3.5,11.149,3.554.019.016.043.024.063.038-5.961.449-10.622,4.017-10.622,8.341v1.312h-4.7a2.051,2.051,0,0,0-1.936-1.4H3.6a3.606,3.606,0,0,0-3.6,3.6v.237a3.606,3.606,0,0,0,3.6,3.6H8.829a2.052,2.052,0,0,0,1.936-1.4h5.106a9.123,9.123,0,0,0,4.709,4.749l-1.8,5.5a.714.714,0,0,0,.679.936H69.826a.714.714,0,0,0,.679-.936l-7.9-24.1a.714.714,0,0,0-.679-.491H27.36c-.133,0-.262.011-.394.014l0,0c.039-.034,3.963-3.4,11.149-3.554a18.888,18.888,0,0,1,8.241,1.5.715.715,0,0,0,.7-.063l2.467-1.706c.02-.014.03-.037.049-.053a.7.7,0,0,0,.142-.154.659.659,0,0,0,.045-.1.7.7,0,0,0,.055-.179c0-.018.014-.033.016-.051a.634.634,0,0,0-.011-.072.6.6,0,0,0,0-.094l-.362-2.247h39.82A.714.714,0,0,0,90,57v-3.2A.42.42,0,0,0,89.991,53.744Zm-2.509-.669H48.721L48.532,51.9h33.9a.714.714,0,0,0,.5-1.22l-2.326-2.322,0,0-2.29-2.286h0l-1.236-1.233a5.3,5.3,0,0,0,1.288-.317ZM55,13.682H24.279V11.832A2.144,2.144,0,0,1,26.4,9.664H52.888A2.145,2.145,0,0,1,55,11.832ZM24.279,15.111H55V33.777a2.145,2.145,0,0,1-2.116,2.169H45.966L45.8,34.878a4.123,4.123,0,0,0,.632.054A4.213,4.213,0,1,0,42.3,30.265a21.22,21.22,0,0,0-6.456-.963,23.124,23.124,0,0,0-9.349,1.92,18.727,18.727,0,0,0-2.218-.838V15.111Zm50.81,29.758.991.989H72.367l-.539-.989Zm-9.3,3.278h-5.1l-.142-.86h5.014Zm1.251-.86h4.484l.468.86H67.262Zm-7.8.86H53.717l-.047-.86H59.1Zm-6.951,0H47.929l-.138-.86H52.24Zm-4.129,1.429h4.207l.049.9H48.3Zm5.687.9-.049-.9h5.679l.148.9Zm7.225,0-.148-.9h5.241l.237.9Zm6.808,0-.237-.9h5.123l.488.9Zm7,0-.488-.9H79.8l.9.9Zm-1.265-2.324-.468-.86h4.367l.862.86ZM70.2,44.869l.538.989H66.656l-.261-.989Zm-5.285,0,.261.989H60.307l-.164-.989Zm-6.221,0,.163.989H53.592l-.054-.989Zm-6.589,0,.054.989h-4.6l-.159-.989Zm-8.4-14.089c0-.021-.005-.04-.005-.061A2.722,2.722,0,1,1,46.427,33.5a2.628,2.628,0,0,1-.88-.168L45.317,31.9a.713.713,0,0,0-.33-.494,10.485,10.485,0,0,0-1.275-.625m-16.5,1.687a22.113,22.113,0,0,1,8.635-1.738,18.153,18.153,0,0,1,8.114,1.743l4.192,26.059a19.071,19.071,0,0,0-10.064-2.246,21.055,21.055,0,0,0-10.876,3.052V32.467ZM76.479,43.44H47.172l-.535-3.324H80.366A3.98,3.98,0,0,1,76.479,43.44ZM24.582,1.43h51.9a4,4,0,0,1,3.953,4.039V5.5h-59.8v-.03A4,4,0,0,1,24.582,1.43Zm-3.953,5.5h59.8V38.687H46.407L46.2,37.374h6.691a3.575,3.575,0,0,0,3.544-3.6V11.832a3.575,3.575,0,0,0-3.544-3.6H26.394a3.575,3.575,0,0,0-3.544,3.6V29.988c-.671-.163-1.414-.314-2.222-.431V6.927ZM9.034,32.471a18.043,18.043,0,0,1,8.114-1.741,22.108,22.108,0,0,1,8.635,1.739V59.337a21.052,21.052,0,0,0-10.876-3.052,18.992,18.992,0,0,0-10.063,2.24Zm5.307,27.02A20.346,20.346,0,0,0,6.419,60.96L5.1,60.049a17.2,17.2,0,0,1,9.776-2.335,19.063,19.063,0,0,1,10.907,3.363v1.473A21.053,21.053,0,0,0,14.907,59.5Q14.621,59.491,14.341,59.491ZM27.36,65.9c3.934,0,7.364,1.453,9.151,3.593.011.011.02.024.031.034a5.7,5.7,0,0,1,1.07,1.934c-1.934-2.241-5.8-3.775-10.252-3.775s-8.318,1.535-10.252,3.776C18.085,68.287,22.311,65.9,27.36,65.9Zm-7.745,5.283L25.4,79.692c-3.989-.506-7.173-2.521-8.169-5.117a4.585,4.585,0,0,1,2.384-3.4m7.745,8.641c-.051,0-.1,0-.15,0l-6.341-9.331a12.939,12.939,0,0,1,1.609-.629l6.7,9.853A15.5,15.5,0,0,1,27.36,79.819Zm3.361-.376L23.944,69.47a16.226,16.226,0,0,1,1.846-.279l6.629,9.756A13.466,13.466,0,0,1,30.721,79.443Zm3.026-1.084-6.282-9.246a16.612,16.612,0,0,1,2.14.154l5.573,8.2a10.181,10.181,0,0,1-1.431.89m2.506-1.851-4.647-6.839c3.348.9,5.791,2.8,5.884,4.9a6.01,6.01,0,0,1-1.236,1.935m-26.8,1.651a.627.627,0,0,1-.626.626H3.6a2.175,2.175,0,0,1-2.173-2.173v-.237A2.175,2.175,0,0,1,3.6,74.2H8.829a.628.628,0,0,1,.626.626Zm1.429-.769V75.6h4.582v1.085a5.941,5.941,0,0,0,.051.707H10.884Zm6.024-.532c2.018,2.612,5.946,4.389,10.451,4.389s8.434-1.776,10.451-4.389c-.142,3.757-4.77,6.786-10.451,6.786s-10.309-3.029-10.451-6.786M61.406,65.9l7.435,22.677h-48.4L21.9,84.128a15.905,15.905,0,0,0,5.46.944,16.688,16.688,0,0,0,2.046-.133l.012,0H63.233a.714.714,0,1,0,0-1.429H34.241a10.339,10.339,0,0,0,3.581-2.843H62.016a.714.714,0,0,0,0-1.429H38.683A6.239,6.239,0,0,0,39.2,77.4H60.741a.714.714,0,0,0,0-1.429H39.253V73.815H48.4a.714.714,0,0,0,0-1.429H39.219a6.331,6.331,0,0,0-.837-2.666H58.624a.714.714,0,1,0,0-1.429h-21.3a10.885,10.885,0,0,0-3.335-2.4H61.406ZM46.577,60.96A20.778,20.778,0,0,0,38.088,59.5a21.057,21.057,0,0,0-10.876,3.052V61.077a19.067,19.067,0,0,1,10.907-3.363A17.19,17.19,0,0,1,47.9,60.049Zm2.66-4.681L48.951,54.5H88.571v1.776Z" transform="translate(0 0.001)" fill="#3a322b"/>
        <path id="Path_661671" data-name="Path 661671" d="M282.33,15.474a1.116,1.116,0,1,0-1.095-1.116,1.105,1.105,0,0,0,1.095,1.116" transform="translate(-231.799 -10.913)" fill="#3a322b"/>
        <path id="Path_661672" data-name="Path 661672" d="M270.212,59.746a1.116,1.116,0,1,0,1.095,1.116,1.105,1.105,0,0,0-1.095-1.116" transform="translate(-221.811 -49.241)" fill="#3a322b"/>
        <path id="Path_661673" data-name="Path 661673" d="M291.184,59.746a1.116,1.116,0,1,0,1.095,1.116,1.105,1.105,0,0,0-1.095-1.116" transform="translate(-239.097 -49.241)" fill="#3a322b"/>
        <path id="Path_661674" data-name="Path 661674" d="M156.769,103.022V92.773a.714.714,0,0,0-.714-.714H145.992a.714.714,0,0,0-.714.714v10.249a.714.714,0,0,0,.714.714h10.063a.714.714,0,0,0,.714-.714m-1.429-.714h-8.634v-8.82h8.634Z" transform="translate(-119.741 -75.874)" fill="#3a322b"/>
        <path id="Path_661675" data-name="Path 661675" d="M218.53,93.488h14.352a.714.714,0,0,0,0-1.429H218.53a.714.714,0,0,0,0,1.429" transform="translate(-179.528 -75.874)" fill="#3a322b"/>
        <path id="Path_661676" data-name="Path 661676" d="M218.53,115.187h14.352a.714.714,0,0,0,0-1.429H218.53a.714.714,0,0,0,0,1.429" transform="translate(-179.528 -93.759)" fill="#3a322b"/>
        <path id="Path_661677" data-name="Path 661677" d="M218.53,136.882h14.352a.714.714,0,0,0,0-1.429H218.53a.714.714,0,0,0,0,1.429" transform="translate(-179.528 -111.641)" fill="#3a322b"/>
        <path id="Path_661678" data-name="Path 661678" d="M330.157,192.023h18.649a.714.714,0,0,0,0-1.429H330.157a.714.714,0,1,0,0,1.429" transform="translate(-271.533 -157.089)" fill="#3a322b"/>
        <path id="Path_661679" data-name="Path 661679" d="M330.157,158.43h18.649a.714.714,0,0,0,0-1.429H330.157a.714.714,0,1,0,0,1.429" transform="translate(-271.533 -129.401)" fill="#3a322b"/>
        <path id="Path_661680" data-name="Path 661680" d="M330.157,124.841h18.649a.714.714,0,0,0,0-1.429H330.157a.714.714,0,1,0,0,1.429" transform="translate(-271.533 -101.716)" fill="#3a322b"/>
        <path id="Path_661681" data-name="Path 661681" d="M330.157,91.249h18.649a.714.714,0,0,0,0-1.429H330.157a.714.714,0,1,0,0,1.429" transform="translate(-271.533 -74.029)" fill="#3a322b"/>
        <path id="Path_661682" data-name="Path 661682" d="M379.407,362.911l-1.14-2.435h0v0l-7.776-16.618v0a13.622,13.622,0,0,0-4.821-5.466.714.714,0,0,0-1.081.512,13.921,13.921,0,0,0,1.135,7.249c0,.008.01.014.014.021s.007.024.013.036l7.747,16.554s0,.006,0,.009,0,0,0,.006l1.138,2.431a.017.017,0,0,0,0,.006,2.378,2.378,0,0,0,1.376,1.236,2.592,2.592,0,0,0,.868.147,2.765,2.765,0,0,0,1.206-.279,2.611,2.611,0,0,0,1.321-3.4l-.005,0ZM375,362.6l-.2-.437h0a1.178,1.178,0,0,1,.649-1.507,1.278,1.278,0,0,1,.973-.07.958.958,0,0,1,.559.5l0,0,.216.461A2.675,2.675,0,0,0,375,362.6Zm-7.333-18.566a1.275,1.275,0,0,1,.972-.071,1,1,0,0,1,.586.553l6.826,14.586a2.678,2.678,0,0,0-2.195,1.056l-6.84-14.616a1.179,1.179,0,0,1,.65-1.507m.324-1.544a2.679,2.679,0,0,0-1.723.827,13.35,13.35,0,0,1-.343-2.991A13.083,13.083,0,0,1,367.988,342.491Zm9.479,22.539a1.27,1.27,0,0,1-.973.07.957.957,0,0,1-.559-.5,1.178,1.178,0,0,1,.649-1.507,1.342,1.342,0,0,1,.581-.136,1.183,1.183,0,0,1,.391.066.958.958,0,0,1,.559.5,1.178,1.178,0,0,1-.649,1.507" transform="translate(-300.422 -278.814)" fill="#3a322b"/>
        <path id="Path_661683" data-name="Path 661683" d="M425.38,359.048a2.9,2.9,0,0,0,.961-3.5l-1.27-2.526a1.618,1.618,0,0,0-.963-.81,2.014,2.014,0,0,0-1.542.151,2.124,2.124,0,0,0-.407.284l-5.315-10.57,0,0-1.255-2.5c-.837-1.664-2.429-2.622-4.124-3.535a.715.715,0,0,0-1.047.532c-.263,1.933-.43,3.8.4,5.464l1.264,2.513v0l7.011,13.941a.011.011,0,0,0,0,.005l2.931,5.829a2.18,2.18,0,0,0,1.3,1.089,2.583,2.583,0,0,0,.8.122,2.95,2.95,0,0,0,1.359-.34,2.575,2.575,0,0,0,1.314-3.334Zm-4.771-.726a4.288,4.288,0,0,1,2.221-1.165l.741,1.475a5.677,5.677,0,0,0-2.226,1.155ZM413.6,344.376a4.288,4.288,0,0,1,2.221-1.165l6.345,12.619a5.681,5.681,0,0,0-2.226,1.155Zm-1.276-2.536a4.281,4.281,0,0,1,2.221-1.165l.608,1.209a5.678,5.678,0,0,0-2.226,1.155Zm10.593,12.3c-.058-.114.037-.372.313-.517a.6.6,0,0,1,.443-.059.2.2,0,0,1,.125.092l1.27,2.526a1.406,1.406,0,0,1-.352,1.535l-.854-1.7,0-.009ZM411.7,337.809a8.079,8.079,0,0,1,2.047,1.589,5.669,5.669,0,0,0-1.985,1.029,8.464,8.464,0,0,1-.062-2.618m13.118,26.124a1.392,1.392,0,0,1-1.056.124.762.762,0,0,1-.46-.371l-1.288-2.562a4.285,4.285,0,0,1,2.22-1.165l1.281,2.548A1.174,1.174,0,0,1,424.822,363.933Z" transform="translate(-338.096 -276.897)" fill="#3a322b"/>
      </g>
    </g>
  </g>
</svg>
